<svg width="48" height="42" viewBox="0 0 48 42" fill="none" xmlns="http://www.w3.org/2000/svg">
<mask id="path-1-inside-1" fill="white">
<path fill-rule="evenodd" clip-rule="evenodd" d="M45 2C46.6569 2 48 3.34315 48 5V40.4672C48 40.7615 47.7615 41 47.4672 41C47.3209 41 47.1812 40.9397 47.0798 40.8341C41.2569 34.7726 33.069 31 24 31C14.931 31 6.74315 34.7726 0.920213 40.8341C0.81884 40.9397 0.679107 41 0.532779 41C0.238533 41 0 40.7615 0 40.4672V5C0 3.34315 1.34315 2 3 2H45ZM24 25C26.2091 25 28 23.2091 28 21C28 18.7909 26.2091 17 24 17C21.7909 17 20 18.7909 20 21C20 23.2091 21.7909 25 24 25Z"/>
</mask>
<path fill-rule="evenodd" clip-rule="evenodd" d="M45 2C46.6569 2 48 3.34315 48 5V40.4672C48 40.7615 47.7615 41 47.4672 41C47.3209 41 47.1812 40.9397 47.0798 40.8341C41.2569 34.7726 33.069 31 24 31C14.931 31 6.74315 34.7726 0.920213 40.8341C0.81884 40.9397 0.679107 41 0.532779 41C0.238533 41 0 40.7615 0 40.4672V5C0 3.34315 1.34315 2 3 2H45ZM24 25C26.2091 25 28 23.2091 28 21C28 18.7909 26.2091 17 24 17C21.7909 17 20 18.7909 20 21C20 23.2091 21.7909 25 24 25Z" fill="#156B9B"/>
<path d="M47.0798 40.8341L48.5221 39.4486L48.5221 39.4486L47.0798 40.8341ZM0.920213 40.8341L-0.522098 39.4486L-0.522101 39.4486L0.920213 40.8341ZM50 5C50 2.23858 47.7614 0 45 0V4C45.5523 4 46 4.44772 46 5H50ZM50 40.4672V5H46V40.4672H50ZM47.4672 43C48.866 43 50 41.866 50 40.4672H46C46 39.6569 46.6569 39 47.4672 39V43ZM45.6375 42.2197C46.1107 42.7123 46.7689 43 47.4672 43V39C47.8728 39 48.2517 39.1671 48.5221 39.4486L45.6375 42.2197ZM24 33C32.5025 33 40.176 36.5345 45.6375 42.2197L48.5221 39.4486C42.3377 33.0108 33.6355 29 24 29V33ZM2.36252 42.2197C7.82398 36.5345 15.4975 33 24 33V29C14.3645 29 5.66231 33.0108 -0.522098 39.4486L2.36252 42.2197ZM0.532779 43C1.23106 43 1.88933 42.7123 2.36253 42.2197L-0.522101 39.4486C-0.251651 39.1671 0.127155 39 0.532779 39V43ZM-2 40.4672C-2 41.866 -0.866037 43 0.532779 43V39C1.3431 39 2 39.6569 2 40.4672H-2ZM-2 5V40.4672H2V5H-2ZM3 0C0.238577 0 -2 2.23858 -2 5H2C2 4.44772 2.44772 4 3 4V0ZM45 0H3V4H45V0ZM26 21C26 22.1046 25.1046 23 24 23V27C27.3137 27 30 24.3137 30 21H26ZM24 19C25.1046 19 26 19.8954 26 21H30C30 17.6863 27.3137 15 24 15V19ZM22 21C22 19.8954 22.8954 19 24 19V15C20.6863 15 18 17.6863 18 21H22ZM24 23C22.8954 23 22 22.1046 22 21H18C18 24.3137 20.6863 27 24 27V23Z" fill="white" mask="url(#path-1-inside-1)"/>
</svg>
