<svg xmlns="http://www.w3.org/2000/svg" viewBox="0 0 50.65 40.87"><defs><style>.cls-1{fill:#156b9b;stroke:#fff;stroke-miterlimit:10;stroke-width:1.5px;}</style></defs><title>1</title><g id="Layer_4" data-name="Layer 4"><path class="cls-1" d="M48.42.75H2.23A1.48,1.48,0,0,0,.75,2.23V37.3a1.48,1.48,0,0,0,1.48,1.48A3.24,3.24,0,0,0,4.61,37.7c2.83-3,8-5.38,14.19-6.36a42.89,42.89,0,0,1,13.06,0c6.22,1,11.34,3.32,14.18,6.36a3.26,3.26,0,0,0,2.38,1.08A1.48,1.48,0,0,0,49.9,37.3V2.23A1.48,1.48,0,0,0,48.42.75ZM25.33,23.84a3.47,3.47,0,1,1,3.47-3.47A3.47,3.47,0,0,1,25.33,23.84Z"/></g></svg>