<svg width="40" height="200" viewBox="0 0 40 200" fill="none" xmlns="http://www.w3.org/2000/svg">
<mask id="path-1-outside-1" maskUnits="userSpaceOnUse" x="0" y="91" width="40" height="106" fill="black">
<rect fill="white" y="91" width="40" height="106"/>
<path fill-rule="evenodd" clip-rule="evenodd" d="M14 95C14 93.8954 14.8954 93 16 93H24C25.1046 93 26 93.8954 26 95V160.15C26.0883 167.069 32.0226 172.007 34.999 172.994L35.0163 173C36.6657 173.009 38 174.349 38 176V192C38 193.657 36.6569 195 35 195H5C3.34315 195 2 193.657 2 192V176C2 174.347 3.33646 173.007 4.98762 173L4.99901 172.994C6.99991 172 13.999 167.5 13.999 159.994C13.999 159.955 13.9993 159.915 14 159.876V95ZM25 184C25 186.761 22.7614 189 20 189C17.2386 189 15 186.761 15 184C15 181.239 17.2386 179 20 179C22.7614 179 25 181.239 25 184ZM20 104C22.2091 104 24 102.209 24 100C24 97.7909 22.2091 96 20 96C17.7909 96 16 97.7909 16 100C16 102.209 17.7909 104 20 104Z"/>
</mask>
<path fill-rule="evenodd" clip-rule="evenodd" d="M14 95C14 93.8954 14.8954 93 16 93H24C25.1046 93 26 93.8954 26 95V160.15C26.0883 167.069 32.0226 172.007 34.999 172.994L35.0163 173C36.6657 173.009 38 174.349 38 176V192C38 193.657 36.6569 195 35 195H5C3.34315 195 2 193.657 2 192V176C2 174.347 3.33646 173.007 4.98762 173L4.99901 172.994C6.99991 172 13.999 167.5 13.999 159.994C13.999 159.955 13.9993 159.915 14 159.876V95ZM25 184C25 186.761 22.7614 189 20 189C17.2386 189 15 186.761 15 184C15 181.239 17.2386 179 20 179C22.7614 179 25 181.239 25 184ZM20 104C22.2091 104 24 102.209 24 100C24 97.7909 22.2091 96 20 96C17.7909 96 16 97.7909 16 100C16 102.209 17.7909 104 20 104Z" fill="#156B9B"/>
<path d="M26 160.15H24V160.163L24.0002 160.176L26 160.15ZM34.999 172.994L35.642 171.1L35.6352 171.098L35.6284 171.096L34.999 172.994ZM35.0163 173L34.3734 174.894L34.6809 174.998L35.0057 175L35.0163 173ZM4.98762 173L4.99569 175L5.47573 174.998L5.90258 174.778L4.98762 173ZM4.99901 172.994L4.10909 171.203L4.09652 171.209L4.08404 171.216L4.99901 172.994ZM13.999 159.994L15.999 159.994V159.994H13.999ZM14 159.876L15.9997 159.91L16 159.893V159.876H14ZM16 91C13.7909 91 12 92.7909 12 95H16V95V91ZM24 91H16V95H24V91ZM28 95C28 92.7909 26.2091 91 24 91V95H28ZM28 160.15V95H24V160.15H28ZM35.6284 171.096C34.5724 170.746 32.6377 169.522 30.948 167.51C29.2905 165.537 28.0365 163.002 27.9998 160.125L24.0002 160.176C24.0517 164.217 25.809 167.611 27.8849 170.083C29.9285 172.516 32.4492 174.256 34.3696 174.893L35.6284 171.096ZM35.6593 171.106L35.642 171.1L34.3561 174.888L34.3734 174.894L35.6593 171.106ZM40 176C40 173.248 37.7761 171.015 35.027 171L35.0057 175C35.5552 175.003 36 175.45 36 176H40ZM40 192V176H36V192H40ZM35 197C37.7614 197 40 194.761 40 192H36C36 192.552 35.5523 193 35 193V197ZM5 197H35V193H5V197ZM0 192C0 194.761 2.23857 197 5 197V193C4.44772 193 4 192.552 4 192H0ZM0 176V192H4V176H0ZM4.97954 171C2.22741 171.011 0 173.245 0 176H4C4 175.449 4.4455 175.002 4.99569 175L4.97954 171ZM4.08404 171.216L4.07265 171.222L5.90258 174.778L5.91397 174.773L4.08404 171.216ZM11.999 159.994C11.999 163.087 10.5635 165.628 8.77326 167.587C6.97267 169.556 4.93678 170.792 4.10909 171.203L5.88893 174.785C7.06214 174.202 9.52625 172.691 11.7254 170.286C13.935 167.869 15.999 164.408 15.999 159.994L11.999 159.994ZM12.0003 159.843C11.9994 159.893 11.999 159.943 11.999 159.994H15.999C15.999 159.966 15.9992 159.938 15.9997 159.91L12.0003 159.843ZM12 95V159.876H16V95H12ZM20 191C23.866 191 27 187.866 27 184H23C23 185.657 21.6569 187 20 187V191ZM13 184C13 187.866 16.134 191 20 191V187C18.3431 187 17 185.657 17 184H13ZM20 177C16.134 177 13 180.134 13 184H17C17 182.343 18.3431 181 20 181V177ZM27 184C27 180.134 23.866 177 20 177V181C21.6569 181 23 182.343 23 184H27ZM22 100C22 101.105 21.1046 102 20 102V106C23.3137 106 26 103.314 26 100H22ZM20 98C21.1046 98 22 98.8954 22 100H26C26 96.6863 23.3137 94 20 94V98ZM18 100C18 98.8954 18.8954 98 20 98V94C16.6863 94 14 96.6863 14 100H18ZM20 102C18.8954 102 18 101.105 18 100H14C14 103.314 16.6863 106 20 106V102Z" fill="white" mask="url(#path-1-outside-1)"/>
</svg>
