<svg xmlns="http://www.w3.org/2000/svg" viewBox="0 0 39.03 193"><defs><style>.cls-1{fill:#156b9b;stroke:#fff;stroke-miterlimit:10;stroke-width:1.5px;}</style></defs><title>2</title><g id="Layer_3" data-name="Layer 3"><path class="cls-1" d="M36.7,168.27l-.54-.13a13.73,13.73,0,0,1-10.11-13.4V91.47H13v63.28A13.74,13.74,0,0,1,2.86,168.16l-.53.12a2,2,0,0,0-1.58,1.95v20a2,2,0,0,0,2,2H36.27a2,2,0,0,0,2-2v-20A2,2,0,0,0,36.7,168.27ZM19.52,94.59a3.47,3.47,0,1,1-3.47,3.47A3.47,3.47,0,0,1,19.52,94.59Zm0,89.51A4.12,4.12,0,1,1,23.64,180,4.11,4.11,0,0,1,19.53,184.1Z"/></g></svg>