<svg width="68" height="100" viewBox="0 0 68 100" fill="none" xmlns="http://www.w3.org/2000/svg">
<mask id="path-1-outside-1" maskUnits="userSpaceOnUse" x="0" y="2" width="68" height="82" fill="black">
<rect fill="white" y="2" width="68" height="82"/>
<path fill-rule="evenodd" clip-rule="evenodd" d="M20.001 18C20.001 10.268 26.269 4 34.001 4C41.733 4 48.001 10.268 48.001 18V32.001L66 50C66 67.6731 51.6731 82 34 82C16.3269 82 2 67.6731 2 50L20.0004 31.9996L20.001 18ZM39 18C39 20.7614 36.7614 23 34 23C31.2386 23 29 20.7614 29 18C29 15.2386 31.2386 13 34 13C36.7614 13 39 15.2386 39 18ZM34 62C40.6274 62 46 56.6274 46 50C46 43.3726 40.6274 38 34 38C27.3726 38 22 43.3726 22 50C22 56.6274 27.3726 62 34 62Z"/>
</mask>
<path fill-rule="evenodd" clip-rule="evenodd" d="M20.001 18C20.001 10.268 26.269 4 34.001 4C41.733 4 48.001 10.268 48.001 18V32.001L66 50C66 67.6731 51.6731 82 34 82C16.3269 82 2 67.6731 2 50L20.0004 31.9996L20.001 18ZM39 18C39 20.7614 36.7614 23 34 23C31.2386 23 29 20.7614 29 18C29 15.2386 31.2386 13 34 13C36.7614 13 39 15.2386 39 18ZM34 62C40.6274 62 46 56.6274 46 50C46 43.3726 40.6274 38 34 38C27.3726 38 22 43.3726 22 50C22 56.6274 27.3726 62 34 62Z" fill="#156B9B"/>
<path d="M20.001 18L22.001 18.0001V18H20.001ZM48.001 32.001H46.001V32.8294L46.5868 33.4152L48.001 32.001ZM66 50H68V49.1716L67.4142 48.5858L66 50ZM2 50L0.585786 48.5858L0 49.1716V50H2ZM20.0004 31.9996L21.4146 33.4139L22.0003 32.8281L22.0004 31.9997L20.0004 31.9996ZM34.001 2C25.1644 2 18.001 9.16344 18.001 18H22.001C22.001 11.3726 27.3736 6 34.001 6V2ZM50.001 18C50.001 9.16344 42.8375 2 34.001 2V6C40.6284 6 46.001 11.3726 46.001 18H50.001ZM50.001 32.001V18H46.001V32.001H50.001ZM67.4142 48.5858L49.4152 30.5868L46.5868 33.4152L64.5858 51.4142L67.4142 48.5858ZM34 84C52.7777 84 68 68.7777 68 50H64C64 66.5685 50.5685 80 34 80V84ZM0 50C0 68.7777 15.2223 84 34 84V80C17.4315 80 4 66.5685 4 50H0ZM18.5861 30.5854L0.585786 48.5858L3.41421 51.4142L21.4146 33.4139L18.5861 30.5854ZM18.001 17.9999L18.0004 31.9996L22.0004 31.9997L22.001 18.0001L18.001 17.9999ZM34 25C37.866 25 41 21.866 41 18H37C37 19.6569 35.6569 21 34 21V25ZM27 18C27 21.866 30.134 25 34 25V21C32.3431 21 31 19.6569 31 18H27ZM34 11C30.134 11 27 14.134 27 18H31C31 16.3431 32.3431 15 34 15V11ZM41 18C41 14.134 37.866 11 34 11V15C35.6569 15 37 16.3431 37 18H41ZM44 50C44 55.5228 39.5228 60 34 60V64C41.732 64 48 57.732 48 50H44ZM34 40C39.5228 40 44 44.4772 44 50H48C48 42.268 41.732 36 34 36V40ZM24 50C24 44.4772 28.4772 40 34 40V36C26.268 36 20 42.268 20 50H24ZM34 60C28.4772 60 24 55.5228 24 50H20C20 57.732 26.268 64 34 64V60Z" fill="white" mask="url(#path-1-outside-1)"/>
</svg>
