<svg xmlns="http://www.w3.org/2000/svg" viewBox="0 0 65.01 88.59"><defs><style>.cls-1{stroke:#fff;stroke-miterlimit:10;stroke-width:3.5px;}.cls-2{fill:#156b9b;}</style></defs><title>3</title><g id="Layer_2" data-name="Layer 2"><path class="cls-1" d="M45.52,23c.09-.17.17-.35.26-.53a14.62,14.62,0,0,0,0-12.14h0A14.59,14.59,0,0,0,19.27,22.46c.08.18.17.34.25.51L1.79,39.11a30.74,30.74,0,1,0,61.47,0Zm-13-14a4.12,4.12,0,1,1-4.12,4.12A4.11,4.11,0,0,1,32.54,9Zm-.06,46.87A11.62,11.62,0,1,1,44.1,44.26,11.62,11.62,0,0,1,32.48,55.88Z"/><path class="cls-2" d="M45.52,23c.09-.17.17-.35.26-.53a14.62,14.62,0,0,0,0-12.14h0A14.59,14.59,0,0,0,19.27,22.46c.08.18.17.34.25.51L1.79,39.11a30.74,30.74,0,1,0,61.47,0Zm-13-14a4.12,4.12,0,1,1-4.12,4.12A4.11,4.11,0,0,1,32.54,9Zm-.06,46.87A11.62,11.62,0,1,1,44.1,44.26,11.62,11.62,0,0,1,32.48,55.88Z"/></g></svg>