<svg width="6" height="6" viewBox="0 0 6 6" fill="none" xmlns="http://www.w3.org/2000/svg">
<path d="M4.37372 3.00003L5.85857 1.51517C5.95289 1.42094 5.99998 1.30647 5.99998 1.17174C5.99998 1.03705 5.95277 0.922598 5.85857 0.828311L5.17172 0.141395C5.07746 0.0471435 4.963 0 4.82835 0C4.6936 0 4.57918 0.0471435 4.48486 0.141395L3.00003 1.62625L1.51516 0.141395C1.42094 0.0471435 1.30647 0 1.17172 0C1.03709 0 0.922598 0.0471435 0.828293 0.141395L0.141413 0.828311C0.0471789 0.922527 0 1.03705 0 1.17174C0 1.30647 0.0471258 1.42089 0.141413 1.51517L1.62625 3.00003L0.141413 4.48488C0.0471789 4.57918 0 4.6936 0 4.82836C0 4.96298 0.0471258 5.07747 0.141413 5.17172L0.828311 5.85859C0.922598 5.95291 1.0371 6 1.17174 6C1.30647 6 1.42089 5.95279 1.51517 5.85859L3.00004 4.37373L4.485 5.85859C4.57926 5.95291 4.69362 6 4.82849 6C4.96313 6 5.0776 5.95279 5.17187 5.85859L5.85859 5.17172C5.95291 5.07754 6 4.96298 6 4.82836C6 4.6936 5.95291 4.57918 5.85859 4.48488L4.37372 3.00003Z" fill="#CFCFCF"/>
</svg>
