<svg width="130" height="130" viewBox="0 0 130 130" fill="none" xmlns="http://www.w3.org/2000/svg">
<rect x="0.5" y="0.5" width="129" height="129" rx="3.5" fill="#C4C4C4"/>
<rect x="0.5" y="0.5" width="129" height="129" rx="3.5" fill="url(#paint0_linear)"/>
<rect x="0.5" y="0.5" width="129" height="129" rx="3.5" stroke="#BCBCBC" stroke-dasharray="2 2"/>
<path d="M21.498 87.6719V86.3359C22.1582 86.8047 22.9082 87.0391 23.748 87.0391C24.2988 87.0391 24.7363 86.9121 25.0605 86.6582C25.3887 86.4004 25.5527 86.0566 25.5527 85.627C25.5527 84.6895 24.8906 84.2207 23.5664 84.2207H22.5996V83.1309H23.5078C24.0703 83.1309 24.5059 83.0137 24.8145 82.7793C25.123 82.5449 25.2773 82.2148 25.2773 81.7891C25.2773 81.4219 25.1465 81.1289 24.8848 80.9102C24.623 80.6875 24.2637 80.5762 23.8066 80.5762C23.1113 80.5762 22.4336 80.7871 21.7734 81.209V79.9668C22.4219 79.627 23.1699 79.457 24.0176 79.457C24.8613 79.457 25.5254 79.6504 26.0098 80.0371C26.4941 80.4199 26.7363 80.9238 26.7363 81.5488C26.7363 82.6309 26.1953 83.3145 25.1133 83.5996V83.623C25.6914 83.6895 26.1504 83.9043 26.4902 84.2676C26.834 84.6309 27.0059 85.0801 27.0059 85.6152C27.0059 86.3848 26.7188 86.998 26.1445 87.4551C25.5703 87.9121 24.7852 88.1406 23.7891 88.1406C22.8008 88.1406 22.0371 87.9844 21.498 87.6719ZM33.0942 88H31.7758V87.0625H31.7524C31.3383 87.7812 30.7309 88.1406 29.9301 88.1406C29.3403 88.1406 28.8774 87.9805 28.5414 87.6602C28.2094 87.3398 28.0434 86.916 28.0434 86.3887C28.0434 85.2559 28.6957 84.5957 30.0004 84.4082L31.7817 84.1562C31.7817 83.3008 31.3754 82.873 30.5629 82.873C29.8481 82.873 29.2035 83.1191 28.6293 83.6113V82.4219C29.2621 82.0469 29.9926 81.8594 30.8207 81.8594C32.3364 81.8594 33.0942 82.6055 33.0942 84.0977V88ZM31.7817 85.0527L30.5219 85.2285C30.1313 85.2793 29.8364 85.375 29.6371 85.5156C29.4418 85.6523 29.3442 85.8945 29.3442 86.2422C29.3442 86.4961 29.434 86.7051 29.6137 86.8691C29.7973 87.0293 30.0414 87.1094 30.3461 87.1094C30.7602 87.1094 31.102 86.9648 31.3715 86.6758C31.645 86.3828 31.7817 86.0156 31.7817 85.5742V85.0527ZM38.3739 83.084H36.1415V88H34.7762V82H38.3739V83.084ZM40.9231 87.1152H40.8997V90.7598H39.5403V82H40.8997V83.0547H40.9231C41.388 82.2578 42.0677 81.8594 42.9622 81.8594C43.7239 81.8594 44.3177 82.127 44.7435 82.6621C45.1692 83.1973 45.3821 83.916 45.3821 84.8184C45.3821 85.8184 45.1419 86.6191 44.6614 87.2207C44.181 87.8223 43.5247 88.123 42.6927 88.123C41.927 88.123 41.3372 87.7871 40.9231 87.1152ZM40.888 84.748V85.4922C40.888 85.9297 41.0267 86.3008 41.304 86.6055C41.5853 86.9102 41.9407 87.0625 42.3704 87.0625C42.8743 87.0625 43.2688 86.8672 43.554 86.4766C43.8431 86.082 43.9876 85.5332 43.9876 84.8301C43.9876 84.2402 43.8528 83.7793 43.5833 83.4473C43.3177 83.1113 42.9563 82.9434 42.4993 82.9434C42.0149 82.9434 41.6243 83.1152 41.3274 83.459C41.0345 83.8027 40.888 84.2324 40.888 84.748ZM51.9861 82L49.279 88.9609C48.7165 90.2031 47.9275 90.8242 46.9118 90.8242C46.6267 90.8242 46.3884 90.7988 46.197 90.748V89.6172C46.4118 89.6875 46.6072 89.7227 46.7829 89.7227C47.2908 89.7227 47.6697 89.4727 47.9197 88.9727L48.324 87.9883L45.9392 82H47.445L48.8747 86.3594C48.8904 86.4141 48.9255 86.5586 48.9802 86.793H49.0095C49.029 86.7031 49.0642 86.5625 49.115 86.3711L50.615 82H51.9861ZM52.4963 87.8359V86.7168C53.0041 86.998 53.5978 87.1387 54.2775 87.1387C55.2345 87.1387 55.713 86.8496 55.713 86.2715C55.713 85.6934 55.1486 85.4043 54.0197 85.4043H53.4455V84.4434H53.9963C55.0002 84.4434 55.5021 84.168 55.5021 83.6172C55.5021 83.3867 55.3947 83.2031 55.1798 83.0664C54.9689 82.9297 54.6798 82.8613 54.3127 82.8613C53.7541 82.8613 53.1955 82.9941 52.6369 83.2598V82.1934C53.3127 81.9668 53.9338 81.8535 54.5002 81.8535C56.09 81.8535 56.8849 82.3926 56.8849 83.4707C56.8849 83.8184 56.7697 84.1172 56.5392 84.3672C56.3127 84.6172 55.9923 84.7832 55.5783 84.8652V84.8945C56.0353 84.9297 56.4025 85.0781 56.6798 85.3398C56.9572 85.6016 57.0959 85.9336 57.0959 86.3359C57.0959 86.8828 56.8576 87.3184 56.381 87.6426C55.9045 87.9668 55.2482 88.1289 54.4123 88.1289C53.5763 88.1289 52.9377 88.0312 52.4963 87.8359ZM63.9225 88H62.692V83.5996C62.6139 83.7559 62.4947 83.9727 62.3346 84.25L59.8092 88H58.4732V82H59.7213V86.3125C59.7643 86.2109 59.856 86.0352 59.9967 85.7852L62.5572 82H63.9225V88ZM69.8115 83.084H68.1006V88H66.7354V83.084H65.0127V82H69.8115V83.084ZM70.9077 88V82H72.267V84.2148H73.8667C74.5034 84.2148 75.0073 84.3789 75.3784 84.707C75.7534 85.0312 75.9409 85.4844 75.9409 86.0664C75.9409 86.6641 75.7534 87.1367 75.3784 87.4844C75.0073 87.8281 74.5366 88 73.9663 88H70.9077ZM72.267 85.1934V87.0215H73.5092C74.1967 87.0215 74.5405 86.707 74.5405 86.0781C74.5405 85.4883 74.1928 85.1934 73.4975 85.1934H72.267ZM84.7191 88.1055V90.8008H83.4652V88.1055H83.2659C82.3519 88.1055 81.6116 87.8242 81.0452 87.2617C80.4827 86.6992 80.2015 85.9629 80.2015 85.0527C80.2015 84.0957 80.4866 83.3301 81.057 82.7559C81.6273 82.1816 82.3812 81.8945 83.3187 81.8945H83.4652V79.4395H84.7191V81.8945H84.8538C85.7991 81.8945 86.557 82.1797 87.1273 82.75C87.6976 83.3203 87.9827 84.0879 87.9827 85.0527C87.9827 85.9629 87.7015 86.6992 87.139 87.2617C86.5804 87.8242 85.846 88.1055 84.9359 88.1055H84.7191ZM84.7191 82.9258V87.0801H84.8304C85.3655 87.0801 85.7933 86.8965 86.1136 86.5293C86.4339 86.1621 86.5941 85.6641 86.5941 85.0352C86.5941 84.375 86.4359 83.8594 86.1195 83.4883C85.807 83.1133 85.387 82.9258 84.8597 82.9258H84.7191ZM83.4652 87.0801V82.9258H83.3421C82.8148 82.9258 82.3909 83.1133 82.0706 83.4883C81.7503 83.8633 81.5902 84.3789 81.5902 85.0352C81.5902 85.6562 81.7503 86.1523 82.0706 86.5234C82.3909 86.8945 82.8206 87.0801 83.3597 87.0801H83.4652ZM92.0437 88.1406C91.1179 88.1406 90.3777 87.8613 89.823 87.3027C89.2722 86.7402 88.9968 85.9961 88.9968 85.0703C88.9968 84.0625 89.2839 83.2754 89.8582 82.709C90.4363 82.1426 91.2136 81.8594 92.1902 81.8594C93.1277 81.8594 93.8582 82.1348 94.3816 82.6855C94.905 83.2363 95.1667 84 95.1667 84.9766C95.1667 85.9336 94.8835 86.7012 94.3171 87.2793C93.7546 87.8535 92.9968 88.1406 92.0437 88.1406ZM92.1082 82.9434C91.5769 82.9434 91.157 83.1289 90.8484 83.5C90.5398 83.8711 90.3855 84.3828 90.3855 85.0352C90.3855 85.6641 90.5417 86.1602 90.8542 86.5234C91.1667 86.8828 91.5847 87.0625 92.1082 87.0625C92.6433 87.0625 93.0535 86.8848 93.3386 86.5293C93.6277 86.1738 93.7722 85.668 93.7722 85.0117C93.7722 84.3516 93.6277 83.8418 93.3386 83.4824C93.0535 83.123 92.6433 82.9434 92.1082 82.9434ZM100.464 83.084H98.7531V88H97.3879V83.084H95.6652V82H100.464V83.084ZM104.021 88.1406C103.095 88.1406 102.355 87.8613 101.8 87.3027C101.25 86.7402 100.974 85.9961 100.974 85.0703C100.974 84.0625 101.261 83.2754 101.836 82.709C102.414 82.1426 103.191 81.8594 104.168 81.8594C105.105 81.8594 105.836 82.1348 106.359 82.6855C106.882 83.2363 107.144 84 107.144 84.9766C107.144 85.9336 106.861 86.7012 106.295 87.2793C105.732 87.8535 104.974 88.1406 104.021 88.1406ZM104.086 82.9434C103.554 82.9434 103.134 83.1289 102.826 83.5C102.517 83.8711 102.363 84.3828 102.363 85.0352C102.363 85.6641 102.519 86.1602 102.832 86.5234C103.144 86.8828 103.562 87.0625 104.086 87.0625C104.621 87.0625 105.031 86.8848 105.316 86.5293C105.605 86.1738 105.75 85.668 105.75 85.0117C105.75 84.3516 105.605 83.8418 105.316 83.4824C105.031 83.123 104.621 82.9434 104.086 82.9434Z" fill="#CCCCCC"/>
<path d="M65.4974 49.5026V39H62.5026V49.5026H52V52.4974H62.5026V63H65.4974V52.4974H76V49.5026H65.4974Z" fill="#DCDCDC"/>
<defs>
<linearGradient id="paint0_linear" x1="65" y1="0" x2="65" y2="130" gradientUnits="userSpaceOnUse">
<stop stop-color="white"/>
<stop offset="1" stop-color="#F7F7F7"/>
</linearGradient>
</defs>
</svg>
