<svg width="150" height="150" viewBox="0 0 150 150" fill="none" xmlns="http://www.w3.org/2000/svg">
<g filter="url(#filter0_d)">
<rect x="10" y="6" width="130" height="130" rx="4" fill="#C4C4C4"/>
<rect x="10" y="6" width="130" height="130" rx="4" fill="url(#paint0_linear)"/>
<rect x="10.5" y="6.5" width="129" height="129" rx="3.5" stroke="#BCBCBC" stroke-dasharray="2 2"/>
</g>
<path d="M31.498 93.6719V92.3359C32.1582 92.8047 32.9082 93.0391 33.748 93.0391C34.2988 93.0391 34.7363 92.9121 35.0605 92.6582C35.3887 92.4004 35.5527 92.0566 35.5527 91.627C35.5527 90.6895 34.8906 90.2207 33.5664 90.2207H32.5996V89.1309H33.5078C34.0703 89.1309 34.5059 89.0137 34.8145 88.7793C35.123 88.5449 35.2773 88.2148 35.2773 87.7891C35.2773 87.4219 35.1465 87.1289 34.8848 86.9102C34.623 86.6875 34.2637 86.5762 33.8066 86.5762C33.1113 86.5762 32.4336 86.7871 31.7734 87.209V85.9668C32.4219 85.627 33.1699 85.457 34.0176 85.457C34.8613 85.457 35.5254 85.6504 36.0098 86.0371C36.4941 86.4199 36.7363 86.9238 36.7363 87.5488C36.7363 88.6309 36.1953 89.3145 35.1133 89.5996V89.623C35.6914 89.6895 36.1504 89.9043 36.4902 90.2676C36.834 90.6309 37.0059 91.0801 37.0059 91.6152C37.0059 92.3848 36.7188 92.998 36.1445 93.4551C35.5703 93.9121 34.7852 94.1406 33.7891 94.1406C32.8008 94.1406 32.0371 93.9844 31.498 93.6719ZM43.0942 94H41.7758V93.0625H41.7524C41.3383 93.7812 40.7309 94.1406 39.9301 94.1406C39.3403 94.1406 38.8774 93.9805 38.5414 93.6602C38.2094 93.3398 38.0434 92.916 38.0434 92.3887C38.0434 91.2559 38.6957 90.5957 40.0004 90.4082L41.7817 90.1562C41.7817 89.3008 41.3754 88.873 40.5629 88.873C39.8481 88.873 39.2035 89.1191 38.6293 89.6113V88.4219C39.2621 88.0469 39.9926 87.8594 40.8207 87.8594C42.3364 87.8594 43.0942 88.6055 43.0942 90.0977V94ZM41.7817 91.0527L40.5219 91.2285C40.1313 91.2793 39.8364 91.375 39.6371 91.5156C39.4418 91.6523 39.3442 91.8945 39.3442 92.2422C39.3442 92.4961 39.434 92.7051 39.6137 92.8691C39.7973 93.0293 40.0414 93.1094 40.3461 93.1094C40.7602 93.1094 41.102 92.9648 41.3715 92.6758C41.645 92.3828 41.7817 92.0156 41.7817 91.5742V91.0527ZM48.3739 89.084H46.1415V94H44.7762V88H48.3739V89.084ZM50.9231 93.1152H50.8997V96.7598H49.5403V88H50.8997V89.0547H50.9231C51.388 88.2578 52.0677 87.8594 52.9622 87.8594C53.7239 87.8594 54.3177 88.127 54.7435 88.6621C55.1692 89.1973 55.3821 89.916 55.3821 90.8184C55.3821 91.8184 55.1419 92.6191 54.6614 93.2207C54.181 93.8223 53.5247 94.123 52.6927 94.123C51.927 94.123 51.3372 93.7871 50.9231 93.1152ZM50.888 90.748V91.4922C50.888 91.9297 51.0267 92.3008 51.304 92.6055C51.5853 92.9102 51.9407 93.0625 52.3704 93.0625C52.8743 93.0625 53.2688 92.8672 53.554 92.4766C53.8431 92.082 53.9876 91.5332 53.9876 90.8301C53.9876 90.2402 53.8528 89.7793 53.5833 89.4473C53.3177 89.1113 52.9563 88.9434 52.4993 88.9434C52.0149 88.9434 51.6243 89.1152 51.3274 89.459C51.0345 89.8027 50.888 90.2324 50.888 90.748ZM61.9861 88L59.279 94.9609C58.7165 96.2031 57.9275 96.8242 56.9118 96.8242C56.6267 96.8242 56.3884 96.7988 56.197 96.748V95.6172C56.4118 95.6875 56.6072 95.7227 56.7829 95.7227C57.2908 95.7227 57.6697 95.4727 57.9197 94.9727L58.324 93.9883L55.9392 88H57.445L58.8747 92.3594C58.8904 92.4141 58.9255 92.5586 58.9802 92.793H59.0095C59.029 92.7031 59.0642 92.5625 59.115 92.3711L60.615 88H61.9861ZM62.4963 93.8359V92.7168C63.0041 92.998 63.5978 93.1387 64.2775 93.1387C65.2345 93.1387 65.713 92.8496 65.713 92.2715C65.713 91.6934 65.1486 91.4043 64.0197 91.4043H63.4455V90.4434H63.9963C65.0002 90.4434 65.5021 90.168 65.5021 89.6172C65.5021 89.3867 65.3947 89.2031 65.1798 89.0664C64.9689 88.9297 64.6798 88.8613 64.3127 88.8613C63.7541 88.8613 63.1955 88.9941 62.6369 89.2598V88.1934C63.3127 87.9668 63.9338 87.8535 64.5002 87.8535C66.09 87.8535 66.8849 88.3926 66.8849 89.4707C66.8849 89.8184 66.7697 90.1172 66.5392 90.3672C66.3127 90.6172 65.9923 90.7832 65.5783 90.8652V90.8945C66.0353 90.9297 66.4025 91.0781 66.6798 91.3398C66.9572 91.6016 67.0959 91.9336 67.0959 92.3359C67.0959 92.8828 66.8576 93.3184 66.381 93.6426C65.9045 93.9668 65.2482 94.1289 64.4123 94.1289C63.5763 94.1289 62.9377 94.0312 62.4963 93.8359ZM73.9225 94H72.692V89.5996C72.6139 89.7559 72.4947 89.9727 72.3346 90.25L69.8092 94H68.4732V88H69.7213V92.3125C69.7643 92.2109 69.856 92.0352 69.9967 91.7852L72.5572 88H73.9225V94ZM79.8115 89.084H78.1006V94H76.7354V89.084H75.0127V88H79.8115V89.084ZM80.9077 94V88H82.267V90.2148H83.8667C84.5034 90.2148 85.0073 90.3789 85.3784 90.707C85.7534 91.0312 85.9409 91.4844 85.9409 92.0664C85.9409 92.6641 85.7534 93.1367 85.3784 93.4844C85.0073 93.8281 84.5366 94 83.9663 94H80.9077ZM82.267 91.1934V93.0215H83.5092C84.1967 93.0215 84.5405 92.707 84.5405 92.0781C84.5405 91.4883 84.1928 91.1934 83.4975 91.1934H82.267ZM94.7191 94.1055V96.8008H93.4652V94.1055H93.2659C92.3519 94.1055 91.6116 93.8242 91.0452 93.2617C90.4827 92.6992 90.2015 91.9629 90.2015 91.0527C90.2015 90.0957 90.4866 89.3301 91.057 88.7559C91.6273 88.1816 92.3812 87.8945 93.3187 87.8945H93.4652V85.4395H94.7191V87.8945H94.8538C95.7991 87.8945 96.557 88.1797 97.1273 88.75C97.6976 89.3203 97.9827 90.0879 97.9827 91.0527C97.9827 91.9629 97.7015 92.6992 97.139 93.2617C96.5804 93.8242 95.846 94.1055 94.9359 94.1055H94.7191ZM94.7191 88.9258V93.0801H94.8304C95.3655 93.0801 95.7933 92.8965 96.1136 92.5293C96.4339 92.1621 96.5941 91.6641 96.5941 91.0352C96.5941 90.375 96.4359 89.8594 96.1195 89.4883C95.807 89.1133 95.387 88.9258 94.8597 88.9258H94.7191ZM93.4652 93.0801V88.9258H93.3421C92.8148 88.9258 92.3909 89.1133 92.0706 89.4883C91.7503 89.8633 91.5902 90.3789 91.5902 91.0352C91.5902 91.6562 91.7503 92.1523 92.0706 92.5234C92.3909 92.8945 92.8206 93.0801 93.3597 93.0801H93.4652ZM102.044 94.1406C101.118 94.1406 100.378 93.8613 99.823 93.3027C99.2722 92.7402 98.9968 91.9961 98.9968 91.0703C98.9968 90.0625 99.2839 89.2754 99.8582 88.709C100.436 88.1426 101.214 87.8594 102.19 87.8594C103.128 87.8594 103.858 88.1348 104.382 88.6855C104.905 89.2363 105.167 90 105.167 90.9766C105.167 91.9336 104.884 92.7012 104.317 93.2793C103.755 93.8535 102.997 94.1406 102.044 94.1406ZM102.108 88.9434C101.577 88.9434 101.157 89.1289 100.848 89.5C100.54 89.8711 100.385 90.3828 100.385 91.0352C100.385 91.6641 100.542 92.1602 100.854 92.5234C101.167 92.8828 101.585 93.0625 102.108 93.0625C102.643 93.0625 103.053 92.8848 103.339 92.5293C103.628 92.1738 103.772 91.668 103.772 91.0117C103.772 90.3516 103.628 89.8418 103.339 89.4824C103.053 89.123 102.643 88.9434 102.108 88.9434ZM110.464 89.084H108.753V94H107.388V89.084H105.665V88H110.464V89.084ZM114.021 94.1406C113.095 94.1406 112.355 93.8613 111.8 93.3027C111.25 92.7402 110.974 91.9961 110.974 91.0703C110.974 90.0625 111.261 89.2754 111.836 88.709C112.414 88.1426 113.191 87.8594 114.168 87.8594C115.105 87.8594 115.836 88.1348 116.359 88.6855C116.882 89.2363 117.144 90 117.144 90.9766C117.144 91.9336 116.861 92.7012 116.295 93.2793C115.732 93.8535 114.974 94.1406 114.021 94.1406ZM114.086 88.9434C113.554 88.9434 113.134 89.1289 112.826 89.5C112.517 89.8711 112.363 90.3828 112.363 91.0352C112.363 91.6641 112.519 92.1602 112.832 92.5234C113.144 92.8828 113.562 93.0625 114.086 93.0625C114.621 93.0625 115.031 92.8848 115.316 92.5293C115.605 92.1738 115.75 91.668 115.75 91.0117C115.75 90.3516 115.605 89.8418 115.316 89.4824C115.031 89.123 114.621 88.9434 114.086 88.9434Z" fill="#CCCCCC"/>
<path d="M75.4974 55.5026V45H72.5026V55.5026H62V58.4974H72.5026V69H75.4974V58.4974H86V55.5026H75.4974Z" fill="#DCDCDC"/>
<defs>
<filter id="filter0_d" x="0" y="0" width="150" height="150" filterUnits="userSpaceOnUse" color-interpolation-filters="sRGB">
<feFlood flood-opacity="0" result="BackgroundImageFix"/>
<feColorMatrix in="SourceAlpha" type="matrix" values="0 0 0 0 0 0 0 0 0 0 0 0 0 0 0 0 0 0 127 0"/>
<feOffset dy="4"/>
<feGaussianBlur stdDeviation="5"/>
<feColorMatrix type="matrix" values="0 0 0 0 0 0 0 0 0 0 0 0 0 0 0 0 0 0 0.1 0"/>
<feBlend mode="normal" in2="BackgroundImageFix" result="effect1_dropShadow"/>
<feBlend mode="normal" in="SourceGraphic" in2="effect1_dropShadow" result="shape"/>
</filter>
<linearGradient id="paint0_linear" x1="75" y1="6" x2="75" y2="136" gradientUnits="userSpaceOnUse">
<stop stop-color="white"/>
<stop offset="1" stop-color="#F7F7F7"/>
</linearGradient>
</defs>
</svg>
