<svg width="30" height="30" viewBox="0 0 30 30" fill="none" xmlns="http://www.w3.org/2000/svg">
<circle cx="15" cy="15" r="14.5" fill="#FAFAFA" stroke="#CECECE"/>
<g clip-path="url(#clip0)">
<path d="M19.5595 8.12024C19.3992 7.95992 19.1397 7.95992 18.9794 8.12024L17.5293 9.57036L20.4296 12.4706L21.8797 11.0205C22.04 10.8602 22.04 10.6008 21.8797 10.4404L19.5595 8.12024Z" fill="#CECECE"/>
<path d="M9.57031 17.5295L12.4706 20.4297L19.8497 13.0507L16.9494 10.1504L9.57031 17.5295ZM17.8195 12.1806C17.9798 12.3409 17.9798 12.6003 17.8195 12.7607L12.1805 18.3996C12.0202 18.5599 11.7608 18.5599 11.6005 18.3996C11.4402 18.2393 11.4402 17.9799 11.6005 17.8195L17.2395 12.1806C17.3998 12.0203 17.6592 12.0203 17.8195 12.1806Z" fill="#CECECE"/>
<path d="M9.10096 18.2197L8.02099 21.4596C7.97202 21.6071 8.01022 21.7694 8.12011 21.8793C8.23001 21.9892 8.39232 22.0274 8.53989 21.9784L11.7797 20.8985L9.10096 18.2197Z" fill="#CECECE"/>
</g>
<defs>
<clipPath id="clip0">
<rect width="14" height="14" fill="white" transform="translate(8 8)"/>
</clipPath>
</defs>
</svg>
