<svg width="12" height="12" viewBox="0 0 12 12" fill="none" xmlns="http://www.w3.org/2000/svg">
<g clip-path="url(#clip0)">
<path d="M5.53176 9.33407L0.191706 3.99391C0.068097 3.8704 -5.37624e-08 3.70553 -4.60778e-08 3.52972C-3.83932e-08 3.35392 0.068097 3.18904 0.191706 3.06553L0.584873 2.67227C0.841066 2.41637 1.25745 2.41637 1.51326 2.67227L5.99751 7.15652L10.4867 2.66729C10.6104 2.54378 10.7751 2.47559 10.9508 2.47559C11.1267 2.47559 11.2915 2.54378 11.4152 2.66729L11.8083 3.06056C11.9319 3.18417 12 3.34895 12 3.52475C12 3.70055 11.9319 3.86543 11.8083 3.98894L6.46336 9.33407C6.33936 9.45787 6.1738 9.52587 5.9978 9.52548C5.82112 9.52587 5.65566 9.45787 5.53176 9.33407Z" fill="#404040"/>
</g>
<defs>
<clipPath id="clip0">
<rect width="12" height="12" fill="white" transform="matrix(-4.37114e-08 1 1 4.37114e-08 0 0)"/>
</clipPath>
</defs>
</svg>
