<svg width="30" height="30" viewBox="0 0 30 30" fill="none" xmlns="http://www.w3.org/2000/svg">
<circle cx="15" cy="15" r="14.5" fill="white" stroke="#BDBDBD"/>
<g clip-path="url(#clip0)">
<path d="M15.8208 15.0036L21.822 9.00242C22.0537 8.77872 22.0601 8.40963 21.8364 8.17801C21.6127 7.94639 21.2436 7.93996 21.012 8.16366C21.0071 8.16834 21.0023 8.17312 20.9976 8.17801L14.9964 14.1792L8.99513 8.17797C8.76351 7.95428 8.39442 7.9607 8.17072 8.19232C7.95249 8.41827 7.95249 8.77647 8.17072 9.00242L14.172 15.0036L8.17072 21.0049C7.94309 21.2325 7.94309 21.6016 8.17072 21.8293C8.39838 22.0569 8.76747 22.0569 8.99513 21.8293L14.9964 15.8281L20.9976 21.8293C21.2292 22.053 21.5983 22.0466 21.822 21.8149C22.0402 21.589 22.0402 21.2308 21.822 21.0049L15.8208 15.0036Z" fill="#BDBDBD"/>
</g>
<defs>
<clipPath id="clip0">
<rect width="14" height="14" fill="white" transform="translate(8 8)"/>
</clipPath>
</defs>
</svg>
