<svg width="46" height="44" viewBox="0 0 46 44" fill="none" xmlns="http://www.w3.org/2000/svg">
<path fill-rule="evenodd" clip-rule="evenodd" d="M12.5894 8.21875C14.7907 8.21875 16.8601 8.78673 18.6604 9.78487V21.045L18.6599 21.0456V20.5237H18.6411C18.4599 17.3218 15.8198 14.7814 12.5894 14.7814C9.24172 14.7814 6.52786 17.5098 6.52786 20.8753C6.52786 20.9802 6.5305 21.0843 6.5357 21.1879H0.0037661C0.00126169 21.084 0 20.9798 0 20.8753C0 13.8853 5.63649 8.21875 12.5894 8.21875ZM15.8203 25.5977C14.9471 26.3928 13.9185 27.2135 12.8027 28.1039C8.54548 31.5008 3.01758 35.9116 0 43.7816H22.9677C20.6305 42.1858 18.7283 39.9999 17.4756 37.4383H13.184C13.9437 36.4983 15.0762 35.4945 16.3468 34.3911C16.0035 33.0714 15.8207 31.6868 15.8207 30.2596C15.8207 30.2596 15.8207 30.2596 15.8207 30.2596H15.8203V25.5977Z" fill="#00C2FF"/>
<path fill-rule="evenodd" clip-rule="evenodd" d="M18.6585 9.78516C21.9596 11.6156 24.3559 14.8925 25.0023 18.7659H25.0132V14.6212C25.0136 14.6505 25.0138 14.6798 25.0138 14.7091L25.0135 14.7665V18.7907C27.0913 17.4896 29.5479 16.7375 32.1802 16.7375C39.6482 16.7375 45.7022 22.7915 45.7022 30.2595C45.7022 37.7275 39.6482 43.7815 32.1802 43.7815C24.7122 43.7815 18.6582 37.7275 18.6582 30.2595V30.2595V14.7092H18.6585V9.78516ZM39.3476 30.2595C39.3476 34.2175 36.1389 37.4261 32.1809 37.4261C28.2229 37.4261 25.0142 34.2175 25.0142 30.2595C25.0142 26.3014 28.2229 23.0928 32.1809 23.0928C36.1389 23.0928 39.3476 26.3014 39.3476 30.2595Z" fill="#00EBFF"/>
<path fill-rule="evenodd" clip-rule="evenodd" d="M18.6592 6.32708C21.1817 7.38522 23.3681 9.08134 25.0145 11.2125L25.0145 0.78125H18.6592V6.32708Z" fill="#00EBFF"/>
</svg>
