<svg width="137" height="35" viewBox="0 0 137 35" fill="none" xmlns="http://www.w3.org/2000/svg">
<path d="M4.4732 13.3018C6.57568 11.5449 9.24159 10.607 11.9802 10.6607C13.5569 10.6408 15.1211 10.9416 16.5781 11.5447C18.0351 12.1479 19.3545 13.0409 20.4563 14.1695C21.5872 15.2678 22.4849 16.5831 23.0957 18.0367C23.6877 19.5035 23.9837 21.073 23.9666 22.6548C23.9973 24.2339 23.7016 25.8023 23.0982 27.2618C22.4948 28.7212 21.5967 30.0403 20.4601 31.1362C18.2113 33.3828 15.1636 34.6446 11.9859 34.6446C8.80825 34.6446 5.76046 33.3828 3.51172 31.1362C2.37898 30.0372 1.48315 28.7177 0.879435 27.259C0.275717 25.8003 -0.023101 24.2334 0.00139272 22.6548V2.59808C-0.00748361 2.30335 0.0439871 2.00992 0.152642 1.73583C0.261296 1.46174 0.424836 1.21279 0.633204 1.00429C0.841573 0.795789 1.09036 0.632145 1.36428 0.523421C1.63819 0.414698 1.93144 0.363193 2.22598 0.372075C2.52064 0.365948 2.81354 0.41887 3.08745 0.527726C3.36136 0.636581 3.61074 0.79917 3.8209 1.00592C4.0348 1.21095 4.20336 1.45857 4.31571 1.73281C4.42806 2.00705 4.48172 2.30181 4.4732 2.59808V13.3018ZM11.9802 30.1515C12.9905 30.1592 13.9911 29.9549 14.9175 29.5516C15.8072 29.1698 16.6159 28.6218 17.3004 27.9368C17.9788 27.2478 18.5224 26.4377 18.9029 25.5486C19.291 24.6313 19.491 23.6453 19.491 22.6491C19.491 21.653 19.291 20.667 18.9029 19.7496C18.5233 18.86 17.9797 18.0498 17.3004 17.3614C16.6179 16.6683 15.809 16.1125 14.9175 15.724C13.9865 15.3291 12.9857 15.1257 11.9746 15.1257C10.9635 15.1257 9.96267 15.3291 9.03172 15.724C8.14484 16.1048 7.33961 16.653 6.66008 17.3388C5.98275 18.0271 5.44161 18.8374 5.06516 19.727C4.67702 20.6483 4.47705 21.638 4.47705 22.6378C4.47705 23.6376 4.67702 24.6273 5.06516 25.5486C5.44048 26.4378 5.98033 27.2481 6.65631 27.9368C7.33584 28.6225 8.14107 29.1708 9.02795 29.5516C9.95946 29.9554 10.9651 30.1598 11.9802 30.1515V30.1515Z" fill="#00C1FE"/>
<path d="M32.7344 13.3018C34.8385 11.5452 37.5055 10.6075 40.2452 10.6607C42.613 10.6736 44.9255 11.3786 46.8983 12.689C48.8711 13.9994 50.4182 15.8582 51.3493 18.0367C51.9502 19.5017 52.2552 21.0712 52.2466 22.6548C52.2774 24.2342 51.9815 25.8031 51.3774 27.2626C50.7733 28.7222 49.8741 30.041 48.7363 31.1362C47.0613 32.8195 44.9243 33.967 42.5966 34.4332C40.2688 34.8993 37.8551 34.6631 35.6617 33.7544C33.4683 32.8458 31.594 31.3057 30.2767 29.3295C28.9594 27.3534 28.2584 25.0302 28.2626 22.6548V2.59807C28.2542 2.30316 28.3062 2.00965 28.4153 1.73555C28.5244 1.46145 28.6882 1.21254 28.8969 1.0041C29.1056 0.795656 29.3546 0.632074 29.6287 0.523391C29.9028 0.414707 30.1962 0.363213 30.4909 0.37207C30.7851 0.365595 31.0775 0.418371 31.3509 0.52726C31.6242 0.636149 31.8729 0.798927 32.0821 1.00592C32.2966 1.21051 32.4655 1.45806 32.5779 1.7324C32.6903 2.00674 32.7436 2.30172 32.7344 2.59807V13.3018ZM40.2452 30.1515C41.2604 30.1606 42.2662 29.9562 43.1975 29.5516C44.0813 29.1693 44.8838 28.6212 45.5616 27.9368C46.2424 27.2489 46.7873 26.4387 47.1678 25.5486C47.5559 24.6312 47.756 23.6452 47.756 22.6491C47.756 21.6529 47.5559 20.6669 47.1678 19.7496C46.7882 18.859 46.2432 18.0486 45.5616 17.3614C44.8858 16.6689 44.0832 16.113 43.1975 15.724C42.2665 15.3291 41.2657 15.1256 40.2546 15.1256C39.2435 15.1256 38.2427 15.3291 37.3117 15.724C36.4242 16.1057 35.6179 16.6538 34.9363 17.3388C34.259 18.0271 33.7179 18.8374 33.3414 19.727C32.9533 20.6483 32.7533 21.638 32.7533 22.6378C32.7533 23.6376 32.9533 24.6273 33.3414 25.5486C33.7077 26.4354 34.2372 27.2455 34.9024 27.9368C35.584 28.6218 36.3903 29.1699 37.2778 29.5516C38.214 29.9575 39.225 30.1619 40.2452 30.1515V30.1515Z" fill="#00C1FE"/>
<path d="M74.7573 27.8394C75.052 27.8311 75.3454 27.8831 75.6193 27.9922C75.8932 28.1014 76.1419 28.2654 76.3503 28.4742C76.5586 28.683 76.722 28.9321 76.8307 29.2064C76.9393 29.4807 76.9907 29.7743 76.9819 30.0692C76.9818 30.3763 76.9192 30.6802 76.798 30.9624C76.6768 31.2445 76.4994 31.499 76.2768 31.7104C73.9894 33.6882 71.0384 34.7262 68.0173 34.6156C64.9962 34.505 62.129 33.2541 59.9921 31.1143C58.8628 30.0175 57.9693 28.7016 57.3663 27.247C56.7633 25.7925 56.4636 24.23 56.4855 22.6555C56.482 21.0798 56.7892 19.519 57.3895 18.0624C57.9898 16.6057 58.8714 15.2819 59.9838 14.1667C61.0962 13.0515 62.4175 12.1668 63.8721 11.5634C65.3267 10.96 66.8859 10.6496 68.4606 10.6501C71.3375 10.6003 74.1269 11.6408 76.2693 13.5628C76.5116 13.7716 76.7048 14.0314 76.8352 14.3236C76.9655 14.6158 77.0298 14.9332 77.0234 15.2531C77.0316 15.549 76.9801 15.8435 76.8719 16.1191C76.7637 16.3946 76.6011 16.6454 76.3937 16.8566C76.1869 17.0686 75.9383 17.2354 75.6638 17.3464C75.3893 17.4575 75.0947 17.5103 74.7988 17.5017C74.2759 17.5044 73.7683 17.3257 73.3622 16.9961C72.6801 16.4115 71.907 15.9425 71.0735 15.6077C70.2422 15.2767 69.3553 15.1077 68.4606 15.1097C67.4528 15.1024 66.4542 15.3028 65.5271 15.6983C64.6352 16.0771 63.8229 16.6211 63.1329 17.3018C62.4437 17.9851 61.8943 18.7963 61.5153 19.69C61.1272 20.6192 60.9273 21.6163 60.9273 22.6234C60.9273 23.6305 61.1272 24.6276 61.5153 25.5568C61.8943 26.4505 62.4437 27.2617 63.1329 27.9451C63.8229 28.6257 64.6352 29.1697 65.5271 29.5485C66.4531 29.9492 67.4517 30.1547 68.4606 30.1522C69.3513 30.1624 70.2362 30.0063 71.0698 29.6919C71.9088 29.3712 72.6849 28.9051 73.3622 28.3148C73.7666 28.0151 74.2542 27.8489 74.7573 27.8394V27.8394Z" fill="#00EBFF"/>
<path d="M85.7494 12.8751V13.3014C86.7965 12.4595 87.9747 11.7954 89.2371 11.3357C90.5277 10.8738 91.8895 10.6427 93.2602 10.6529C93.9358 10.6553 94.6107 10.6981 95.2812 10.7811C95.9603 10.8571 96.6284 11.0116 97.272 11.2414C97.8327 11.4356 98.3465 11.7454 98.7802 12.1507C98.9806 12.3459 99.1376 12.5812 99.2409 12.8412C99.3442 13.1013 99.3915 13.3802 99.3797 13.6598C99.3824 13.9624 99.3207 14.2621 99.1987 14.5389C99.0798 14.8037 98.9166 15.0461 98.7161 15.2558C98.5153 15.4618 98.2756 15.626 98.011 15.7387C97.7324 15.8533 97.4337 15.911 97.1325 15.9085C96.8057 15.8946 96.4852 15.8151 96.1898 15.6746C95.2586 15.2998 94.264 15.1077 93.2602 15.1086C92.2513 15.106 91.2527 15.3115 90.3267 15.7123C88.5255 16.4694 87.0921 17.9023 86.3338 19.704C85.9377 20.6366 85.7387 21.6411 85.7494 22.6544V32.3998C85.7484 32.9899 85.5137 33.5555 85.0967 33.9727C84.6797 34.39 84.1145 34.6248 83.5248 34.6258C83.2286 34.631 82.9344 34.5758 82.6602 34.4636C82.386 34.3514 82.1376 34.1845 81.9299 33.9731C81.7196 33.7693 81.5533 33.5245 81.4411 33.2539C81.3289 32.9834 81.2733 32.6927 81.2776 32.3998V12.8751C81.2733 12.5822 81.3289 12.2915 81.4411 12.0209C81.5533 11.7504 81.7196 11.5056 81.9299 11.3018C82.1393 11.0885 82.3903 10.9206 82.6672 10.8083C82.9441 10.696 83.2412 10.6418 83.5399 10.6491C84.1296 10.6501 84.6948 10.8849 85.1118 11.3022C85.5288 11.7194 85.7635 12.285 85.7644 12.8751H85.7494Z" fill="#00EBFF"/>
<path d="M136.608 32.3787C136.613 32.6755 136.558 32.9702 136.445 33.2446C136.332 33.5191 136.164 33.7676 135.952 33.9746C135.533 34.3924 134.965 34.6269 134.374 34.6269C133.782 34.6269 133.215 34.3924 132.796 33.9746C132.587 33.7656 132.422 33.5165 132.312 33.2422C132.202 32.968 132.148 32.6742 132.155 32.3787V20.1998C132.157 19.5294 132.023 18.8655 131.759 18.2492C131.502 17.6426 131.134 17.0897 130.673 16.6193C130.211 16.1509 129.663 15.7767 129.059 15.5177C128.43 15.245 127.75 15.1063 127.065 15.1102C126.387 15.106 125.716 15.2448 125.096 15.5177C124.495 15.7825 123.948 16.156 123.483 16.6193C123.016 17.0783 122.645 17.6244 122.389 18.2266C122.129 18.8501 122.001 19.5206 122.012 20.196V32.3787C122.012 32.9721 121.777 33.5412 121.357 33.9607C120.938 34.3803 120.369 34.616 119.776 34.616C119.183 34.616 118.614 34.3803 118.195 33.9607C117.776 33.5412 117.54 32.9721 117.54 32.3787V20.1998C117.547 19.5222 117.409 18.8509 117.137 18.2304C116.613 17.0216 115.649 16.0573 114.441 15.5327C113.816 15.2521 113.139 15.108 112.454 15.1102C111.778 15.1049 111.107 15.2398 110.486 15.5063C109.266 16.0227 108.295 16.9944 107.779 18.2153C107.519 18.8388 107.39 19.5093 107.401 20.1847V32.3787C107.401 32.9721 107.166 33.5412 106.747 33.9607C106.327 34.3803 105.759 34.616 105.166 34.616C104.573 34.616 104.004 34.3803 103.585 33.9607C103.165 33.5412 102.93 32.9721 102.93 32.3787V12.8766C102.931 12.2866 103.165 11.7209 103.582 11.3037C103.999 10.8865 104.565 10.6516 105.154 10.6506C105.63 10.6438 106.095 10.7892 106.481 11.0656C106.86 11.3367 107.138 11.7254 107.273 12.1711C108.815 11.1563 110.627 10.6304 112.473 10.6619C113.859 10.6541 115.23 10.9423 116.496 11.5071C117.778 12.0909 118.905 12.967 119.788 14.0651C121.771 11.8014 124.203 10.6695 127.083 10.6695C128.353 10.662 129.61 10.919 130.775 11.4241C133.055 12.4037 134.872 14.2233 135.85 16.5062C136.355 17.6717 136.611 18.9296 136.604 20.1998L136.608 32.3787Z" fill="#00EBFF"/>
</svg>
