<svg width="19" height="27" viewBox="0 0 19 27" fill="none" xmlns="http://www.w3.org/2000/svg">
<path d="M15.7135 15.6474L1.68023 15.678C0.752265 15.68 0.00151198 16.4328 0.00337709 17.3594L0.0034984 17.4197C0.00536351 18.3463 0.759141 19.0958 1.68711 19.0938L15.7204 19.0632C16.6484 19.0612 17.3991 18.3084 17.3973 17.3818L17.3972 17.3215C17.3953 16.3949 16.6415 15.6454 15.7135 15.6474Z" fill="#00EBFF"/>
<path d="M16.9518 8.1644L2.91851 8.19375C1.99055 8.19569 1.23986 8.94844 1.2418 9.87506L1.24193 9.93532C1.24387 10.8619 1.99771 11.6115 2.92568 11.6096L16.959 11.5802C17.887 11.5783 18.6377 10.8256 18.6357 9.89895L18.6356 9.83868C18.6336 8.91206 17.8798 8.16246 16.9518 8.1644Z" fill="#00EBFF"/>
<path d="M8.56426 0.569808L8.50245 0.558925C7.57019 0.394782 6.6812 1.01636 6.51681 1.94726L2.49743 24.7092C2.33305 25.6401 2.95554 26.5278 3.88779 26.6919L3.9496 26.7028C4.88185 26.8669 5.77085 26.2454 5.93523 25.3145L9.95461 2.55255C10.119 1.62166 9.49651 0.733951 8.56426 0.569808Z" fill="#00C1FE"/>
<path d="M14.7518 0.569808L14.6899 0.558925C13.7577 0.394782 12.8687 1.01636 12.7043 1.94726L8.68493 24.7092C8.52055 25.6401 9.14304 26.5278 10.0753 26.6919L10.1371 26.7028C11.0694 26.8669 11.9584 26.2453 12.1227 25.3144L16.1421 2.55255C16.3065 1.62166 15.684 0.733951 14.7518 0.569808Z" fill="#00C1FE"/>
</svg>
