<svg width="139" height="32" viewBox="0 0 139 32" fill="none" xmlns="http://www.w3.org/2000/svg">
<g clip-path="url(#clip0)">
<path d="M19.0553 18.4683L2.03539 18.5036C0.909925 18.5059 -0.000502319 19.4254 0.00188967 20.5573L0.00204524 20.6309C0.00443722 21.7628 0.918743 22.6785 2.0442 22.6762L19.0642 22.6409C20.1896 22.6385 21.1 21.7191 21.0977 20.5871L21.0975 20.5135C21.0951 19.3816 20.1808 18.4659 19.0553 18.4683Z" fill="#00EBFF"/>
<path d="M20.5558 9.32118L3.53587 9.35704C2.41041 9.35941 1.49996 10.2789 1.50231 11.4108L1.50247 11.4844C1.50483 12.6164 2.4191 13.532 3.54456 13.5297L20.5645 13.4938C21.69 13.4914 22.6004 12.5719 22.5981 11.44L22.5979 11.3664C22.5956 10.2345 21.6813 9.31881 20.5558 9.32118Z" fill="#00EBFF"/>
<path d="M10.382 0.046757L10.307 0.0334621C9.17635 -0.167046 8.09815 0.592243 7.89878 1.72938L3.02398 29.5342C2.82461 30.6713 3.57957 31.7557 4.71023 31.9562L4.7852 31.9695C5.91586 32.17 6.99406 31.4107 7.19343 30.2736L12.0682 2.46878C12.2676 1.33164 11.5126 0.247265 10.382 0.046757Z" fill="#00C1FE"/>
<path d="M17.8864 0.0467571L17.8114 0.0334623C16.6807 -0.167046 15.6025 0.592243 15.4032 1.72938L10.5284 29.5342C10.329 30.6713 11.084 31.7557 12.2146 31.9562L12.2896 31.9695C13.4203 32.17 14.4985 31.4107 14.6978 30.2736L19.5726 2.46878C19.772 1.33164 19.017 0.247265 17.8864 0.0467571Z" fill="#00C1FE"/>
<path d="M36.3945 12.7241C38.0271 11.3528 40.0973 10.6208 42.224 10.6628C43.4483 10.6472 44.663 10.882 45.7944 11.3527C46.9258 11.8235 47.9504 12.5204 48.8059 13.4014C49.6841 14.2585 50.3812 15.2851 50.8555 16.4197C51.3152 17.5644 51.5451 18.7894 51.5318 20.024C51.5556 21.2565 51.326 22.4806 50.8575 23.6197C50.3889 24.7588 49.6915 25.7883 48.8089 26.6436C47.0626 28.3971 44.6959 29.3819 42.2284 29.3819C39.7608 29.3819 37.3941 28.3971 35.6479 26.6436C34.7683 25.7858 34.0726 24.756 33.6038 23.6175C33.135 22.479 32.903 21.2561 32.922 20.024V4.36997C32.9151 4.13994 32.9551 3.91092 33.0394 3.69699C33.1238 3.48307 33.2508 3.28877 33.4126 3.12604C33.5744 2.96331 33.7676 2.83558 33.9803 2.75073C34.193 2.66587 34.4207 2.62567 34.6495 2.6326C34.8783 2.62782 35.1057 2.66912 35.3184 2.75409C35.5311 2.83905 35.7248 2.96594 35.888 3.12731C36.0541 3.28733 36.185 3.4806 36.2722 3.69464C36.3594 3.90868 36.4011 4.13874 36.3945 4.36997V12.7241ZM42.224 25.8751C43.0085 25.8811 43.7855 25.7216 44.5048 25.4069C45.1957 25.1089 45.8238 24.6812 46.3553 24.1465C46.8821 23.6088 47.3042 22.9765 47.5996 22.2826C47.9011 21.5666 48.0564 20.797 48.0564 20.0196C48.0564 19.2421 47.9011 18.4725 47.5996 17.7566C47.3049 17.0622 46.8827 16.4298 46.3553 15.8926C45.8253 15.3516 45.1971 14.9178 44.5048 14.6146C43.7819 14.3064 43.0048 14.1476 42.2196 14.1476C41.4344 14.1476 40.6573 14.3064 39.9343 14.6146C39.2457 14.9118 38.6204 15.3397 38.0927 15.8749C37.5667 16.4122 37.1465 17.0446 36.8542 17.7389C36.5528 18.4579 36.3975 19.2304 36.3975 20.0107C36.3975 20.7911 36.5528 21.5635 36.8542 22.2826C37.1456 22.9766 37.5648 23.609 38.0898 24.1465C38.6174 24.6817 39.2427 25.1097 39.9314 25.4069C40.6548 25.7221 41.4357 25.8815 42.224 25.8751Z" fill="#00C1FE"/>
<path d="M58.3384 12.7241C59.9724 11.3531 62.0433 10.6212 64.1708 10.6628C66.0096 10.6728 67.8053 11.223 69.3372 12.2458C70.8692 13.2686 72.0705 14.7193 72.7936 16.4197C73.2602 17.563 73.4971 18.788 73.4904 20.024C73.5143 21.2567 73.2845 22.4812 72.8154 23.6204C72.3463 24.7595 71.6481 25.7888 70.7645 26.6436C69.4638 27.9574 67.8044 28.8531 65.9968 29.2169C64.1892 29.5807 62.3148 29.3963 60.6116 28.6871C58.9083 27.978 57.4529 26.7759 56.4299 25.2336C55.407 23.6912 54.8626 21.878 54.8659 20.024V4.36997C54.8594 4.13979 54.8998 3.91071 54.9845 3.69678C55.0692 3.48285 55.1965 3.28858 55.3585 3.12589C55.5205 2.9632 55.7139 2.83553 55.9268 2.7507C56.1396 2.66588 56.3675 2.62569 56.5963 2.6326C56.8247 2.62754 57.0518 2.66874 57.2641 2.75372C57.4763 2.83871 57.6694 2.96575 57.8319 3.12731C57.9984 3.28699 58.1296 3.4802 58.2169 3.69432C58.3042 3.90844 58.3456 4.13866 58.3384 4.36997V12.7241ZM64.1708 25.8751C64.9592 25.8822 65.7402 25.7226 66.4634 25.4069C67.1497 25.1085 67.7729 24.6807 68.2992 24.1465C68.8279 23.6097 69.2511 22.9773 69.5465 22.2825C69.8479 21.5666 70.0032 20.797 70.0032 20.0196C70.0032 19.2421 69.8479 18.4725 69.5465 17.7566C69.2517 17.0614 68.8285 16.4289 68.2992 15.8926C67.7744 15.3521 67.1512 14.9182 66.4634 14.6146C65.7405 14.3064 64.9633 14.1476 64.1782 14.1476C63.393 14.1476 62.6158 14.3064 61.8929 14.6146C61.2037 14.9125 60.5776 15.3403 60.0483 15.8749C59.5224 16.4122 59.1021 17.0446 58.8098 17.7389C58.5084 18.4579 58.3531 19.2304 58.3531 20.0107C58.3531 20.7911 58.5084 21.5635 58.8098 22.2825C59.0943 22.9747 59.5054 23.607 60.022 24.1465C60.5513 24.6812 61.1774 25.109 61.8666 25.4069C62.5935 25.7237 63.3786 25.8832 64.1708 25.8751Z" fill="#00C1FE"/>
<path d="M90.9699 24.0707C91.1987 24.0642 91.4265 24.1047 91.6392 24.1899C91.8519 24.2751 92.0451 24.4031 92.2069 24.5661C92.3686 24.729 92.4956 24.9235 92.5799 25.1376C92.6642 25.3517 92.7042 25.5808 92.6973 25.811C92.6972 26.0507 92.6487 26.2879 92.5545 26.5081C92.4604 26.7283 92.3227 26.9269 92.1498 27.0919C90.3735 28.6356 88.082 29.4457 85.736 29.3594C83.39 29.2731 81.1635 28.2968 79.5041 26.6267C78.6272 25.7707 77.9334 24.7436 77.4651 23.6083C76.9969 22.4731 76.7641 21.2536 76.7811 20.0247C76.7784 18.7949 77.017 17.5767 77.4832 16.4398C77.9493 15.3029 78.6339 14.2697 79.4977 13.3993C80.3615 12.5289 81.3876 11.8384 82.5171 11.3675C83.6466 10.8965 84.8575 10.6543 86.0802 10.6547C88.3143 10.6158 90.4803 11.4278 92.144 12.928C92.3321 13.0909 92.4822 13.2937 92.5834 13.5217C92.6846 13.7498 92.7345 13.9975 92.7295 14.2472C92.736 14.4781 92.696 14.708 92.612 14.9231C92.5279 15.1381 92.4016 15.3339 92.2406 15.4987C92.08 15.6642 91.887 15.7943 91.6738 15.881C91.4606 15.9677 91.2319 16.009 91.0021 16.0022C90.5961 16.0043 90.2019 15.8649 89.8865 15.6076C89.3569 15.1513 88.7565 14.7853 88.1093 14.524C87.4637 14.2656 86.775 14.1337 86.0802 14.1353C85.2976 14.1296 84.5222 14.286 83.8023 14.5947C83.1097 14.8903 82.4789 15.3149 81.9431 15.8462C81.4079 16.3795 80.9813 17.0126 80.687 17.7101C80.3856 18.4354 80.2304 19.2136 80.2304 19.9996C80.2304 20.7857 80.3856 21.5639 80.687 22.2891C80.9813 22.9867 81.4079 23.6198 81.9431 24.1531C82.4789 24.6843 83.1097 25.109 83.8023 25.4046C84.5214 25.7174 85.2968 25.8777 86.0802 25.8758C86.7719 25.8838 87.4591 25.7619 88.1064 25.5165C88.7579 25.2662 89.3605 24.9024 89.8865 24.4417C90.2005 24.2078 90.5792 24.0781 90.9699 24.0707Z" fill="#00EBFF"/>
<path d="M99.5078 12.3917V12.7244C100.321 12.0673 101.236 11.549 102.216 11.1902C103.218 10.8297 104.276 10.6493 105.34 10.6573C105.865 10.6592 106.389 10.6926 106.91 10.7574C107.437 10.8167 107.956 10.9372 108.456 11.1166C108.891 11.2682 109.29 11.51 109.627 11.8263C109.782 11.9786 109.904 12.1623 109.985 12.3653C110.065 12.5682 110.101 12.7859 110.092 13.0042C110.094 13.2403 110.046 13.4742 109.952 13.6903C109.859 13.8969 109.733 14.0861 109.577 14.2498C109.421 14.4106 109.235 14.5387 109.029 14.6267C108.813 14.7161 108.581 14.7612 108.347 14.7592C108.094 14.7484 107.845 14.6863 107.615 14.5766C106.892 14.2841 106.12 14.1342 105.34 14.1349C104.557 14.1329 103.781 14.2933 103.062 14.6061C101.664 15.197 100.551 16.3154 99.9617 17.7216C99.6541 18.4495 99.4996 19.2335 99.5078 20.0243V27.6305C99.5071 28.091 99.3248 28.5325 99.001 28.8581C98.6772 29.1838 98.2383 29.3671 97.7804 29.3678C97.5504 29.3719 97.3219 29.3288 97.109 29.2412C96.8961 29.1536 96.7031 29.0234 96.5419 28.8584C96.3786 28.6993 96.2494 28.5083 96.1623 28.2971C96.0752 28.086 96.032 27.8591 96.0353 27.6305V12.3917C96.032 12.1631 96.0752 11.9362 96.1623 11.725C96.2494 11.5138 96.3786 11.3228 96.5419 11.1637C96.7045 10.9973 96.8994 10.8662 97.1144 10.7786C97.3295 10.6909 97.5601 10.6487 97.7921 10.6543C98.25 10.6551 98.6889 10.8384 99.0127 11.164C99.3365 11.4897 99.5188 11.9311 99.5196 12.3917H99.5078Z" fill="#00EBFF"/>
<path d="M139 27.6125C139.004 27.8441 138.961 28.0741 138.873 28.2883C138.786 28.5026 138.655 28.6965 138.49 28.8581C138.165 29.1841 137.724 29.3672 137.265 29.3672C136.806 29.3672 136.365 29.1841 136.04 28.8581C135.877 28.695 135.75 28.5005 135.664 28.2864C135.579 28.0724 135.537 27.8431 135.542 27.6125V18.107C135.544 17.5837 135.439 17.0656 135.234 16.5846C135.035 16.1112 134.749 15.6796 134.391 15.3125C134.033 14.9469 133.607 14.6548 133.138 14.4526C132.649 14.2399 132.122 14.1316 131.589 14.1346C131.063 14.1313 130.542 14.2397 130.061 14.4526C129.594 14.6594 129.169 14.9509 128.808 15.3125C128.446 15.6707 128.157 16.0969 127.959 16.5669C127.757 17.0536 127.657 17.5769 127.666 18.1041V27.6125C127.666 28.0756 127.483 28.5198 127.157 28.8472C126.832 29.1747 126.39 29.3587 125.93 29.3587C125.469 29.3587 125.027 29.1747 124.702 28.8472C124.376 28.5198 124.193 28.0756 124.193 27.6125V18.107C124.198 17.5781 124.091 17.0542 123.88 16.5699C123.473 15.6265 122.725 14.8738 121.787 14.4644C121.301 14.2454 120.775 14.1329 120.244 14.1346C119.718 14.1305 119.198 14.2358 118.715 14.4438C117.768 14.8468 117.014 15.6052 116.613 16.5581C116.411 17.0447 116.311 17.568 116.32 18.0952V27.6125C116.32 28.0756 116.137 28.5198 115.812 28.8472C115.486 29.1747 115.044 29.3587 114.584 29.3587C114.123 29.3587 113.682 29.1747 113.356 28.8472C113.031 28.5198 112.848 28.0756 112.848 27.6125V12.3914C112.848 11.9308 113.031 11.4894 113.354 11.1637C113.678 10.8381 114.117 10.6548 114.575 10.654C114.944 10.6486 115.305 10.7621 115.606 10.9779C115.9 11.1895 116.116 11.4928 116.221 11.8407C117.418 11.0487 118.825 10.6382 120.258 10.6628C121.334 10.6567 122.399 10.8816 123.382 11.3224C124.378 11.7781 125.253 12.4619 125.938 13.3189C127.478 11.5521 129.367 10.6687 131.604 10.6687C132.59 10.6629 133.566 10.8634 134.47 11.2577C136.241 12.0223 137.652 13.4424 138.411 15.2242C138.803 16.1338 139.003 17.1156 138.997 18.107L139 27.6125Z" fill="#00EBFF"/>
</g>
<defs>
<clipPath id="clip0">
<rect width="139" height="32" fill="white"/>
</clipPath>
</defs>
</svg>
