<svg width="300" height="169" viewBox="0 0 300 169" fill="none" xmlns="http://www.w3.org/2000/svg">
<rect width="300" height="169" fill="white"/>
<path d="M177.663 67.1038H145.889L139.569 59.5922C139.357 59.3366 139.038 59.1933 138.706 59.2037H113.071C109.157 59.2321 106 62.4129 106 66.3268V112.528C106.005 116.455 109.187 119.637 113.114 119.642H177.663C181.59 119.637 184.773 116.455 184.777 112.528V74.2183C184.773 70.2911 181.59 67.1086 177.663 67.1038Z" fill="#196CA4"/>
<path d="M186.995 57.9007H155.213L148.893 50.3891C148.681 50.1335 148.362 49.9902 148.03 50.0005H122.404C118.853 50.0064 115.85 52.6298 115.367 56.148H138.74C139.965 56.145 141.129 56.6859 141.917 57.6244L147.313 64.0395H177.662C183.275 64.049 187.823 68.5972 187.833 74.2105V110.37C191.392 109.926 194.064 106.902 194.067 103.316V65.0065C194.057 61.0994 190.902 57.9292 186.995 57.9007Z" fill="#042E4C"/>
</svg>
