<svg width="300" height="169" viewBox="0 0 300 169" fill="none" xmlns="http://www.w3.org/2000/svg">
<rect width="300" height="169" fill="white"/>
<g clip-path="url(#clip0)">
<path d="M182.195 67.8055C183.269 68.8795 183.269 70.6206 182.195 71.6946C181.121 72.7686 179.379 72.7686 178.305 71.6946C177.232 70.6206 177.232 68.8795 178.305 67.8055C179.379 66.7315 181.121 66.7315 182.195 67.8055Z" fill="#196CA4"/>
<path d="M185.75 55.9999H171.53C170.394 52.7987 167.336 50.5 163.75 50.5H136.251C132.717 50.5 129.713 52.743 128.539 55.8724L132.964 60.2972C133.277 59.8508 133.501 59.337 133.501 58.75C133.501 57.2328 134.733 56.0001 136.251 56.0001H163.75C165.268 56.0001 166.5 57.2328 166.5 58.75C166.5 60.2701 167.73 61.5 169.25 61.5H185.75C187.268 61.5 188.5 62.7327 188.5 64.2499V113.75C188.5 114.336 188.276 114.85 187.962 115.296L191.882 119.216C193.184 117.757 194 115.855 194 113.75V64.2498C194 59.7005 190.3 55.9999 185.75 55.9999V55.9999Z" fill="#042E4C"/>
<path d="M170.252 97.5858C171.375 94.9459 172 92.0451 172 89C172 76.8694 162.13 67 150 67C146.955 67 144.054 67.6246 141.414 68.7482L145.781 73.115C147.136 72.7541 148.533 72.4999 150 72.4999C159.098 72.4999 166.5 79.9012 166.5 88.9998C166.5 90.4671 166.246 91.8639 165.885 93.2188C165.885 93.219 170.252 97.5858 170.252 97.5858Z" fill="#196CA4"/>
<path d="M106 48.8889L113.216 56.1046C109.159 56.6196 106 60.055 106 64.2502V113.75C106 118.299 109.701 122 114.25 122H179.111L190.111 133L194 129.111L109.889 45L106 48.8889ZM114.25 116.5C112.733 116.5 111.5 115.268 111.5 113.75V64.2502C111.5 62.733 112.733 61.5003 114.25 61.5003H118.611L132.743 75.6321C129.839 79.3482 128 83.9293 128 89.0004C128 101.131 137.87 111 150 111C155.072 111 159.664 109.174 163.383 106.272L173.612 116.5L114.25 116.5ZM136.647 79.5358L159.479 102.368C156.791 104.297 153.555 105.5 150 105.5C140.901 105.5 133.5 98.099 133.5 89.0004C133.5 85.4462 134.717 82.2227 136.647 79.5358V79.5358Z" fill="#196CA4"/>
</g>
<defs>
<clipPath id="clip0">
<rect width="88" height="88" fill="white" transform="translate(106 45)"/>
</clipPath>
</defs>
</svg>
