<svg width="125" height="125" viewBox="0 0 125 125" fill="none" xmlns="http://www.w3.org/2000/svg">
<rect x="0.5" y="0.5" width="124" height="124" fill="#EAEBEE" fill-opacity="0.11" stroke="#EAEBEE" stroke-dasharray="10 10"/>
<rect x="60.8398" y="71.668" width="3.33333" height="18.3333" fill="#EAEBEE"/>
<rect x="53.3398" y="82.502" width="3.33333" height="18.3333" transform="rotate(-90 53.3398 82.502)" fill="#EAEBEE"/>
<path d="M32.0044 41.1353C32.0044 40.784 31.8669 40.509 31.5918 40.3101C31.3168 40.1069 30.9528 40.0054 30.5 40.0054C30.0938 40.0054 29.7552 40.1069 29.4844 40.3101C29.2178 40.509 29.0845 40.7692 29.0845 41.0908H27.1802C27.1802 40.5915 27.3199 40.1429 27.5992 39.7451C27.8827 39.3431 28.2826 39.0299 28.7989 38.8057C29.3194 38.5814 29.8864 38.4692 30.5 38.4692C31.5664 38.4692 32.4022 38.6978 33.0074 39.1548C33.6125 39.6118 33.9151 40.2593 33.9151 41.0972C33.9151 41.5076 33.7902 41.8885 33.5406 42.2397C33.2951 42.591 32.9439 42.8724 32.4869 43.084C32.9947 43.2617 33.384 43.5326 33.6548 43.8965C33.9257 44.2562 34.0611 44.7048 34.0611 45.2422C34.0611 46.0716 33.7352 46.7318 33.0835 47.2227C32.4361 47.7093 31.5749 47.9526 30.5 47.9526C29.8272 47.9526 29.222 47.8384 28.6846 47.6099C28.1472 47.3771 27.7388 47.0618 27.4595 46.6641C27.1844 46.262 27.0469 45.7965 27.0469 45.2676H28.9639C28.9639 45.5977 29.1078 45.8748 29.3955 46.0991C29.6833 46.3192 30.0515 46.4292 30.5 46.4292C31.0078 46.4292 31.4077 46.3149 31.6997 46.0864C31.996 45.8579 32.1441 45.568 32.1441 45.2168C32.1441 44.7344 32.0129 44.3895 31.7505 44.1821C31.4882 43.9705 31.1052 43.8647 30.6016 43.8647H29.4654V42.373H30.6397C31.5495 42.3604 32.0044 41.9478 32.0044 41.1353ZM40.3046 47.832C40.22 47.667 40.1586 47.4618 40.1205 47.2163C39.6762 47.7114 39.0986 47.959 38.3876 47.959C37.7148 47.959 37.1562 47.7643 36.7119 47.375C36.2717 46.9857 36.0517 46.4948 36.0517 45.9023C36.0517 45.1745 36.3204 44.6159 36.8578 44.2266C37.3995 43.8372 38.1803 43.6405 39.2001 43.6362H40.0444V43.2427C40.0444 42.9253 39.9619 42.6714 39.7968 42.481C39.636 42.2905 39.38 42.1953 39.0287 42.1953C38.7198 42.1953 38.4765 42.2694 38.2988 42.4175C38.1253 42.5656 38.0385 42.7687 38.0385 43.0269H36.204C36.204 42.6291 36.3268 42.2609 36.5722 41.9224C36.8176 41.5838 37.1647 41.3193 37.6132 41.1289C38.0618 40.9342 38.5654 40.8369 39.124 40.8369C39.9703 40.8369 40.6411 41.0506 41.1362 41.478C41.6355 41.9012 41.8852 42.4979 41.8852 43.2681V46.2451C41.8894 46.8968 41.9804 47.3898 42.1581 47.7241V47.832H40.3046ZM38.7875 46.5562C39.0584 46.5562 39.308 46.4969 39.5366 46.3784C39.7651 46.2557 39.9343 46.0928 40.0444 45.8896V44.709H39.3588C38.4405 44.709 37.9518 45.0264 37.8925 45.6611L37.8862 45.769C37.8862 45.9976 37.9666 46.1859 38.1274 46.334C38.2882 46.4821 38.5082 46.5562 38.7875 46.5562ZM48.9476 42.4492H46.1038V47.832H44.2694V40.9639H48.9476V42.4492ZM56.8733 44.4614C56.8733 45.5194 56.6321 46.3678 56.1496 47.0068C55.6715 47.6416 55.024 47.959 54.2073 47.959C53.5132 47.959 52.9525 47.7178 52.5251 47.2354V50.4727H50.6907V40.9639H52.3918L52.4553 41.6367C52.8996 41.1035 53.4794 40.8369 54.1946 40.8369C55.0409 40.8369 55.699 41.1501 56.1687 41.7764C56.6384 42.4027 56.8733 43.266 56.8733 44.3662V44.4614ZM55.0388 44.3281C55.0388 43.6891 54.9245 43.1961 54.696 42.8491C54.4717 42.5021 54.1438 42.3286 53.7121 42.3286C53.1366 42.3286 52.741 42.5487 52.5251 42.9888V45.8008C52.7494 46.2536 53.1493 46.48 53.7248 46.48C54.6008 46.48 55.0388 45.7627 55.0388 44.3281ZM61.4791 45.2358L62.7487 40.9639H64.7164L61.9552 48.8984L61.8029 49.2603C61.3924 50.1574 60.7153 50.606 59.7716 50.606C59.505 50.606 59.2342 50.5658 58.9591 50.4854V49.0952L59.2384 49.1016C59.5854 49.1016 59.8436 49.0487 60.0128 48.9429C60.1863 48.8371 60.3217 48.6615 60.4191 48.416L60.6349 47.8511L58.2291 40.9639H60.2033L61.4791 45.2358ZM70.0205 42.9888C70.0205 42.7476 69.9401 42.5614 69.7793 42.4302C69.6228 42.2948 69.3985 42.2271 69.1065 42.2271C68.806 42.2271 68.5606 42.2905 68.3702 42.4175C68.184 42.5402 68.0909 42.7158 68.0909 42.9443H66.2564C66.2564 42.3223 66.5145 41.8166 67.0308 41.4272C67.5471 41.0379 68.2072 40.8433 69.0113 40.8433C69.8957 40.8433 70.5897 41.0168 71.0933 41.3638C71.6011 41.7108 71.855 42.2038 71.855 42.8428C71.855 43.1475 71.7619 43.4289 71.5757 43.687C71.3938 43.9409 71.1356 44.144 70.8013 44.2964C71.5842 44.5715 71.9756 45.1025 71.9756 45.8896C71.9756 46.5202 71.7048 47.0238 71.1631 47.4004C70.6257 47.7728 69.9084 47.959 69.0113 47.959C68.1776 47.959 67.4921 47.7643 66.9546 47.375C66.4172 46.9857 66.1485 46.4609 66.1485 45.8008H67.9829C67.9829 46.0335 68.0866 46.2218 68.294 46.3657C68.5013 46.5096 68.7722 46.5815 69.1065 46.5815C69.4323 46.5815 69.6862 46.5054 69.8682 46.353C70.0502 46.2007 70.1411 46.0018 70.1411 45.7563C70.1411 45.4559 70.0544 45.2422 69.8809 45.1152C69.7074 44.984 69.4471 44.9185 69.1001 44.9185H68.1035V43.7251H69.1636C69.7349 43.7082 70.0205 43.4627 70.0205 42.9888ZM78.2065 40.9639H80.041V47.832H78.2065V43.5918L75.9086 47.832H74.0678V40.9639H75.9086V45.1978L78.2065 40.9639ZM88.119 42.4365H85.9163V47.832H84.0755V42.4365H81.911V40.9639H88.119V42.4365ZM91.9822 42.9761H93.2961C93.8886 42.9761 94.4091 43.0755 94.8577 43.2744C95.3062 43.4733 95.649 43.759 95.886 44.1313C96.1272 44.4995 96.2478 44.929 96.2478 45.4199C96.2478 46.1436 95.9791 46.7275 95.4416 47.1719C94.9084 47.612 94.1806 47.832 93.258 47.832H90.1413V40.9639H91.9822V42.9761ZM91.9822 44.4487V46.3657H93.2834C93.6474 46.3657 93.9267 46.2811 94.1213 46.1118C94.316 45.9425 94.4133 45.7119 94.4133 45.4199C94.4133 45.1237 94.3181 44.8888 94.1277 44.7153C93.9372 44.5376 93.6558 44.4487 93.2834 44.4487H91.9822ZM33.7792 60.2993H33.0429V62.832H31.2084V55.9639H33.0429V58.5474H33.6967L35.1948 55.9639H37.5117L35.2646 59.2329L37.7211 62.832H35.2773L33.7792 60.2993ZM43.368 62.832C43.2834 62.667 43.222 62.4618 43.1839 62.2163C42.7396 62.7114 42.1619 62.959 41.451 62.959C40.7782 62.959 40.2196 62.7643 39.7752 62.375C39.3351 61.9857 39.1151 61.4948 39.1151 60.9023C39.1151 60.1745 39.3838 59.6159 39.9212 59.2266C40.4629 58.8372 41.2437 58.6405 42.2635 58.6362H43.1077V58.2427C43.1077 57.9253 43.0252 57.6714 42.8602 57.481C42.6994 57.2905 42.4434 57.1953 42.0921 57.1953C41.7832 57.1953 41.5399 57.2694 41.3621 57.4175C41.1886 57.5656 41.1019 57.7687 41.1019 58.0269H39.2674C39.2674 57.6291 39.3901 57.2609 39.6356 56.9224C39.881 56.5838 40.228 56.3193 40.6766 56.1289C41.1252 55.9342 41.6287 55.8369 42.1873 55.8369C43.0337 55.8369 43.7044 56.0506 44.1995 56.478C44.6989 56.9012 44.9486 57.4979 44.9486 58.2681V61.2451C44.9528 61.8968 45.0438 62.3898 45.2215 62.7241V62.832H43.368ZM41.8509 61.5562C42.1217 61.5562 42.3714 61.4969 42.5999 61.3784C42.8285 61.2557 42.9977 61.0928 43.1077 60.8896V59.709H42.4222C41.5039 59.709 41.0151 60.0264 40.9559 60.6611L40.9495 60.769C40.9495 60.9976 41.03 61.1859 41.1908 61.334C41.3516 61.4821 41.5716 61.5562 41.8509 61.5562ZM53.5154 59.4614C53.5154 60.5194 53.2742 61.3678 52.7917 62.0068C52.3135 62.6416 51.6661 62.959 50.8494 62.959C50.1553 62.959 49.5946 62.7178 49.1672 62.2354V65.4727H47.3328V55.9639H49.0339L49.0974 56.6367C49.5417 56.1035 50.1215 55.8369 50.8367 55.8369C51.683 55.8369 52.3411 56.1501 52.8108 56.7764C53.2805 57.4027 53.5154 58.266 53.5154 59.3662V59.4614ZM51.6809 59.3281C51.6809 58.6891 51.5666 58.1961 51.3381 57.8491C51.1138 57.5021 50.7859 57.3286 50.3542 57.3286C49.7787 57.3286 49.383 57.5487 49.1672 57.9888V60.8008C49.3915 61.2536 49.7914 61.48 50.3669 61.48C51.2429 61.48 51.6809 60.7627 51.6809 59.3281ZM61.0665 57.4365H58.8639V62.832H57.0231V57.4365H54.8585V55.9639H61.0665V57.4365ZM67.107 55.9639H68.9414V62.832H67.107V58.5918L64.8091 62.832H62.9683V55.9639H64.8091V60.1978L67.107 55.9639ZM77.2734 62.832H75.4326V60.1914H73.1537V62.832H71.3193V55.9639H73.1537V58.7188H75.4326V55.9639H77.2734V62.832ZM82.3617 60.2993H81.6253V62.832H79.7909V55.9639H81.6253V58.5474H82.2791L83.7772 55.9639H86.0941L83.847 59.2329L86.3036 62.832H83.8597L82.3617 60.2993ZM90.5349 60.2358L91.8044 55.9639H93.7722L91.011 63.8984L90.8586 64.2603C90.4481 65.1574 89.7711 65.606 88.8274 65.606C88.5608 65.606 88.2899 65.5658 88.0149 65.4854V64.0952L88.2942 64.1016C88.6412 64.1016 88.8993 64.0487 89.0686 63.9429C89.2421 63.8371 89.3775 63.6615 89.4748 63.416L89.6907 62.8511L87.2849 55.9639H89.259L90.5349 60.2358Z" fill="#C9C9C9"/>
</svg>
