<svg width="125" height="125" viewBox="0 0 125 125" fill="none" xmlns="http://www.w3.org/2000/svg">
<rect x="0.5" y="0.5" width="124" height="124" fill="#EAEBEE" fill-opacity="0.11" stroke="#B0B0B0" stroke-dasharray="10 10"/>
<rect x="60.8359" y="71.666" width="3.33333" height="18.3333" fill="#B0B0B0"/>
<rect x="53.3359" y="82.5" width="3.33333" height="18.3333" transform="rotate(-90 53.3359 82.5)" fill="#B0B0B0"/>
<path d="M32.0005 41.1372C32.0005 40.786 31.863 40.5109 31.5879 40.312C31.3129 40.1089 30.9489 40.0073 30.4961 40.0073C30.0899 40.0073 29.7513 40.1089 29.4805 40.312C29.2139 40.5109 29.0806 40.7712 29.0806 41.0928H27.1763C27.1763 40.5934 27.3159 40.1449 27.5952 39.7471C27.8788 39.3451 28.2787 39.0319 28.795 38.8076C29.3155 38.5833 29.8825 38.4712 30.4961 38.4712C31.5625 38.4712 32.3983 38.6997 33.0034 39.1567C33.6086 39.6138 33.9112 40.2612 33.9112 41.0991C33.9112 41.5096 33.7863 41.8905 33.5367 42.2417C33.2912 42.5929 32.94 42.8743 32.4829 43.0859C32.9908 43.2637 33.3801 43.5345 33.6509 43.8984C33.9217 44.2581 34.0572 44.7067 34.0572 45.2441C34.0572 46.0736 33.7313 46.7337 33.0796 47.2246C32.4322 47.7113 31.571 47.9546 30.4961 47.9546C29.8233 47.9546 29.2181 47.8403 28.6807 47.6118C28.1433 47.3791 27.7349 47.0638 27.4556 46.666C27.1805 46.264 27.043 45.7985 27.043 45.2695H28.96C28.96 45.5996 29.1039 45.8768 29.3916 46.1011C29.6794 46.3211 30.0476 46.4312 30.4961 46.4312C31.0039 46.4312 31.4038 46.3169 31.6958 46.0884C31.9921 45.8599 32.1402 45.57 32.1402 45.2188C32.1402 44.7363 32.009 44.3914 31.7466 44.1841C31.4842 43.9725 31.1013 43.8667 30.5977 43.8667H29.4615V42.375H30.6358C31.5456 42.3623 32.0005 41.9497 32.0005 41.1372ZM40.3007 47.834C40.2161 47.6689 40.1547 47.4637 40.1166 47.2183C39.6723 47.7134 39.0947 47.9609 38.3837 47.9609C37.7109 47.9609 37.1523 47.7663 36.7079 47.377C36.2678 46.9876 36.0478 46.4967 36.0478 45.9043C36.0478 45.1764 36.3165 44.6178 36.8539 44.2285C37.3956 43.8392 38.1764 43.6424 39.1962 43.6382H40.0405V43.2446C40.0405 42.9272 39.9579 42.6733 39.7929 42.4829C39.6321 42.2925 39.3761 42.1973 39.0248 42.1973C38.7159 42.1973 38.4726 42.2713 38.2949 42.4194C38.1214 42.5675 38.0346 42.7707 38.0346 43.0288H36.2001C36.2001 42.631 36.3228 42.2629 36.5683 41.9243C36.8137 41.5858 37.1607 41.3213 37.6093 41.1309C38.0579 40.9362 38.5615 40.8389 39.1201 40.8389C39.9664 40.8389 40.6371 41.0526 41.1323 41.48C41.6316 41.9032 41.8813 42.4998 41.8813 43.27V46.2471C41.8855 46.8988 41.9765 47.3918 42.1542 47.7261V47.834H40.3007ZM38.7836 46.5581C39.0545 46.5581 39.3041 46.4989 39.5326 46.3804C39.7612 46.2576 39.9304 46.0947 40.0405 45.8916V44.7109H39.3549C38.4366 44.7109 37.9478 45.0283 37.8886 45.6631L37.8823 45.771C37.8823 45.9995 37.9627 46.1878 38.1235 46.3359C38.2843 46.484 38.5043 46.5581 38.7836 46.5581ZM48.9437 42.4512H46.0999V47.834H44.2655V40.9658H48.9437V42.4512ZM56.8694 44.4634C56.8694 45.5213 56.6282 46.3698 56.1457 47.0088C55.6675 47.6436 55.0201 47.9609 54.2034 47.9609C53.5093 47.9609 52.9486 47.7197 52.5212 47.2373V50.4746H50.6867V40.9658H52.3879L52.4514 41.6387C52.8957 41.1055 53.4755 40.8389 54.1907 40.8389C55.037 40.8389 55.695 41.152 56.1648 41.7783C56.6345 42.4046 56.8694 43.2679 56.8694 44.3682V44.4634ZM55.0349 44.3301C55.0349 43.6911 54.9206 43.1981 54.6921 42.8511C54.4678 42.5041 54.1399 42.3306 53.7082 42.3306C53.1327 42.3306 52.737 42.5506 52.5212 42.9907V45.8027C52.7455 46.2555 53.1454 46.4819 53.7209 46.4819C54.5969 46.4819 55.0349 45.7646 55.0349 44.3301ZM61.4752 45.2378L62.7448 40.9658H64.7125L61.9513 48.9004L61.799 49.2622C61.3885 50.1593 60.7114 50.6079 59.7677 50.6079C59.5011 50.6079 59.2303 50.5677 58.9552 50.4873V49.0972L59.2345 49.1035C59.5815 49.1035 59.8396 49.0506 60.0089 48.9448C60.1824 48.839 60.3178 48.6634 60.4152 48.418L60.631 47.853L58.2252 40.9658H60.1993L61.4752 45.2378ZM70.0166 42.9907C70.0166 42.7495 69.9362 42.5633 69.7754 42.4321C69.6188 42.2967 69.3946 42.229 69.1026 42.229C68.8021 42.229 68.5567 42.2925 68.3662 42.4194C68.18 42.5422 68.0869 42.7178 68.0869 42.9463H66.2525C66.2525 42.3242 66.5106 41.8185 67.0269 41.4292C67.5432 41.0399 68.2033 40.8452 69.0074 40.8452C69.8918 40.8452 70.5858 41.0187 71.0894 41.3657C71.5972 41.7127 71.8511 42.2057 71.8511 42.8447C71.8511 43.1494 71.758 43.4308 71.5718 43.689C71.3898 43.9429 71.1317 44.146 70.7974 44.2983C71.5803 44.5734 71.9717 45.1045 71.9717 45.8916C71.9717 46.5221 71.7009 47.0257 71.1592 47.4023C70.6218 47.7747 69.9045 47.9609 69.0074 47.9609C68.1737 47.9609 67.4881 47.7663 66.9507 47.377C66.4133 46.9876 66.1446 46.4629 66.1446 45.8027H67.979C67.979 46.0355 68.0827 46.2238 68.2901 46.3677C68.4974 46.5116 68.7683 46.5835 69.1026 46.5835C69.4284 46.5835 69.6823 46.5073 69.8643 46.355C70.0463 46.2026 70.1372 46.0037 70.1372 45.7583C70.1372 45.4578 70.0505 45.2441 69.877 45.1172C69.7035 44.986 69.4432 44.9204 69.0962 44.9204H68.0996V43.7271H69.1597C69.731 43.7101 70.0166 43.4647 70.0166 42.9907ZM78.2026 40.9658H80.037V47.834H78.2026V43.5938L75.9047 47.834H74.0639V40.9658H75.9047V45.1997L78.2026 40.9658ZM88.1151 42.4385H85.9124V47.834H84.0716V42.4385H81.9071V40.9658H88.1151V42.4385ZM91.9783 42.978H93.2922C93.8847 42.978 94.4052 43.0775 94.8537 43.2764C95.3023 43.4753 95.6451 43.7609 95.8821 44.1333C96.1233 44.5015 96.2439 44.931 96.2439 45.4219C96.2439 46.1455 95.9752 46.7295 95.4377 47.1738C94.9045 47.6139 94.1767 47.834 93.2541 47.834H90.1374V40.9658H91.9783V42.978ZM91.9783 44.4507V46.3677H93.2795C93.6435 46.3677 93.9228 46.283 94.1174 46.1138C94.3121 45.9445 94.4094 45.7139 94.4094 45.4219C94.4094 45.1257 94.3142 44.8908 94.1238 44.7173C93.9333 44.5396 93.6519 44.4507 93.2795 44.4507H91.9783ZM33.7753 60.3013H33.039V62.834H31.2045V55.9658H33.039V58.5493H33.6928L35.1909 55.9658H37.5077L35.2607 59.2349L37.7172 62.834H35.2734L33.7753 60.3013ZM43.3641 62.834C43.2795 62.6689 43.2181 62.4637 43.18 62.2183C42.7357 62.7134 42.158 62.9609 41.4471 62.9609C40.7743 62.9609 40.2157 62.7663 39.7713 62.377C39.3312 61.9876 39.1112 61.4967 39.1112 60.9043C39.1112 60.1764 39.3799 59.6178 39.9173 59.2285C40.459 58.8392 41.2397 58.6424 42.2596 58.6382H43.1038V58.2446C43.1038 57.9272 43.0213 57.6733 42.8563 57.4829C42.6955 57.2925 42.4395 57.1973 42.0882 57.1973C41.7793 57.1973 41.536 57.2713 41.3582 57.4194C41.1847 57.5675 41.098 57.7707 41.098 58.0288H39.2635C39.2635 57.631 39.3862 57.2629 39.6317 56.9243C39.8771 56.5858 40.2241 56.3213 40.6727 56.1309C41.1213 55.9362 41.6248 55.8389 42.1834 55.8389C43.0298 55.8389 43.7005 56.0526 44.1956 56.48C44.695 56.9032 44.9447 57.4998 44.9447 58.27V61.2471C44.9489 61.8988 45.0399 62.3918 45.2176 62.7261V62.834H43.3641ZM41.847 61.5581C42.1178 61.5581 42.3675 61.4989 42.596 61.3804C42.8245 61.2576 42.9938 61.0947 43.1038 60.8916V59.7109H42.4183C41.5 59.7109 41.0112 60.0283 40.952 60.6631L40.9456 60.771C40.9456 60.9995 41.026 61.1878 41.1868 61.3359C41.3477 61.484 41.5677 61.5581 41.847 61.5581ZM53.5115 59.4634C53.5115 60.5213 53.2702 61.3698 52.7878 62.0088C52.3096 62.6436 51.6622 62.9609 50.8454 62.9609C50.1514 62.9609 49.5907 62.7197 49.1633 62.2373V65.4746H47.3288V55.9658H49.03L49.0935 56.6387C49.5378 56.1055 50.1176 55.8389 50.8327 55.8389C51.6791 55.8389 52.3371 56.152 52.8069 56.7783C53.2766 57.4046 53.5115 58.2679 53.5115 59.3682V59.4634ZM51.677 59.3301C51.677 58.6911 51.5627 58.1981 51.3342 57.8511C51.1099 57.5041 50.782 57.3306 50.3503 57.3306C49.7748 57.3306 49.3791 57.5506 49.1633 57.9907V60.8027C49.3876 61.2555 49.7875 61.4819 50.363 61.4819C51.239 61.4819 51.677 60.7646 51.677 59.3301ZM61.0626 57.4385H58.86V62.834H57.0192V57.4385H54.8546V55.9658H61.0626V57.4385ZM67.1031 55.9658H68.9375V62.834H67.1031V58.5938L64.8052 62.834H62.9644V55.9658H64.8052V60.1997L67.1031 55.9658ZM77.2695 62.834H75.4286V60.1934H73.1498V62.834H71.3154V55.9658H73.1498V58.7207H75.4286V55.9658H77.2695V62.834ZM82.3577 60.3013H81.6214V62.834H79.7869V55.9658H81.6214V58.5493H82.2752L83.7733 55.9658H86.0902L83.8431 59.2349L86.2996 62.834H83.8558L82.3577 60.3013ZM90.531 60.2378L91.8005 55.9658H93.7683L91.0071 63.9004L90.8547 64.2622C90.4442 65.1593 89.7672 65.6079 88.8235 65.6079C88.5569 65.6079 88.286 65.5677 88.011 65.4873V64.0972L88.2903 64.1035C88.6373 64.1035 88.8954 64.0506 89.0647 63.9448C89.2382 63.839 89.3736 63.6634 89.4709 63.418L89.6868 62.853L87.281 55.9658H89.2551L90.531 60.2378Z" fill="#B0B0B0"/>
</svg>
