<?xml version="1.0" encoding="iso-8859-1"?>
<!-- Generator: Adobe Illustrator 19.0.0, SVG Export Plug-In . SVG Version: 6.00 Build 0)  -->
<svg version="1.1" id="Layer_1" xmlns="http://www.w3.org/2000/svg" xmlns:xlink="http://www.w3.org/1999/xlink" x="0px" y="0px"
	 viewBox="0 0 512 512" style="enable-background:new 0 0 512 512;" xml:space="preserve">
<g>
	<g>
		<path d="M511.419,370.639c-0.011-0.026-0.021-0.052-0.031-0.077l-38.527-92.807v-68.53c0-19.105-15.542-34.648-34.647-34.648
			H401.07v-70.869h63.115c15.211,0,27.585-12.375,27.585-27.585V27.586C491.77,12.375,479.396,0,464.185,0H275.331
			c-15.211,0-27.585,12.375-27.585,27.585v48.538c0,15.21,12.374,27.585,27.585,27.585h63.116v70.869H154.714
			c-4.199,0-7.604,3.405-7.604,7.604c0,4.199,3.405,7.604,7.604,7.604h283.501c10.719,0,19.439,8.721,19.439,19.44v62.441H54.347
			v-62.441c0-10.719,8.72-19.44,19.439-19.44h55.581c4.199,0,7.604-3.405,7.604-7.604s-3.405-7.604-7.604-7.604H73.786
			c-19.104,0-34.647,15.542-34.647,34.648v68.53L0.612,370.563c-0.01,0.024-0.02,0.049-0.03,0.073l-0.001,0.003c0,0,0,0.001,0,0.002
			C0.208,371.539,0,372.521,0,373.554v130.842C0,508.595,3.405,512,7.604,512h496.792c4.2,0,7.604-3.405,7.604-7.604V373.554
			C512,372.521,511.792,371.538,511.419,370.639z M275.331,88.501c-6.825,0-12.377-5.553-12.377-12.377V27.586
			c0-6.825,5.553-12.377,12.377-12.377h188.854c6.824,0,12.377,5.553,12.377,12.377v48.538c0,6.824-5.553,12.377-12.377,12.377
			H275.331z M385.864,174.578h-32.208v-70.869h32.208V174.578z M51.819,286.874h408.361l32.826,79.076H18.994L51.819,286.874z
			 M496.792,496.792H15.208V381.158h481.584V496.792z"/>
	</g>
</g>
<g>
	<g>
		<path d="M223.146,204.114H80.198c-4.199,0-7.604,3.404-7.604,7.604v38.018c0,4.199,3.405,7.604,7.604,7.604h142.947
			c4.199,0,7.604-3.405,7.604-7.604v-38.018C230.75,207.518,227.345,204.114,223.146,204.114z M215.542,242.131H87.802v-22.81
			h127.739V242.131z"/>
	</g>
</g>
<g>
	<g>
		<path d="M473.176,398.64h-69.57c-4.2,0-7.604,3.405-7.604,7.604s3.404,7.604,7.604,7.604h61.966v50.254H46.429v-50.254h331.83
			c4.2,0,7.604-3.405,7.604-7.604s-3.404-7.604-7.604-7.604H38.825c-4.199,0-7.604,3.405-7.604,7.604v65.462
			c0,4.199,3.405,7.604,7.604,7.604h434.351c4.2,0,7.604-3.405,7.604-7.604v-65.462C480.78,402.045,477.377,398.64,473.176,398.64z"
			/>
	</g>
</g>
<g>
</g>
<g>
</g>
<g>
</g>
<g>
</g>
<g>
</g>
<g>
</g>
<g>
</g>
<g>
</g>
<g>
</g>
<g>
</g>
<g>
</g>
<g>
</g>
<g>
</g>
<g>
</g>
<g>
</g>
</svg>
