<svg width="16" height="16" viewBox="0 0 16 16" fill="none" xmlns="http://www.w3.org/2000/svg">
<g clip-path="url(#clip0)">
<path d="M8.52591 15.7821L13.2873 11.0208C13.5778 10.7303 13.5778 10.2591 13.2873 9.96863C12.9967 9.67807 12.5257 9.67807 12.2351 9.96863L8.7438 13.4599L8.7438 0.743959C8.7438 0.333115 8.41069 -2.22685e-07 7.99984 -2.40644e-07C7.58906 -2.58599e-07 7.25589 0.333115 7.25589 0.743959L7.25589 13.4599L3.76457 9.96875C3.47401 9.67819 3.003 9.67819 2.71244 9.96875C2.56728 10.114 2.49455 10.3044 2.49455 10.4948C2.49455 10.6852 2.56728 10.8756 2.71244 11.0209L7.47378 15.7821C7.76434 16.0727 8.23535 16.0727 8.52591 15.7821Z" fill="black"/>
</g>
<defs>
<clipPath id="clip0">
<rect width="16" height="16" fill="white" transform="translate(16) rotate(90)"/>
</clipPath>
</defs>
</svg>
