<svg width="16" height="16" viewBox="0 0 16 16" fill="none" xmlns="http://www.w3.org/2000/svg">
<g clip-path="url(#clip0)">
<path d="M7.47409 0.217891L2.71275 4.97923C2.42225 5.26973 2.42225 5.74086 2.71275 6.03137C3.00331 6.32193 3.47432 6.32193 3.76489 6.03137L7.2562 2.54005L7.2562 15.256C7.2562 15.6669 7.58931 16 8.00016 16C8.41094 16 8.74411 15.6669 8.74411 15.256L8.74411 2.54005L12.2354 6.03125C12.526 6.32181 12.997 6.32181 13.2876 6.03125C13.4327 5.88603 13.5055 5.69557 13.5055 5.50518C13.5055 5.31478 13.4327 5.12439 13.2876 4.97911L8.52622 0.217891C8.23566 -0.0726696 7.76465 -0.0726696 7.47409 0.217891Z" fill="black"/>
</g>
<defs>
<clipPath id="clip0">
<rect width="16" height="16" fill="white" transform="translate(0 16) rotate(-90)"/>
</clipPath>
</defs>
</svg>
