<svg width="24" height="24" viewBox="0 0 24 24" fill="none" xmlns="http://www.w3.org/2000/svg">
<g clip-path="url(#clip0)">
<path d="M9.12109 17.9395C7.45019 17.9395 6.09082 19.2988 6.09082 20.9697C6.09082 22.6406 7.45019 24 9.12109 24C10.792 24 12.1514 22.6406 12.1514 20.9697C12.1514 19.2988 10.7919 17.9395 9.12109 17.9395ZM9.12109 22.1818C8.45261 22.1818 7.909 21.6382 7.909 20.9697C7.909 20.3012 8.45261 19.7576 9.12109 19.7576C9.78924 19.7576 10.3332 20.3012 10.3332 20.9697C10.3332 21.6382 9.78957 22.1818 9.12109 22.1818Z" fill="#404040"/>
<path d="M18.0913 17.9395C16.4204 17.9395 15.061 19.2988 15.061 20.9697C15.061 22.6406 16.4204 24 18.0913 24C19.7622 24 21.1216 22.6406 21.1216 20.9697C21.1216 19.2988 19.7622 17.9395 18.0913 17.9395ZM18.0913 22.1818C17.4228 22.1818 16.8792 21.6382 16.8792 20.9697C16.8792 20.3012 17.4228 19.7576 18.0913 19.7576C18.7598 19.7576 19.3034 20.3012 19.3034 20.9697C19.3034 21.6382 18.7598 22.1818 18.0913 22.1818Z" fill="#404040"/>
<path d="M23.3478 5.91908C23.175 5.7021 22.9132 5.57577 22.6363 5.57577H6.71837L5.89201 1.39946C5.81959 1.03369 5.53112 0.749162 5.16414 0.681897L1.52782 0.0152435C1.03301 -0.0759749 0.560282 0.251633 0.469673 0.745553C0.379064 1.23947 0.706016 1.7131 1.19998 1.80371L4.22842 2.35884L6.89626 15.8432C6.98049 16.2689 7.35413 16.5759 7.78805 16.5759H20.5151C20.9384 16.5759 21.3054 16.2841 21.4009 15.871L23.522 6.68937C23.5844 6.41937 23.5202 6.13574 23.3478 5.91908ZM19.7921 14.7577H8.53467L7.07804 7.39423H21.4929L19.7921 14.7577Z" fill="#404040"/>
</g>
<defs>
<clipPath id="clip0">
<rect width="24" height="24" fill="white"/>
</clipPath>
</defs>
</svg>
