<svg width="11" height="16" viewBox="0 0 11 16" fill="none" xmlns="http://www.w3.org/2000/svg">
<path d="M1.05555 8.62432L8.17576 15.7444C8.34044 15.9092 8.56027 16 8.79468 16C9.02908 16 9.24892 15.9092 9.4136 15.7444L9.93795 15.2202C10.2792 14.8786 10.2792 14.3234 9.93795 13.9823L3.95895 8.00332L9.94459 2.01768C10.1093 1.85286 10.2002 1.63316 10.2002 1.39888C10.2002 1.16435 10.1093 0.944643 9.94459 0.779701L9.42024 0.255608C9.25542 0.0907962 9.03572 6.17302e-07 8.80131 5.9681e-07C8.56691 5.76318e-07 8.34707 0.0907961 8.18239 0.255608L1.05555 7.38218C0.890483 7.54752 0.799817 7.76826 0.800338 8.00293C0.799817 8.2385 0.890483 8.45912 1.05555 8.62432Z" fill="#272727"/>
</svg>
