<svg width="11" height="16" viewBox="0 0 11 16" fill="none" xmlns="http://www.w3.org/2000/svg">
<path d="M1.05507 7.37568L8.17527 0.255608C8.33995 0.090796 8.55979 0 8.79419 0C9.02859 0 9.24843 0.090796 9.41311 0.255608L9.93747 0.779831C10.2787 1.12142 10.2787 1.6766 9.93747 2.01767L3.95846 7.99668L9.9441 13.9823C10.1088 14.1471 10.1997 14.3668 10.1997 14.6011C10.1997 14.8357 10.1088 15.0554 9.9441 15.2203L9.41975 15.7444C9.25493 15.9092 9.03523 16 8.80082 16C8.56642 16 8.34658 15.9092 8.1819 15.7444L1.05507 8.61782C0.889994 8.45248 0.799329 8.23174 0.799849 7.99707C0.799329 7.7615 0.889994 7.54088 1.05507 7.37568Z" fill="#C7C7C7"/>
</svg>
