<svg width="32" height="32" viewBox="0 0 32 32" fill="none" xmlns="http://www.w3.org/2000/svg">
<circle cx="16" cy="16" r="16" fill="#F3F3F3"/>
<g clip-path="url(#clip0)">
<path d="M22.5268 11.7575L18.2849 15.9999L22.5268 20.242C23.1578 20.8732 23.1578 21.8957 22.5268 22.5269C22.2115 22.8422 21.7982 22.9999 21.3851 22.9999C20.9713 22.9999 20.5579 22.8424 20.2429 22.5269L16 18.2843L11.7575 22.5269C11.4423 22.8421 11.0289 22.9999 10.6154 22.9999C10.2021 22.9999 9.78897 22.8424 9.47347 22.5269C8.8425 21.896 8.8425 20.8734 9.47347 20.242L13.7153 15.9998L9.47322 11.7575C8.84226 11.1265 8.84226 10.1038 9.47322 9.47286C10.1041 8.84238 11.1262 8.84238 11.7573 9.47286L16 13.7152L20.2424 9.47286C20.8736 8.84238 21.8958 8.84238 22.5266 9.47286C23.1578 10.1038 23.1578 11.1265 22.5268 11.7575Z" fill="#989898"/>
</g>
<defs>
<clipPath id="clip0">
<rect width="14" height="14" fill="white" transform="translate(9 9)"/>
</clipPath>
</defs>
</svg>
