<svg width="24" height="24" viewBox="0 0 24 24" fill="none" xmlns="http://www.w3.org/2000/svg">
<g clip-path="url(#clip0)">
<path d="M13.4066 12.0062L23.6944 1.71843C24.0915 1.33495 24.1025 0.702221 23.719 0.305155C23.3356 -0.0919108 22.7028 -0.102921 22.3058 0.280558C22.2975 0.288581 22.2893 0.29678 22.2812 0.305155L11.9933 10.593L1.70545 0.305097C1.30838 -0.0783825 0.675652 -0.0673724 0.292173 0.329694C-0.0819367 0.717038 -0.0819367 1.33108 0.292173 1.71843L10.58 12.0062L0.292173 22.2941C-0.0980419 22.6843 -0.0980419 23.3171 0.292173 23.7073C0.682446 24.0975 1.31518 24.0975 1.70545 23.7073L11.9933 13.4195L22.2811 23.7073C22.6782 24.0908 23.3109 24.0798 23.6944 23.6827C24.0684 23.2954 24.0684 22.6813 23.6944 22.2941L13.4066 12.0062Z" fill="#989898"/>
</g>
<defs>
<clipPath id="clip0">
<rect width="24" height="24" fill="white"/>
</clipPath>
</defs>
</svg>
