<svg width="72" height="72" viewBox="0 0 72 72" fill="none" xmlns="http://www.w3.org/2000/svg">
<g clip-path="url(#clip0)">
<path d="M70.7433 54.2188C70.7704 54.2134 70.7968 54.2061 70.8235 54.1993C70.8461 54.1934 70.869 54.1887 70.8913 54.1818C70.9173 54.1739 70.9427 54.1641 70.9681 54.1549C70.9906 54.1468 71.0133 54.1395 71.0356 54.1302C71.0595 54.1202 71.0827 54.1085 71.106 54.0975C71.1287 54.0866 71.1518 54.0766 71.174 54.0646C71.1963 54.0527 71.2173 54.0392 71.239 54.0263C71.2613 54.0129 71.2838 54.0005 71.3054 53.9859C71.3285 53.9705 71.35 53.9534 71.3722 53.9367C71.391 53.9228 71.4101 53.9097 71.4285 53.8947C71.4622 53.867 71.4942 53.8374 71.5255 53.807C71.5311 53.8016 71.5371 53.797 71.5428 53.7914C71.5486 53.7856 71.5536 53.7791 71.5592 53.7731C71.5892 53.7423 71.6183 53.7106 71.6458 53.6773C71.6618 53.6578 71.6758 53.6374 71.6908 53.6172C71.7062 53.5964 71.7224 53.5762 71.7368 53.5545C71.7522 53.5314 71.7657 53.5075 71.7799 53.4837C71.7918 53.4637 71.8045 53.4442 71.8155 53.4236C71.8284 53.3996 71.8392 53.3748 71.8507 53.3505C71.8609 53.3288 71.8717 53.3074 71.8811 53.2851C71.8911 53.2612 71.899 53.2368 71.9077 53.2124C71.9163 53.1887 71.9254 53.1652 71.9327 53.141C71.9402 53.1165 71.9456 53.0915 71.9519 53.0665C71.9579 53.0419 71.965 53.0178 71.9698 52.993C71.9756 52.9637 71.9791 52.9341 71.9833 52.9045C71.9862 52.8837 71.9902 52.8631 71.9922 52.8421C71.9974 52.7902 72.0002 52.7384 72.0002 52.6863V19.3114C72.0002 18.4489 71.3013 17.75 70.4387 17.75H21.2533C21.2395 17.75 21.2262 17.7517 21.2125 17.7521C21.1827 17.7529 21.1531 17.7542 21.1236 17.7567C21.1 17.7585 21.0767 17.7612 21.0534 17.7644C21.0267 17.7677 21.0003 17.7717 20.9739 17.7764C20.9491 17.7808 20.9245 17.786 20.9002 17.7916C20.8754 17.7975 20.8506 17.8037 20.826 17.8108C20.8017 17.8177 20.7777 17.8252 20.754 17.8331C20.7297 17.8414 20.7053 17.8501 20.6814 17.8597C20.6587 17.8687 20.6364 17.8778 20.6143 17.8878C20.5897 17.8989 20.5654 17.9107 20.5412 17.923C20.5206 17.9336 20.5004 17.9445 20.4804 17.9559C20.4563 17.9696 20.4326 17.9842 20.409 17.9992C20.3897 18.0117 20.3707 18.0246 20.352 18.0377C20.3299 18.0533 20.3081 18.0696 20.2866 18.0866C20.2671 18.1023 20.2479 18.1183 20.229 18.1347C20.2102 18.1512 20.1917 18.1676 20.1736 18.1851C20.153 18.2049 20.1332 18.2255 20.1136 18.2463C20.1038 18.2567 20.0934 18.2659 20.0841 18.2765C20.0784 18.2828 20.0741 18.2896 20.0686 18.2959C20.0491 18.3186 20.0308 18.3423 20.0124 18.3662C19.9991 18.3837 19.9854 18.4012 19.9729 18.4191C19.9566 18.4424 19.9416 18.4664 19.9267 18.4905C19.9144 18.5103 19.9017 18.5299 19.8904 18.5501C19.8773 18.5734 19.8659 18.5973 19.854 18.6213C19.8432 18.6431 19.8319 18.665 19.8221 18.6873C19.8119 18.7108 19.803 18.7352 19.794 18.7591C19.7851 18.7826 19.7759 18.806 19.7682 18.8297C19.7605 18.8536 19.7543 18.878 19.7476 18.9023C19.7409 18.9273 19.7339 18.9521 19.7282 18.9773C19.723 19.0008 19.7195 19.0248 19.7153 19.0485C19.7108 19.0756 19.7062 19.1026 19.7028 19.1297C19.7001 19.1522 19.6989 19.1751 19.6972 19.198C19.6951 19.2271 19.6933 19.2563 19.6929 19.2856C19.6926 19.2942 19.6916 19.3025 19.6916 19.311V28.9403C19.6916 29.8029 20.3905 30.5018 21.2531 30.5018C22.1156 30.5018 22.8145 29.8029 22.8145 28.9403V22.7789L36.697 35.0699C36.6245 35.1209 36.5548 35.1774 36.4898 35.2421L22.8143 48.9176V38.6563C22.8143 37.7937 22.1154 37.0948 21.2528 37.0948C20.3903 37.0948 19.6914 37.7937 19.6914 38.6563V40.5641H11.6239C10.7614 40.5641 10.0625 41.263 10.0625 42.1256C10.0625 42.9881 10.7614 43.687 11.6239 43.687H19.6914V52.6874C19.6914 53.5499 20.3903 54.2488 21.2528 54.2488H70.4383C70.4897 54.2488 70.5411 54.2461 70.5924 54.2411C70.6163 54.2388 70.6394 54.2343 70.6629 54.2309C70.69 54.2272 70.7167 54.224 70.7433 54.2188ZM68.8771 48.9179L55.2013 35.2423C55.1926 35.2336 55.1832 35.2263 55.1743 35.218L65.4554 26.4953C66.1129 25.9374 66.1937 24.9522 65.6357 24.2945C65.0782 23.6373 64.093 23.5561 63.4349 24.1142L45.8674 39.0187L25.3721 20.8731H68.8771V48.9179V48.9179ZM38.6983 37.4508C38.8097 37.3394 38.9001 37.2154 38.9706 37.0834L44.8106 42.2538C45.1059 42.5151 45.4756 42.6463 45.8458 42.6463C46.2051 42.6463 46.5643 42.5228 46.8561 42.2755L52.8077 37.226C52.8619 37.3051 52.9229 37.3807 52.993 37.4508L66.6686 51.1264H25.0228L38.6983 37.4508Z" fill="#E23414"/>
<path d="M1.56144 35.533H27.9326C28.7951 35.533 29.494 34.8341 29.494 33.9716C29.494 33.1091 28.7951 32.4102 27.9326 32.4102H1.56144C0.698902 32.4102 0 33.1091 0 33.9716C0 34.8341 0.698902 35.533 1.56144 35.533Z" fill="white"/>
<path d="M4.29386 26.9285H16.1348C16.9973 26.9285 17.6963 26.2296 17.6963 25.3671C17.6963 24.5046 16.9973 23.8057 16.1348 23.8057H4.29386C3.43132 23.8057 2.73242 24.5046 2.73242 25.3671C2.73242 26.2296 3.43132 26.9285 4.29386 26.9285Z" fill="white"/>
<path d="M13.012 47.1572H1.56144C0.698902 47.1572 0 47.8561 0 48.7187C0 49.5812 0.698902 50.2801 1.56144 50.2801H13.012C13.8746 50.2801 14.5735 49.5812 14.5735 48.7187C14.5735 47.8561 13.8746 47.1572 13.012 47.1572Z" fill="white"/>
</g>
<defs>
<clipPath id="clip0">
<rect width="72" height="72" fill="white"/>
</clipPath>
</defs>
</svg>
