<svg width="24" height="24" viewBox="0 0 24 24" fill="none" xmlns="http://www.w3.org/2000/svg">
<path d="M22.0118 3.78418C19.4018 1.30055 15.1537 1.30055 12.5429 3.78361L12 4.29924L11.4578 3.78385C8.84667 1.30046 4.59909 1.30074 1.98802 3.78385C0.705984 5.00325 0 6.62068 0 8.33771C0 10.0553 0.705984 11.6724 1.9882 12.8924L11.4203 21.847C11.5826 22.0014 11.7915 22.0783 12 22.0783C12.2085 22.0783 12.4171 22.0011 12.5797 21.8468L22.0118 12.8924C23.2937 11.6727 24 10.0553 24 8.33799C24 6.62068 23.2937 5.00354 22.0118 3.78418Z" fill="#E23414"/>
</svg>
