<svg width="24" height="24" viewBox="0 0 24 24" fill="none" xmlns="http://www.w3.org/2000/svg">
<path d="M22.0118 3.78466C19.4018 1.30104 15.1537 1.30104 12.5429 3.7841L12 4.29973L11.4578 3.78434C8.84667 1.30095 4.59909 1.30123 1.98802 3.78434C0.705984 5.00374 0 6.62116 0 8.33819C0 10.0558 0.705984 11.6729 1.9882 12.8929L11.4203 21.8475C11.5826 22.0019 11.7915 22.0788 12 22.0788C12.2085 22.0788 12.4171 22.0016 12.5797 21.8472L22.0118 12.8929C23.2937 11.6732 24 10.0558 24 8.33848C24 6.62116 23.2937 5.00402 22.0118 3.78466ZM20.8514 11.6718L12 20.0755L3.14892 11.6721C2.20434 10.7739 1.68422 9.58985 1.68422 8.33848C1.68422 7.0871 2.20434 5.90309 3.14892 5.00487C4.13419 4.06732 5.42822 3.59885 6.72253 3.59885C8.01713 3.59885 9.31172 4.06788 10.297 5.00543L11.4198 6.07184C11.7448 6.38088 12.2549 6.38088 12.5799 6.07184L13.703 5.00487C15.6738 3.13005 18.8803 3.13005 20.8511 5.00487C21.7954 5.90313 22.3158 7.0871 22.3158 8.33848C22.3158 9.58985 21.7954 10.7736 20.8514 11.6718Z" fill="#E23414"/>
</svg>
