<svg width="24" height="24" viewBox="0 0 24 24" fill="none" xmlns="http://www.w3.org/2000/svg">
<path d="M12.4644 7.36329C13.1116 7.36329 13.6362 6.83862 13.6362 6.19141C13.6362 5.5442 13.1116 5.01953 12.4644 5.01953C11.8172 5.01953 11.2925 5.5442 11.2925 6.19141C11.2925 6.83862 11.8172 7.36329 12.4644 7.36329Z" fill="#A5A5A5"/>
<path d="M20.4853 3.51469C18.2188 1.24823 15.2053 0 12 0C8.79469 0 5.78123 1.24823 3.51469 3.51469C1.24823 5.78123 0 8.79469 0 12C0 15.2053 1.24823 18.2188 3.51469 20.4853C5.78123 22.7518 8.79469 24 12 24C15.2053 24 18.2188 22.7518 20.4853 20.4853C22.7518 18.2188 24 15.2053 24 12C24 8.79469 22.7518 5.78123 20.4853 3.51469ZM12 22.125C6.41705 22.125 1.875 17.583 1.875 12C1.875 6.41705 6.41705 1.875 12 1.875C17.583 1.875 22.125 6.41705 22.125 12C22.125 17.583 17.583 22.125 12 22.125Z" fill="#A5A5A5"/>
<path d="M13.0561 17.1602C12.8675 17.2523 12.7175 17.1765 12.645 17.1231C12.5725 17.0698 12.4555 16.9494 12.4875 16.7401L13.292 11.3838C13.4199 10.5453 13.0748 9.71221 12.3915 9.20967C11.7079 8.70698 10.8096 8.62588 10.0472 8.99793L8.88965 9.56249L9.71123 11.2479L10.8694 10.683C11.058 10.591 11.208 10.6668 11.2806 10.7202C11.3531 10.7735 11.47 10.8939 11.4381 11.1031L10.6335 16.4595C10.5056 17.298 10.8507 18.131 11.5341 18.6336C11.9329 18.9269 12.4047 19.0766 12.8801 19.0766C13.2195 19.0766 13.5607 19.0003 13.8783 18.8453L15.0359 18.2807L14.2142 16.5953L13.0561 17.1602Z" fill="#A5A5A5"/>
</svg>
