<svg width="16" height="16" viewBox="0 0 16 16" fill="none" xmlns="http://www.w3.org/2000/svg">
<path d="M15.9953 2.63567C15.9937 2.60267 15.9873 2.571 15.9807 2.53833C15.974 2.50533 15.968 2.473 15.9567 2.44167C15.953 2.43167 15.9533 2.42133 15.9493 2.41167C15.941 2.392 15.927 2.37633 15.917 2.35767C15.901 2.32733 15.885 2.298 15.8647 2.27067C15.8453 2.24467 15.8233 2.22233 15.8003 2.19967C15.7777 2.177 15.7553 2.155 15.7293 2.13533C15.702 2.115 15.6727 2.099 15.6423 2.083C15.6237 2.073 15.6083 2.05867 15.5883 2.05067C15.5787 2.04667 15.568 2.04667 15.5583 2.043C15.5273 2.03167 15.4957 2.02567 15.463 2.019C15.4297 2.01233 15.3973 2.00567 15.3637 2.004C15.3533 2.004 15.3437 2 15.3333 2H0.666667C0.656 2 0.646 2.00433 0.635333 2.00467C0.602333 2.00633 0.570667 2.01267 0.538 2.01933C0.505 2.026 0.472667 2.032 0.441333 2.04333C0.431333 2.047 0.421 2.04667 0.411333 2.05067C0.391667 2.059 0.376 2.073 0.357333 2.083C0.327 2.099 0.297667 2.115 0.270333 2.13533C0.244333 2.15467 0.222 2.17667 0.199333 2.19967C0.176667 2.22233 0.154667 2.24467 0.135 2.27067C0.114667 2.298 0.0986667 2.32733 0.0826667 2.35767C0.0726667 2.37633 0.0583333 2.39167 0.0503333 2.41167C0.0463333 2.42133 0.0463333 2.43167 0.043 2.44167C0.0316667 2.473 0.0256667 2.50533 0.019 2.53833C0.0126667 2.571 0.006 2.60267 0.00433333 2.63567C0.004 2.64633 0 2.656 0 2.66667V13.3333C0 13.377 0.00466667 13.4207 0.013 13.464C0.017 13.4837 0.0243333 13.502 0.03 13.521C0.0366667 13.5437 0.042 13.5663 0.051 13.5883C0.0603333 13.6107 0.073 13.631 0.0846667 13.6523C0.094 13.6693 0.101333 13.687 0.112333 13.7033C0.161 13.7763 0.224 13.8393 0.297 13.888C0.313333 13.899 0.331333 13.9067 0.348667 13.916C0.369667 13.9273 0.389667 13.94 0.412 13.9493C0.434 13.9583 0.457 13.9637 0.479667 13.9703C0.498667 13.976 0.517 13.9833 0.536667 13.9873C0.579333 13.9953 0.623 14 0.666667 14H15.3333C15.377 14 15.4207 13.9953 15.464 13.987C15.4837 13.983 15.502 13.9757 15.521 13.97C15.5437 13.9633 15.5667 13.958 15.5887 13.949C15.6107 13.9397 15.631 13.9273 15.652 13.9157C15.6693 13.9063 15.687 13.8987 15.7037 13.8877C15.7767 13.8387 15.8397 13.776 15.8883 13.703C15.8993 13.6867 15.9067 13.669 15.916 13.652C15.9277 13.631 15.9403 13.6107 15.9497 13.588C15.9587 13.566 15.964 13.5433 15.9707 13.5207C15.9763 13.5017 15.9837 13.4833 15.9877 13.4637C15.9953 13.4207 16 13.377 16 13.3333V2.66667C16 2.656 15.996 2.64633 15.9953 2.63567ZM13.7237 3.33333L8.66933 8.388C8.30033 8.75667 7.7 8.75667 7.33067 8.388L2.27633 3.33333H13.7237ZM1.33333 4.27633L5.05733 8L1.33333 11.724V4.27633ZM2.276 12.6667L6 8.94267L6.388 9.33067C6.44367 9.38633 6.50133 9.43833 6.561 9.487C7.39567 10.1677 8.60433 10.1677 9.439 9.487C9.49867 9.43833 9.55633 9.38633 9.612 9.33067L10 8.94267L13.724 12.6667H2.276ZM14.6667 11.724L10.9427 8L14.6667 4.27633V11.724Z" fill="#404040"/>
</svg>
