<svg width="72" height="72" viewBox="0 0 72 72" fill="none" xmlns="http://www.w3.org/2000/svg">
<path d="M64.2656 14.2031H50.1767L48.8066 10.0927C47.9437 7.50445 45.531 5.76562 42.803 5.76562H29.197C26.469 5.76562 24.0563 7.50445 23.1936 10.0927L21.8233 14.2031H18.4219V10.6875C18.4219 7.97358 16.2139 5.76562 13.5 5.76562H10.6875C7.97358 5.76562 5.76562 7.97358 5.76562 10.6875V14.4579C2.45138 15.3309 0 18.353 0 21.9375V58.5C0 62.7647 3.46964 66.2344 7.73438 66.2344H64.2656C68.5304 66.2344 72 62.7647 72 58.5V21.9375C72 17.6728 68.5304 14.2031 64.2656 14.2031ZM9.98438 10.6875C9.98438 10.2998 10.2998 9.98438 10.6875 9.98438H13.5C13.8877 9.98438 14.2031 10.2998 14.2031 10.6875V14.2031H9.98438V10.6875ZM67.7812 58.5C67.7812 60.4385 66.2041 62.0156 64.2656 62.0156H7.73438C5.79586 62.0156 4.21875 60.4385 4.21875 58.5V21.9375C4.21875 19.999 5.79586 18.4219 7.73438 18.4219H23.3438C24.2516 18.4219 25.0577 17.841 25.3448 16.9795L27.1957 11.4268C27.4835 10.564 28.2876 9.98438 29.197 9.98438H42.803C43.7124 9.98438 44.5167 10.564 44.8041 11.4266L46.655 16.9795C46.9423 17.841 47.7484 18.4219 48.6562 18.4219H64.2656C66.2041 18.4219 67.7812 19.999 67.7812 21.9375V58.5Z" fill="#EFEFEF"/>
<path d="M61.3125 26.8594C62.4775 26.8594 63.4219 25.915 63.4219 24.75C63.4219 23.585 62.4775 22.6406 61.3125 22.6406C60.1475 22.6406 59.2031 23.585 59.2031 24.75C59.2031 25.915 60.1475 26.8594 61.3125 26.8594Z" fill="#EFEFEF"/>
<path d="M14.9062 22.6406H10.6875C9.52256 22.6406 8.57812 23.5851 8.57812 24.75C8.57812 25.9149 9.52256 26.8594 10.6875 26.8594H14.9062C16.0712 26.8594 17.0156 25.9149 17.0156 24.75C17.0156 23.5851 16.0712 22.6406 14.9062 22.6406Z" fill="#EFEFEF"/>
<path d="M36 57.7969C25.532 57.7969 17.0156 49.2805 17.0156 38.8125C17.0156 28.3445 25.532 19.8281 36 19.8281C46.468 19.8281 54.9844 28.3445 54.9844 38.8125C54.9844 49.2805 46.468 57.7969 36 57.7969ZM36 24.0469C27.8582 24.0469 21.2344 30.6707 21.2344 38.8125C21.2344 46.9543 27.8582 53.5781 36 53.5781C44.1418 53.5781 50.7656 46.9543 50.7656 38.8125C50.7656 30.6707 44.1418 24.0469 36 24.0469Z" fill="#EFEFEF"/>
<path d="M36 49.3594C30.1845 49.3594 25.4531 44.628 25.4531 38.8125C25.4531 32.997 30.1845 28.2656 36 28.2656C41.8155 28.2656 46.5469 32.997 46.5469 38.8125C46.5469 44.628 41.8155 49.3594 36 49.3594ZM36 32.4844C32.5107 32.4844 29.6719 35.3232 29.6719 38.8125C29.6719 42.3018 32.5107 45.1406 36 45.1406C39.4893 45.1406 42.3281 42.3018 42.3281 38.8125C42.3281 35.3232 39.4893 32.4844 36 32.4844Z" fill="#EFEFEF"/>
</svg>
