<svg width="146" height="120" viewBox="0 0 146 120" fill="none" xmlns="http://www.w3.org/2000/svg">
<rect width="146" height="120" fill="white"/>
<path d="M97.3398 28.2305H85.2077L84.0279 24.6909C83.2849 22.4622 81.2073 20.9648 78.8582 20.9648H67.1418C64.7928 20.9648 62.7151 22.4622 61.9722 24.6909L60.7923 28.2305H57.8633V25.2031C57.8633 22.8661 55.962 20.9648 53.625 20.9648H51.2031C48.8661 20.9648 46.9648 22.8661 46.9648 25.2031V28.4499C44.1109 29.2016 42 31.8039 42 34.8906V66.375C42 70.0474 44.9877 73.0352 48.6602 73.0352H97.3398C101.012 73.0352 104 70.0474 104 66.375V34.8906C104 31.2182 101.012 28.2305 97.3398 28.2305ZM50.5977 25.2031C50.5977 24.8693 50.8693 24.5977 51.2031 24.5977H53.625C53.9589 24.5977 54.2305 24.8693 54.2305 25.2031V28.2305H50.5977V25.2031ZM100.367 66.375C100.367 68.0443 99.0091 69.4023 97.3398 69.4023H48.6602C46.9909 69.4023 45.6328 68.0443 45.6328 66.375V34.8906C45.6328 33.2213 46.9909 31.8633 48.6602 31.8633H62.1016C62.8833 31.8633 63.5775 31.363 63.8247 30.6212L65.4186 25.8397C65.6663 25.0968 66.3587 24.5977 67.1418 24.5977H78.8582C79.6413 24.5977 80.3338 25.0968 80.5813 25.8396L82.1752 30.6212C82.4225 31.363 83.1167 31.8633 83.8984 31.8633H97.3398C99.0091 31.8633 100.367 33.2213 100.367 34.8906V66.375Z" fill="#EFEFEF"/>
<path d="M94.7969 39.1289C95.8 39.1289 96.6133 38.3157 96.6133 37.3125C96.6133 36.3093 95.8 35.4961 94.7969 35.4961C93.7937 35.4961 92.9805 36.3093 92.9805 37.3125C92.9805 38.3157 93.7937 39.1289 94.7969 39.1289Z" fill="#EFEFEF"/>
<path d="M54.8359 35.4961H51.2031C50.2 35.4961 49.3867 36.3094 49.3867 37.3125C49.3867 38.3156 50.2 39.1289 51.2031 39.1289H54.8359C55.8391 39.1289 56.6523 38.3156 56.6523 37.3125C56.6523 36.3094 55.8391 35.4961 54.8359 35.4961Z" fill="#EFEFEF"/>
<path d="M73 65.7695C63.9859 65.7695 56.6523 58.436 56.6523 49.4219C56.6523 40.4078 63.9859 33.0742 73 33.0742C82.0141 33.0742 89.3477 40.4078 89.3477 49.4219C89.3477 58.436 82.0141 65.7695 73 65.7695ZM73 36.707C65.989 36.707 60.2852 42.4109 60.2852 49.4219C60.2852 56.4328 65.989 62.1367 73 62.1367C80.011 62.1367 85.7148 56.4328 85.7148 49.4219C85.7148 42.4109 80.011 36.707 73 36.707Z" fill="#EFEFEF"/>
<path d="M73 58.5039C67.9922 58.5039 63.918 54.4297 63.918 49.4219C63.918 44.414 67.9922 40.3398 73 40.3398C78.0078 40.3398 82.082 44.414 82.082 49.4219C82.082 54.4297 78.0078 58.5039 73 58.5039ZM73 43.9727C69.9953 43.9727 67.5508 46.4172 67.5508 49.4219C67.5508 52.4266 69.9953 54.8711 73 54.8711C76.0047 54.8711 78.4492 52.4266 78.4492 49.4219C78.4492 46.4172 76.0047 43.9727 73 43.9727Z" fill="#EFEFEF"/>
<path d="M47.6134 87H45.797V79.9453H43.4709V78.4336H49.9396V79.9453H47.6134V87ZM53.0812 83.7129C53.0812 84.3613 53.1866 84.8516 53.3976 85.1836C53.6124 85.5156 53.9601 85.6816 54.4405 85.6816C54.9171 85.6816 55.2589 85.5176 55.4659 85.1895C55.6769 84.8574 55.7823 84.3652 55.7823 83.7129C55.7823 83.0645 55.6769 82.5781 55.4659 82.2539C55.255 81.9297 54.9093 81.7676 54.4288 81.7676C53.9523 81.7676 53.6085 81.9297 53.3976 82.2539C53.1866 82.5742 53.0812 83.0605 53.0812 83.7129ZM57.6105 83.7129C57.6105 84.7793 57.3292 85.6133 56.7667 86.2148C56.2042 86.8164 55.421 87.1172 54.4171 87.1172C53.7882 87.1172 53.2335 86.9805 52.753 86.707C52.2726 86.4297 51.9034 86.0332 51.6456 85.5176C51.3878 85.002 51.2589 84.4004 51.2589 83.7129C51.2589 82.6426 51.5382 81.8105 52.0968 81.2168C52.6554 80.623 53.4405 80.3262 54.4523 80.3262C55.0812 80.3262 55.6359 80.4629 56.1163 80.7363C56.5968 81.0098 56.9659 81.4023 57.2238 81.9141C57.4816 82.4258 57.6105 83.0254 57.6105 83.7129ZM65.6739 82.166C65.6739 82.5176 65.5626 82.8184 65.3399 83.0684C65.1212 83.3145 64.797 83.4727 64.3673 83.543V83.5898C64.8321 83.6445 65.1993 83.8047 65.4688 84.0703C65.7423 84.332 65.879 84.6562 65.879 85.043C65.879 85.6797 65.629 86.166 65.129 86.502C64.629 86.834 63.9141 87 62.9845 87H59.627V80.4492H62.9845C63.8829 80.4492 64.5548 80.5957 65.0001 80.8887C65.4493 81.1777 65.6739 81.6035 65.6739 82.166ZM64.0274 84.9492C64.0274 84.6914 63.9278 84.5059 63.7286 84.3926C63.5294 84.2754 63.2305 84.2168 62.8321 84.2168H61.4141V85.7637H62.8673C63.2462 85.7637 63.5333 85.6934 63.7286 85.5527C63.9278 85.4082 64.0274 85.207 64.0274 84.9492ZM63.8634 82.3066C63.8634 81.9082 63.547 81.709 62.9141 81.709H61.4141V83.0039H62.7091C63.088 83.0039 63.3751 82.9492 63.5704 82.8398C63.7657 82.7305 63.8634 82.5527 63.8634 82.3066ZM72.003 87L71.6573 86.1094H71.6104C71.3096 86.4883 70.9991 86.752 70.6787 86.9004C70.3623 87.0449 69.9483 87.1172 69.4366 87.1172C68.8077 87.1172 68.3116 86.9375 67.9483 86.5781C67.5889 86.2188 67.4092 85.707 67.4092 85.043C67.4092 84.3477 67.6514 83.8359 68.1358 83.5078C68.6241 83.1758 69.3584 82.9922 70.3389 82.957L71.4756 82.9219V82.6348C71.4756 81.9707 71.1358 81.6387 70.4561 81.6387C69.9327 81.6387 69.3174 81.7969 68.6104 82.1133L68.0186 80.9062C68.7725 80.5117 69.6084 80.3145 70.5264 80.3145C71.4053 80.3145 72.0791 80.5059 72.5479 80.8887C73.0166 81.2715 73.251 81.8535 73.251 82.6348V87H72.003ZM71.4756 83.9648L70.7842 83.9883C70.2647 84.0039 69.878 84.0977 69.6241 84.2695C69.3702 84.4414 69.2432 84.7031 69.2432 85.0547C69.2432 85.5586 69.5323 85.8105 70.1104 85.8105C70.5245 85.8105 70.8545 85.6914 71.1006 85.4531C71.3506 85.2148 71.4756 84.8984 71.4756 84.5039V83.9648ZM79.2344 87.1172C78.4648 87.1172 77.8613 86.8379 77.4238 86.2793H77.3301C77.3926 86.8262 77.4238 87.1426 77.4238 87.2285V89.8828H75.6367V80.4492H77.0898L77.3418 81.2988H77.4238C77.8418 80.6504 78.4609 80.3262 79.2812 80.3262C80.0547 80.3262 80.6602 80.625 81.0977 81.2227C81.5352 81.8203 81.7539 82.6504 81.7539 83.7129C81.7539 84.4121 81.6504 85.0195 81.4434 85.5352C81.2402 86.0508 80.9492 86.4434 80.5703 86.7129C80.1914 86.9824 79.7461 87.1172 79.2344 87.1172ZM78.707 81.7559C78.2656 81.7559 77.9434 81.8926 77.7402 82.166C77.5371 82.4355 77.4316 82.8828 77.4238 83.5078V83.7012C77.4238 84.4043 77.5273 84.9082 77.7344 85.2129C77.9453 85.5176 78.2773 85.6699 78.7305 85.6699C79.5312 85.6699 79.9316 85.0098 79.9316 83.6895C79.9316 83.0449 79.832 82.5625 79.6328 82.2422C79.4375 81.918 79.1289 81.7559 78.707 81.7559ZM89.2148 80.4492V82.9688H91.7109V80.4492H93.498V87H91.7109V84.2988H89.2148V87H87.4277V80.4492H89.2148ZM100.073 87L99.7274 86.1094H99.6805C99.3798 86.4883 99.0692 86.752 98.7489 86.9004C98.4325 87.0449 98.0184 87.1172 97.5067 87.1172C96.8778 87.1172 96.3817 86.9375 96.0184 86.5781C95.6591 86.2188 95.4794 85.707 95.4794 85.043C95.4794 84.3477 95.7216 83.8359 96.2059 83.5078C96.6942 83.1758 97.4286 82.9922 98.4091 82.957L99.5458 82.9219V82.6348C99.5458 81.9707 99.2059 81.6387 98.5262 81.6387C98.0028 81.6387 97.3876 81.7969 96.6805 82.1133L96.0887 80.9062C96.8427 80.5117 97.6786 80.3145 98.5966 80.3145C99.4755 80.3145 100.149 80.5059 100.618 80.8887C101.087 81.2715 101.321 81.8535 101.321 82.6348V87H100.073ZM99.5458 83.9648L98.8544 83.9883C98.3348 84.0039 97.9481 84.0977 97.6942 84.2695C97.4403 84.4414 97.3134 84.7031 97.3134 85.0547C97.3134 85.5586 97.6024 85.8105 98.1805 85.8105C98.5946 85.8105 98.9247 85.6914 99.1708 85.4531C99.4208 85.2148 99.5458 84.8984 99.5458 84.5039V83.9648ZM39.1989 93.4141C40.2927 93.5039 41.1501 93.8418 41.7712 94.4277C42.3923 95.0137 42.7028 95.7793 42.7028 96.7246C42.7028 97.6895 42.3962 98.4629 41.7829 99.0449C41.1696 99.623 40.3083 99.957 39.1989 100.047V102.883H37.5407V100.047C36.4352 99.9453 35.57 99.5996 34.945 99.0098C34.3239 98.416 34.0134 97.6543 34.0134 96.7246C34.0134 95.7363 34.3141 94.957 34.9157 94.3867C35.5173 93.8125 36.3923 93.4883 37.5407 93.4141V90.8828H39.1989V93.4141ZM35.8532 96.7246C35.8532 97.2754 36.0036 97.7246 36.3044 98.0723C36.6052 98.416 37.0173 98.623 37.5407 98.6934V94.7559C37.0368 94.8223 36.6286 95.0352 36.3161 95.3945C36.0075 95.7539 35.8532 96.1973 35.8532 96.7246ZM40.8688 96.7246C40.8688 96.209 40.7223 95.7754 40.4294 95.4238C40.1364 95.0684 39.7262 94.8535 39.1989 94.7793V98.6934C39.7184 98.623 40.1266 98.4141 40.4235 98.0664C40.7204 97.7188 40.8688 97.2715 40.8688 96.7246ZM46.1491 96.7129C46.1491 97.3613 46.2545 97.8516 46.4655 98.1836C46.6803 98.5156 47.028 98.6816 47.5084 98.6816C47.985 98.6816 48.3268 98.5176 48.5338 98.1895C48.7448 97.8574 48.8502 97.3652 48.8502 96.7129C48.8502 96.0645 48.7448 95.5781 48.5338 95.2539C48.3229 94.9297 47.9772 94.7676 47.4967 94.7676C47.0202 94.7676 46.6764 94.9297 46.4655 95.2539C46.2545 95.5742 46.1491 96.0605 46.1491 96.7129ZM50.6784 96.7129C50.6784 97.7793 50.3971 98.6133 49.8346 99.2148C49.2721 99.8164 48.4889 100.117 47.485 100.117C46.8561 100.117 46.3014 99.9805 45.8209 99.707C45.3405 99.4297 44.9713 99.0332 44.7135 98.5176C44.4557 98.002 44.3268 97.4004 44.3268 96.7129C44.3268 95.6426 44.6061 94.8105 45.1647 94.2168C45.7233 93.623 46.5084 93.3262 47.5202 93.3262C48.1491 93.3262 48.7038 93.4629 49.1842 93.7363C49.6647 94.0098 50.0338 94.4023 50.2916 94.9141C50.5495 95.4258 50.6784 96.0254 50.6784 96.7129ZM58.1148 93.4492V94.791H55.9703V100H54.1832V94.791H52.0328V93.4492H58.1148ZM61.3033 96.7129C61.3033 97.3613 61.4088 97.8516 61.6197 98.1836C61.8345 98.5156 62.1822 98.6816 62.6627 98.6816C63.1392 98.6816 63.481 98.5176 63.688 98.1895C63.899 97.8574 64.0045 97.3652 64.0045 96.7129C64.0045 96.0645 63.899 95.5781 63.688 95.2539C63.4771 94.9297 63.1314 94.7676 62.6509 94.7676C62.1744 94.7676 61.8306 94.9297 61.6197 95.2539C61.4088 95.5742 61.3033 96.0605 61.3033 96.7129ZM65.8326 96.7129C65.8326 97.7793 65.5513 98.6133 64.9888 99.2148C64.4263 99.8164 63.6431 100.117 62.6392 100.117C62.0103 100.117 61.4556 99.9805 60.9752 99.707C60.4947 99.4297 60.1255 99.0332 59.8677 98.5176C59.6099 98.002 59.481 97.4004 59.481 96.7129C59.481 95.6426 59.7603 94.8105 60.3189 94.2168C60.8775 93.623 61.6627 93.3262 62.6744 93.3262C63.3033 93.3262 63.858 93.4629 64.3384 93.7363C64.8189 94.0098 65.188 94.4023 65.4459 94.9141C65.7037 95.4258 65.8326 96.0254 65.8326 96.7129ZM70.5093 100.117C68.4702 100.117 67.4507 98.998 67.4507 96.7598C67.4507 95.6465 67.728 94.7969 68.2827 94.2109C68.8374 93.6211 69.6323 93.3262 70.6675 93.3262C71.4253 93.3262 72.105 93.4746 72.7066 93.7715L72.1792 95.1543C71.898 95.041 71.6362 94.9492 71.3941 94.8789C71.1519 94.8047 70.9097 94.7676 70.6675 94.7676C69.7378 94.7676 69.273 95.4277 69.273 96.748C69.273 98.0293 69.7378 98.6699 70.6675 98.6699C71.0112 98.6699 71.3296 98.625 71.6226 98.5352C71.9155 98.4414 72.2085 98.2969 72.5015 98.1016V99.6309C72.2124 99.8145 71.9195 99.9414 71.6226 100.012C71.3296 100.082 70.9585 100.117 70.5093 100.117ZM77.2778 94.5977C76.8989 94.5977 76.602 94.7188 76.3872 94.9609C76.1723 95.1992 76.0493 95.5391 76.0181 95.9805H78.5259C78.5181 95.5391 78.4028 95.1992 78.1802 94.9609C77.9575 94.7188 77.6567 94.5977 77.2778 94.5977ZM77.5298 100.117C76.4751 100.117 75.6509 99.8262 75.0571 99.2441C74.4634 98.6621 74.1665 97.8379 74.1665 96.7715C74.1665 95.6738 74.4399 94.8262 74.9868 94.2285C75.5376 93.627 76.2973 93.3262 77.2661 93.3262C78.1919 93.3262 78.9126 93.5898 79.4282 94.1172C79.9438 94.6445 80.2016 95.373 80.2016 96.3027V97.1699H75.977C75.9966 97.6777 76.147 98.0742 76.4282 98.3594C76.7095 98.6445 77.104 98.7871 77.6118 98.7871C78.0063 98.7871 78.3794 98.7461 78.7309 98.6641C79.0825 98.582 79.4497 98.4512 79.8325 98.2715V99.6543C79.52 99.8105 79.186 99.9258 78.8306 100C78.4751 100.078 78.0415 100.117 77.5298 100.117ZM84.8549 100.117C82.8159 100.117 81.7963 98.998 81.7963 96.7598C81.7963 95.6465 82.0737 94.7969 82.6284 94.2109C83.183 93.6211 83.978 93.3262 85.0131 93.3262C85.7709 93.3262 86.4506 93.4746 87.0522 93.7715L86.5248 95.1543C86.2436 95.041 85.9819 94.9492 85.7397 94.8789C85.4975 94.8047 85.2553 94.7676 85.0131 94.7676C84.0834 94.7676 83.6186 95.4277 83.6186 96.748C83.6186 98.0293 84.0834 98.6699 85.0131 98.6699C85.3569 98.6699 85.6752 98.625 85.9682 98.5352C86.2612 98.4414 86.5541 98.2969 86.8471 98.1016V99.6309C86.558 99.8145 86.2651 99.9414 85.9682 100.012C85.6752 100.082 85.3041 100.117 84.8549 100.117ZM91.5707 100.117C89.5316 100.117 88.5121 98.998 88.5121 96.7598C88.5121 95.6465 88.7895 94.7969 89.3441 94.2109C89.8988 93.6211 90.6937 93.3262 91.7289 93.3262C92.4867 93.3262 93.1664 93.4746 93.768 93.7715L93.2406 95.1543C92.9594 95.041 92.6977 94.9492 92.4555 94.8789C92.2133 94.8047 91.9711 94.7676 91.7289 94.7676C90.7992 94.7676 90.3344 95.4277 90.3344 96.748C90.3344 98.0293 90.7992 98.6699 91.7289 98.6699C92.0727 98.6699 92.391 98.625 92.684 98.5352C92.977 98.4414 93.2699 98.2969 93.5629 98.1016V99.6309C93.2738 99.8145 92.9809 99.9414 92.684 100.012C92.391 100.082 92.0199 100.117 91.5707 100.117ZM97.3548 93.4492V96.0391C97.3548 96.3125 97.3099 96.9805 97.2201 98.043L100.244 93.4492H102.394V100H100.665V97.3867C100.665 96.9219 100.704 96.2656 100.783 95.418L97.7709 100H95.6263V93.4492H97.3548ZM106.543 93.4492V96.0391C106.543 96.3125 106.498 96.9805 106.409 98.043L109.432 93.4492H111.582V100H109.854V97.3867C109.854 96.9219 109.893 96.2656 109.971 95.418L106.959 100H104.815V93.4492H106.543Z" fill="#C5C5C5"/>
</svg>
