<svg width="16" height="16" viewBox="0 0 16 16" fill="none" xmlns="http://www.w3.org/2000/svg">
<g clip-path="url(#clip0)">
<path d="M0.778193 2.08884L2.87425 0L7.22724 4.34577L5.53971 6.08858C5.82253 6.59064 6.43615 7.55236 7.48193 8.59811C8.52783 9.64404 9.49658 10.2647 10.0034 10.552L11.712 8.86514L15.9971 13.1247L13.9124 15.2232C13.1156 16.02 11.9031 16.2265 10.8954 15.7371C9.35758 14.9902 7.03674 13.6121 4.71297 11.2883C2.38925 8.96458 1.01116 6.64371 0.264225 5.1059C0.087257 4.74152 0.00128841 4.35043 0.00128841 3.96187C0.00128841 3.27574 0.269444 2.59756 0.778193 2.08884ZM1.38775 4.56015C2.09282 6.0118 3.39525 8.20417 5.59618 10.4051C7.79718 12.6061 9.98952 13.9085 11.4411 14.6135C11.9703 14.8706 12.6086 14.7606 13.0278 14.3414L14.231 13.1302L11.709 10.6233L10.2534 12.0603L9.86393 11.8869C9.80064 11.8587 8.29446 11.1771 6.59865 9.48133C4.90172 7.78439 4.23434 6.29096 4.20678 6.22818L4.03791 5.84396L5.47422 4.36062L2.87338 1.76406L1.66075 2.97246C1.2406 3.39324 1.13082 4.03121 1.38775 4.56015Z" fill="#989898"/>
</g>
<defs>
<clipPath id="clip0">
<rect width="16" height="16" fill="white" transform="matrix(-1 0 0 1 16 0)"/>
</clipPath>
</defs>
</svg>
