<svg width="24" height="24" viewBox="0 0 24 24" fill="none" xmlns="http://www.w3.org/2000/svg">
<g clip-path="url(#clip0)">
<path d="M20.7164 19.2678C20.7164 17.8543 19.5705 16.7084 18.157 16.7084C16.7435 16.7084 15.5977 17.8543 15.5977 19.2678C15.5977 20.6813 16.7435 21.8271 18.157 21.8271C19.5705 21.8271 20.7164 20.6813 20.7164 19.2678Z" fill="#FF8F7B"/>
<path d="M18.4465 2.80114C18.4465 1.57434 17.452 0.579826 16.2252 0.579826C14.9984 0.579826 14.0039 1.57434 14.0039 2.80114C14.0039 4.02794 14.9984 5.02246 16.2252 5.02246C17.452 5.02246 18.4465 4.02794 18.4465 2.80114Z" fill="#FF4B2C"/>
<path d="M7.24326 4.82905C7.24326 3.8156 6.4217 2.99404 5.40825 2.99404C4.3948 2.99404 3.57324 3.8156 3.57324 4.82905C3.57324 5.8425 4.3948 6.66406 5.40825 6.66406C6.4217 6.66406 7.24326 5.8425 7.24326 4.82905Z" fill="#FF2600"/>
<path d="M14.4696 21.2839C14.4696 19.7839 13.2832 18.5679 11.8198 18.5679C10.3563 18.5679 9.16992 19.7839 9.16992 21.2839C9.16992 22.784 10.3563 24 11.8198 24C13.2832 24 14.4696 22.784 14.4696 21.2839Z" fill="#FFC1B6"/>
<path d="M23.9996 13.481C23.9996 12.1174 22.9224 11.0119 21.5935 11.0119C20.2647 11.0119 19.1875 12.1174 19.1875 13.481C19.1875 14.8447 20.2647 15.9502 21.5935 15.9502C22.9224 15.9502 23.9996 14.8447 23.9996 13.481Z" fill="#FF6E55"/>
<path d="M22.9459 7.13675C22.9459 5.84127 21.9233 4.79108 20.6619 4.79108C19.4005 4.79108 18.3779 5.84127 18.3779 7.13675C18.3779 8.43223 19.4005 9.48242 20.6619 9.48242C21.9233 9.48242 22.9459 8.43223 22.9459 7.13675Z" fill="#FF5C40"/>
<path d="M8.31583 18.3461C8.31583 16.7779 7.07491 15.5066 5.54415 15.5066C4.01339 15.5066 2.77246 16.7779 2.77246 18.3461C2.77246 19.9143 4.01339 21.1855 5.54415 21.1855C7.07491 21.1855 8.31583 19.9143 8.31583 18.3461Z" fill="#FFE2DD"/>
<path d="M12.5132 2.09851C12.5132 0.939396 11.591 -0.000250002 10.4534 -0.000249953C9.31578 -0.000249903 8.39355 0.939396 8.39355 2.09851C8.39355 3.25762 9.31578 4.19727 10.4534 4.19727C11.591 4.19727 12.5132 3.25762 12.5132 2.09851Z" fill="#FF3916"/>
<path d="M5.98793 11.3C5.98793 9.64644 4.64748 8.306 2.99396 8.306C1.34044 8.306 -2.03149e-07 9.64644 -1.30871e-07 11.3C-5.85928e-08 12.9535 1.34044 14.2939 2.99396 14.2939C4.64748 14.2939 5.98793 12.9535 5.98793 11.3Z" fill="white"/>
</g>
<defs>
<clipPath id="clip0">
<rect width="24" height="24" fill="white" transform="translate(0 24) rotate(-90)"/>
</clipPath>
</defs>
</svg>
