<svg width="20" height="20" viewBox="0 0 20 20" fill="none" xmlns="http://www.w3.org/2000/svg">
<path d="M17.8568 0H8.57112C7.38765 0 6.42826 0.959388 6.42826 2.14286V6.42857C6.42826 6.82307 6.74806 7.14287 7.14256 7.14287C7.53707 7.14287 7.85686 6.82307 7.85686 6.42857V2.14286C7.85686 1.74835 8.17666 1.42856 8.57116 1.42856H17.8569C18.2514 1.42856 18.5712 1.74835 18.5712 2.14286V17.8571C18.5712 18.2516 18.2514 18.5714 17.8569 18.5714H8.57112C8.17662 18.5714 7.85682 18.2516 7.85682 17.8571V13.5714C7.85682 13.1769 7.53702 12.8571 7.14252 12.8571C6.74802 12.8571 6.42822 13.1769 6.42822 13.5714V17.8571C6.42822 19.0406 7.38761 20 8.57108 20H17.8568C19.0403 20 19.9996 19.0406 19.9996 17.8571V2.14286C19.9997 0.959388 19.0403 0 17.8568 0Z" fill="#989898"/>
<path d="M14.2853 9.28626H2.43822L4.79038 6.9341C5.06443 6.65034 5.05656 6.19817 4.7728 5.92412C4.49599 5.6568 4.05716 5.6568 3.78039 5.92412L0.208935 9.49553C0.142599 9.5619 0.0901576 9.6408 0.0546665 9.72768C-0.0175711 9.90242 -0.0175711 10.0987 0.0546665 10.2734C0.090325 10.3606 0.143017 10.4397 0.209647 10.5063L3.78106 14.0777C4.05511 14.3614 4.50729 14.3693 4.79105 14.0953C5.07481 13.8212 5.08268 13.369 4.80863 13.0853C4.80289 13.0793 4.79703 13.0735 4.79105 13.0677L2.43822 10.7148H14.2854C14.6799 10.7148 14.9997 10.395 14.9997 10.0005C14.9997 9.60602 14.6798 9.28626 14.2853 9.28626Z" fill="#989898"/>
</svg>
