<svg width="9" height="11" viewBox="0 0 9 11" fill="none" xmlns="http://www.w3.org/2000/svg">
<path d="M1.25654 11V9.35154H0V7.85714H1.25654V6.65546H0V4.7451H1.25654V0H4.8377C6.28272 0 7.33508 0.287582 7.99477 0.862745C8.66492 1.43791 9 2.22876 9 3.23529C9 3.831 8.86388 4.39076 8.59162 4.91457C8.31937 5.43838 7.86388 5.85948 7.22513 6.17787C6.59686 6.49627 5.73822 6.65546 4.64922 6.65546H3.62827V7.85714H6.04712V9.35154H3.62827V11H1.25654ZM4.41361 4.7451C5.08377 4.7451 5.61257 4.63212 6 4.40616C6.39791 4.18021 6.59686 3.81559 6.59686 3.31233C6.59686 2.37768 5.96859 1.91036 4.71204 1.91036H3.62827V4.7451H4.41361Z" fill="#989898"/>
</svg>
