<svg width="14" height="18" viewBox="0 0 14 18" fill="none" xmlns="http://www.w3.org/2000/svg">
<path d="M2.16023 18.0003V15.4323H0.240234V13.1043H2.16023V11.2323H0.240234V8.25626H2.16023V0.864258H7.63223C9.84023 0.864258 11.4482 1.31226 12.4562 2.20826C13.4802 3.10426 13.9922 4.33626 13.9922 5.90426C13.9922 6.83226 13.7842 7.70426 13.3682 8.52026C12.9522 9.33626 12.2562 9.99226 11.2802 10.4883C10.3202 10.9843 9.00823 11.2323 7.34423 11.2323H5.78423V13.1043H9.48023V15.4323H5.78423V18.0003H2.16023ZM6.98423 8.25626C8.00823 8.25626 8.81623 8.08026 9.40823 7.72826C10.0162 7.37626 10.3202 6.80826 10.3202 6.02426C10.3202 4.56826 9.36023 3.84026 7.44023 3.84026H5.78423V8.25626H6.98423Z" fill="#272727"/>
</svg>
