<svg width="71" height="71" viewBox="0 0 71 71" fill="none" xmlns="http://www.w3.org/2000/svg">
<path d="M66.2454 17.6912C63.0759 13.7955 58.7705 10.7181 53.3294 8.45971C47.8884 6.20132 41.945 5.07227 35.5 5.07227C29.0551 5.07227 23.1119 6.20132 17.6707 8.45971C12.2295 10.7181 7.92423 13.795 4.75451 17.6912C1.58465 21.5871 0 25.8328 0 30.4289C0 34.3907 1.19484 38.1029 3.58548 41.5629C5.97613 45.0231 9.24438 47.929 13.3918 50.2796C13.1009 51.3358 12.7576 52.3393 12.3612 53.291C11.965 54.2417 11.6085 55.0211 11.2916 55.6289C10.9743 56.2359 10.5455 56.9098 10.0036 57.6488C9.46253 58.3887 9.05315 58.9106 8.77574 59.2145C8.49861 59.5184 8.04302 60.0196 7.40869 60.7199C6.77519 61.4195 6.36553 61.8759 6.18082 62.0873C6.15404 62.1007 6.04857 62.2188 5.86373 62.4445C5.67902 62.6686 5.58632 62.7802 5.58632 62.7802L5.3486 63.1368C5.21635 63.3339 5.15695 63.4597 5.17 63.5119C5.18332 63.5652 5.15695 63.6972 5.0909 63.908C5.0247 64.1197 5.0315 64.2784 5.1106 64.3838V64.4236C5.21635 64.8724 5.42742 65.2359 5.74438 65.5132C6.06134 65.7896 6.41854 65.9282 6.81432 65.9282H7.01263C8.72995 65.7165 10.2354 65.4268 11.5294 65.0569C18.45 63.2874 24.5254 60.0913 29.7551 55.4685C31.7359 55.6798 33.651 55.7853 35.4997 55.7853C41.9446 55.7853 47.8881 54.6564 53.3292 52.3973C58.7702 50.1386 63.0756 47.0623 66.2451 43.1665C69.4151 39.2709 70.9999 35.0247 70.9999 30.4287C71 25.8334 69.4154 21.5871 66.2454 17.6912ZM61.788 40.5324C59.0269 43.6487 55.3027 46.1253 50.6143 47.9607C45.926 49.7957 40.8873 50.7143 35.499 50.7143C33.888 50.7143 32.1712 50.6088 30.3487 50.397L28.0903 50.16L26.3866 51.666C23.1382 54.5189 19.506 56.7768 15.4911 58.441C16.7059 56.302 17.6304 54.0301 18.2646 51.627L19.3343 47.8229L15.8875 45.8426C12.4537 43.8869 9.79281 41.5694 7.90383 38.8882C6.01513 36.2078 5.07119 33.3875 5.07119 30.4294C5.07119 26.8106 6.45129 23.4432 9.21135 20.3263C11.9722 17.2098 15.6961 14.7334 20.3847 12.8977C25.0733 11.0618 30.1112 10.1432 35.4999 10.1432C40.8881 10.1432 45.9259 11.0614 50.6142 12.8971C55.3024 14.7329 59.0266 17.2092 61.7878 20.3258C64.548 23.4426 65.928 26.8102 65.928 30.4287C65.928 34.0472 64.548 37.4155 61.788 40.5324Z" fill="#C9C9C9"/>
</svg>
