<svg width="492" height="110" viewBox="0 0 492 110" fill="none" xmlns="http://www.w3.org/2000/svg">
<path d="M154.3 17.4984C153.405 14.1932 151.661 11.1799 149.239 8.75871C146.818 6.3375 143.805 4.59282 140.5 3.69844C128.4 0.398438 79.6997 0.398438 79.6997 0.398438C79.6997 0.398438 30.9997 0.498437 18.8997 3.79844C15.5944 4.69282 12.5812 6.4375 10.1599 8.85871C7.73872 11.2799 5.99405 14.2932 5.09966 17.5984C1.43966 39.0984 0.019664 71.8584 5.19966 92.4984C6.09405 95.8037 7.83872 98.8169 10.2599 101.238C12.6812 103.659 15.6944 105.404 18.9997 106.298C31.0997 109.598 79.7997 109.598 79.7997 109.598C79.7997 109.598 128.5 109.598 140.6 106.298C143.905 105.404 146.918 103.659 149.339 101.238C151.761 98.8169 153.505 95.8037 154.4 92.4984C158.26 70.9684 159.45 38.2284 154.3 17.4984Z" fill="#FF0000"/>
<path d="M64.1992 78.4016L104.599 55.0016L64.1992 31.6016V78.4016Z" fill="white"/>
<path d="M227.9 99.6992C224.8 97.5992 222.6 94.3992 221.3 89.9992C220 85.5992 219.4 79.7992 219.4 72.4992V62.5992C219.4 55.2992 220.1 49.2992 221.6 44.8992C223.1 40.3992 225.4 37.1992 228.6 35.1992C231.8 33.1992 235.9 32.0992 241 32.0992C246 32.0992 250.1 33.0992 253.1 35.1992C256.1 37.2992 258.4 40.4992 259.8 44.8992C261.2 49.2992 261.9 55.1992 261.9 62.4992V72.3992C261.9 79.6992 261.2 85.4992 259.8 89.8992C258.4 94.2992 256.2 97.4992 253.1 99.5992C250 101.599 245.8 102.699 240.6 102.699C235.2 102.799 231 101.699 227.9 99.6992V99.6992ZM245.2 88.9992C246.1 86.7992 246.5 83.0992 246.5 78.0992V56.7992C246.5 51.8992 246.1 48.2992 245.2 46.0992C244.3 43.7992 242.8 42.6992 240.7 42.6992C238.6 42.6992 237.2 43.7992 236.3 46.0992C235.4 48.3992 235 51.8992 235 56.7992V78.0992C235 83.0992 235.4 86.7992 236.2 88.9992C237 91.1992 238.5 92.2992 240.7 92.2992C242.8 92.2992 244.3 91.1992 245.2 88.9992V88.9992ZM464.4 72.6992V76.1992L464.8 86.0992C465.1 88.2992 465.6 89.8992 466.4 90.8992C467.2 91.8992 468.5 92.3992 470.2 92.3992C472.5 92.3992 474.1 91.4992 474.9 89.6992C475.8 87.8992 476.2 84.8992 476.3 80.7992L489.6 81.5992C489.7 82.1992 489.7 82.9992 489.7 83.9992C489.7 90.2992 488 94.9992 484.5 98.0992C481 101.199 476.2 102.799 469.9 102.799C462.3 102.799 457 100.399 454 95.6992C451 90.9992 449.4 83.5992 449.4 73.6992V61.5992C449.74 44.5992 452.73 32.1492 470.3 32.0992C475.6 32.0992 479.6 33.0992 482.4 34.9992C485.2 36.8992 487.2 39.8992 488.4 43.9992C489.6 48.0992 490.1 53.6992 490.1 60.8992V72.5992H464.4V72.6992ZM466.4 43.8992C465.6 44.8992 465.1 46.3992 464.8 48.5992C464.5 50.7992 464.4 58.5992 464.4 58.5992V63.4992H475.6V58.5992C475.6 63.4992 475.5 50.8992 475.2 48.5992C474.9 46.2992 474.4 44.6992 473.6 43.7992C472.8 42.8992 471.6 42.3992 470 42.3992C468.3 42.4992 467.1 42.9992 466.4 43.8992V43.8992ZM190.5 71.3992L173 8.19922H188.3C188.3 8.19922 195.45 39.8992 197.9 54.7992H198.3C201.08 38.9792 208.1 8.19922 208.1 8.19922H223.4L205.7 71.2992V101.599H190.6V71.3992H190.5Z" fill="white"/>
<path d="M311.5 33.3984V101.698H299.5L298.2 93.2984H297.9C294.6 99.5984 289.7 102.798 283.2 102.798C271.43 102.768 270.12 92.7984 270 84.3984V33.3984H285.4V83.4984C285.4 86.4984 285.7 88.6984 286.4 89.9984C287.82 92.7784 291.5 92.0684 293.5 90.6984C294.655 89.9179 295.585 88.8493 296.2 87.5984V33.3984H311.5Z" fill="white"/>
<path d="M391.5 34V102.3H379.5L378.2 93.9H377.9C374.6 100.2 369.7 103.4 363.2 103.4C351.43 103.37 350.12 93.4 350 85V34H365.4V84.1C365.4 87.1 365.7 89.3 366.4 90.6C367.82 93.38 371.5 92.67 373.5 91.3C374.655 90.5195 375.585 89.4509 376.2 88.2V34H391.5Z" fill="white"/>
<path d="M353.299 20.5992H337.999V101.699H322.999V20.5992H307.699V8.19922H353.199V20.5992H353.299ZM441.199 44.2992C440.299 39.9992 438.799 36.8992 436.699 34.8992C434.599 32.9992 431.799 31.9992 428.099 31.9992C425.285 31.993 422.534 32.8289 420.199 34.3992C417.699 35.9992 415.899 38.0992 414.499 40.6992H414.399V4.69922H399.599V101.599H412.299L413.899 95.0992H414.199C415.422 97.3884 417.257 99.2926 419.499 100.599C421.899 101.899 424.499 102.599 427.399 102.599C432.599 102.599 436.399 100.199 438.899 95.3992C441.299 90.5992 442.599 83.0992 442.599 72.9992V62.1992C442.599 54.5992 442.099 48.5992 441.199 44.2992V44.2992ZM427.099 72.1992C427.099 77.1992 426.899 81.0992 426.499 83.8992C426.099 86.6992 425.399 88.6992 424.399 89.8992C423.399 91.0992 422.099 91.6992 420.499 91.6992C417.399 91.5992 415.639 90.1992 414.399 88.0992V49.2992C414.899 47.3992 415.799 45.8992 417.099 44.6992C419.299 42.2292 423.059 42.1992 424.799 44.6992C425.699 45.8992 426.199 47.9992 426.599 50.8992C426.899 53.7992 427.099 57.8992 427.099 63.2992V72.1992Z" fill="white"/>
</svg>
