<svg width="23" height="22" viewBox="0 0 23 22" fill="none" xmlns="http://www.w3.org/2000/svg">
<path d="M19.0624 12.4057C18.2078 10.4701 17.7804 8.43016 17.7804 6.28576C17.7804 4.93535 17.3576 3.86328 16.5116 3.06928C15.6651 2.27534 14.5016 1.7964 13.0208 1.63279C13.0912 1.48556 13.1264 1.33416 13.1264 1.17863C13.1264 0.851224 13.0031 0.572715 12.7563 0.343741C12.5096 0.114509 12.2099 0 11.8573 0C11.5049 0 11.2052 0.114509 10.9583 0.343741C10.7115 0.572887 10.5882 0.851224 10.5882 1.17863C10.5882 1.33416 10.6233 1.48543 10.694 1.63279C9.21318 1.79658 8.04966 2.27529 7.20352 3.06928C6.35743 3.86323 5.93441 4.9353 5.93441 6.28576C5.93441 8.43016 5.50704 10.4701 4.65197 12.4057C3.79694 14.3413 2.53219 15.9681 0.857422 17.2858C0.857422 17.7114 1.02492 18.0797 1.35986 18.3906C1.69476 18.7016 2.09134 18.8573 2.54983 18.8573H8.47291C8.47291 19.7249 8.80331 20.4656 9.4644 21.0793C10.1255 21.693 10.9233 22 11.8575 22C12.7918 22 13.5896 21.693 14.2504 21.0793C14.9114 20.4656 15.242 19.7249 15.242 18.8573H21.1651C21.6234 18.8573 22.0204 18.7019 22.3549 18.3906C22.6899 18.0797 22.8574 17.7114 22.8574 17.2858C21.1829 15.9681 19.918 14.3413 19.0624 12.4057ZM11.8575 21.0178C11.2141 21.0178 10.6652 20.8072 10.2113 20.3857C9.75748 19.9642 9.53048 19.4545 9.53048 18.857C9.53048 18.726 9.60106 18.6605 9.74202 18.6605C9.88307 18.6605 9.95364 18.726 9.95364 18.857C9.95364 19.3399 10.1409 19.7552 10.5154 20.1032C10.8901 20.4512 11.3374 20.625 11.8574 20.625C11.9985 20.625 12.0693 20.6908 12.0693 20.8215C12.0694 20.9524 11.9985 21.0178 11.8575 21.0178Z" fill="#1E3C5F"/>
</svg>
