<svg width="22" height="22" viewBox="0 0 22 22" fill="none" xmlns="http://www.w3.org/2000/svg">
<path d="M19.8654 9.61133H2.1333V13.2637H19.8654V9.61133Z" fill="#275575"/>
<path d="M2.1333 14.2793V15.2246C2.1333 16.036 2.40792 16.7261 2.95695 17.2941C3.50599 17.862 4.1674 18.1463 4.94073 18.1463H12.518V21.9992L16.2418 18.1463H17.0586C17.8319 18.1463 18.4936 17.8623 19.0426 17.2941C19.5916 16.7261 19.8661 16.036 19.8661 15.2246V14.2793H2.1333V14.2793Z" fill="#275575"/>
<path d="M19.8654 4.91211H2.1333V8.56442H19.8654V4.91211Z" fill="#275575"/>
<path d="M19.8655 2.90752C19.8655 2.10544 19.5911 1.4204 19.0421 0.852249C18.4931 0.2841 17.8315 0 17.0581 0H4.94073C4.1674 0 3.50599 0.28405 2.95695 0.852249C2.40792 1.42045 2.1333 2.10559 2.1333 2.90752V3.86703H19.8654V2.90752H19.8655Z" fill="#275575"/>
</svg>
