<svg width="14" height="14" viewBox="0 0 14 14" fill="none" xmlns="http://www.w3.org/2000/svg">
<path d="M0 9.45675V13.8501H4.39339L13.1801 5.06335L8.78668 0.669922L0 9.45675ZM3.83362 12.4982L2.70356 12.4984V11.1465H1.35182V10.0164L2.31287 9.05533L4.79467 11.5371L3.83362 12.4982ZM9.12492 2.46536C9.27961 2.46536 9.35707 2.54286 9.35707 2.69766C9.35707 2.76817 9.33251 2.82791 9.28312 2.87729L3.559 8.60138C3.50969 8.6505 3.4498 8.67517 3.37945 8.67517C3.22468 8.67517 3.14718 8.59757 3.14718 8.44291C3.14718 8.37241 3.17182 8.31267 3.22105 8.26329L8.94522 2.53927C8.99438 2.49 9.05426 2.46536 9.12492 2.46536Z" fill="#0289CE"/>
</svg>
