<svg width="16" height="16" viewBox="0 0 16 16" fill="none" xmlns="http://www.w3.org/2000/svg">
<path d="M0 11.6071V16.0005H4.39339L13.1801 7.21374L8.78668 2.82031L0 11.6071ZM3.83362 14.6486L2.70356 14.6488V13.2969H1.35182V12.1668L2.31287 11.2057L4.79467 13.6875L3.83362 14.6486ZM9.12492 4.61576C9.27961 4.61576 9.35707 4.69325 9.35707 4.84806C9.35707 4.91856 9.33251 4.9783 9.28312 5.02768L3.559 10.7518C3.50969 10.8009 3.4498 10.8256 3.37945 10.8256C3.22468 10.8256 3.14718 10.748 3.14718 10.5933C3.14718 10.5228 3.17182 10.4631 3.22105 10.4137L8.94522 4.68966C8.99438 4.64039 9.05426 4.61576 9.12492 4.61576Z" fill="#E7E8EC"/>
<path d="M15.6073 2.87246L13.1255 0.401272C12.858 0.133868 12.5376 0 12.1645 0C11.7841 0 11.4675 0.133868 11.2141 0.401272L9.46094 2.14386L13.8544 6.53721L15.6075 4.78416C15.868 4.52364 15.9982 4.20681 15.9982 3.83362C15.998 3.4676 15.8679 3.14715 15.6073 2.87246Z" fill="#E7E8EC"/>
</svg>
