<svg width="20" height="20" viewBox="0 0 20 20" fill="none" xmlns="http://www.w3.org/2000/svg">
<g clip-path="url(#clip0)">
<path d="M14.118 11.4008C14.7058 10.5488 14.9999 9.60567 14.9999 8.57159C14.9999 8.28146 14.9702 7.96893 14.9105 7.63403L11.7856 13.2366C12.7527 12.8647 13.5302 12.2524 14.118 11.4008Z" fill="#404040"/>
<path d="M14.576 3.68312C14.5834 3.66834 14.5869 3.63484 14.5869 3.58273C14.5869 3.4562 14.5274 3.35593 14.4082 3.28115C14.386 3.26629 14.3135 3.22349 14.1906 3.15265C14.0679 3.0821 13.9505 3.01322 13.8392 2.94618C13.7276 2.87921 13.6051 2.81045 13.4709 2.73977C13.3369 2.66906 13.2217 2.6114 13.1251 2.56672C13.0281 2.52212 12.9613 2.49976 12.9241 2.49976C12.7902 2.49976 12.6859 2.55937 12.6116 2.67836L12.0091 3.76103C11.3322 3.63461 10.6624 3.57128 10.0002 3.57128C7.99866 3.57128 6.15344 4.07735 4.46435 5.08923C2.77539 6.10125 1.36178 7.48136 0.223249 9.22987C0.0743903 9.4607 0 9.71741 0 10.0002C0 10.2828 0.0743903 10.5397 0.223249 10.7702C0.877946 11.7894 1.65367 12.7011 2.55026 13.5046C3.44685 14.3083 4.42706 14.9516 5.49104 15.4355C5.16365 15.9934 4.99998 16.3172 4.99998 16.4066C4.99998 16.5405 5.05956 16.6446 5.17863 16.7189C6.08628 17.24 6.58473 17.5002 6.67409 17.5002C6.80786 17.5002 6.91212 17.4404 6.98651 17.3213L7.53339 16.3282C8.32213 14.9222 9.49764 12.8127 11.0603 10.0002C12.6228 7.18763 13.7947 5.08195 14.576 3.68312ZM6.19421 14.1855C4.25975 13.315 2.67109 11.92 1.42866 10.0003C2.5596 8.24426 3.97701 6.93092 5.68087 6.06056C5.22702 6.83425 5.00002 7.67135 5.00002 8.57165C5.00002 9.36774 5.18222 10.1228 5.5469 10.8372C5.91151 11.5515 6.41746 12.1428 7.06481 12.6116L6.19421 14.1855ZM10.3797 6.09371C10.2756 6.19796 10.1488 6.25003 10 6.25003C9.36016 6.25003 8.81316 6.47708 8.35931 6.93084C7.90534 7.38489 7.6785 7.93169 7.6785 8.57153C7.6785 8.72051 7.62627 8.84689 7.52217 8.95111C7.41788 9.05536 7.29146 9.10743 7.14272 9.10743C6.99382 9.10743 6.86732 9.05529 6.76314 8.95111C6.65889 8.84689 6.60682 8.72035 6.60682 8.57153C6.60682 7.64156 6.93987 6.84348 7.60571 6.17752C8.27159 5.51164 9.06955 5.17863 9.99969 5.17863C10.1485 5.17863 10.275 5.23085 10.3794 5.33495C10.4834 5.43909 10.5356 5.56563 10.5356 5.71441C10.5356 5.86327 10.4835 5.98977 10.3797 6.09371Z" fill="#404040"/>
<path d="M19.7767 9.22986C19.3525 8.52309 18.815 7.83845 18.164 7.17625C17.5133 6.51408 16.8341 5.94504 16.1272 5.46875L15.424 6.71877C16.6666 7.57439 17.7158 8.66824 18.5713 10C17.6712 11.3988 16.5494 12.5409 15.2067 13.4263C13.8636 14.3121 12.4034 14.8216 10.826 14.9553L10 16.4286C11.6519 16.4286 13.2125 16.0753 14.6819 15.3684C16.1513 14.6618 17.4444 13.6684 18.5604 12.3887C19.0811 11.7859 19.4866 11.2465 19.7769 10.7703C19.9257 10.5171 20.0001 10.2603 20.0001 10.0001C19.9999 9.73972 19.9256 9.48301 19.7767 9.22986Z" fill="#404040"/>
</g>
<defs>
<clipPath id="clip0">
<rect width="20" height="20" fill="white"/>
</clipPath>
</defs>
</svg>
