<svg width="20" height="20" viewBox="0 0 20 20" fill="none" xmlns="http://www.w3.org/2000/svg">
<path d="M19.7769 9.23004C18.7351 7.52618 17.3343 6.15713 15.5747 5.12294C13.815 4.08871 11.9569 3.57153 10 3.57153C8.04314 3.57153 6.18491 4.08851 4.42522 5.12294C2.6655 6.15713 1.26479 7.52618 0.223132 9.23004C0.0743903 9.49043 0 9.74714 0 10.0002C0 10.2532 0.0743903 10.5099 0.223132 10.7702C1.26479 12.4742 2.6655 13.8433 4.42522 14.8773C6.18491 15.9116 8.04314 16.4284 10 16.4284C11.9569 16.4284 13.8151 15.9134 15.5747 14.8829C17.3343 13.8524 18.7353 12.4815 19.7769 10.7702C19.9256 10.5099 20 10.2533 20 10.0002C20 9.74714 19.9256 9.49043 19.7769 9.23004ZM7.60587 6.17754C8.27174 5.51166 9.06971 5.17861 9.99988 5.17861C10.1486 5.17861 10.2752 5.23083 10.3794 5.33493C10.4835 5.43907 10.5358 5.56561 10.5358 5.71439C10.5358 5.86329 10.4835 5.98975 10.3797 6.09373C10.2756 6.19798 10.1489 6.25005 10.0002 6.25005C9.36031 6.25005 8.81327 6.47709 8.35947 6.93086C7.9055 7.3849 7.67866 7.93171 7.67866 8.57155C7.67866 8.72053 7.62643 8.84691 7.52233 8.95113C7.41807 9.05542 7.29165 9.10745 7.14287 9.10745C6.99398 9.10745 6.86752 9.0553 6.7633 8.95113C6.65904 8.84691 6.60697 8.72037 6.60697 8.57155C6.60697 7.64158 6.94003 6.84345 7.60587 6.17754ZM14.8494 13.6443C13.3575 14.5481 11.7411 15.0003 10 15.0003C8.25892 15.0003 6.64251 14.5484 5.15072 13.6443C3.65892 12.7403 2.41821 11.5256 1.42866 10.0002C2.5596 8.24416 3.97701 6.93082 5.68087 6.06046C5.22702 6.83415 5.00002 7.67129 5.00002 8.57151C5.00002 9.94814 5.48932 11.1253 6.46765 12.1039C7.44599 13.0824 8.62356 13.5715 10 13.5715C11.3766 13.5715 12.5538 13.0822 13.5323 12.1039C14.5109 11.1256 15 9.94814 15 8.57151C15 7.67129 14.773 6.83403 14.3191 6.06046C16.0229 6.93082 17.4404 8.24428 18.5713 10.0002C17.5819 11.5256 16.3413 12.7403 14.8494 13.6443Z" fill="#404040"/>
</svg>
