<svg width="17" height="16" viewBox="0 0 17 16" fill="none" xmlns="http://www.w3.org/2000/svg">
<path d="M16.1443 13.9038L12.8463 10.6059C13.6411 9.45854 14.0387 8.17947 14.0387 6.76936C14.0387 5.85271 13.8607 4.97603 13.5048 4.13953C13.1491 3.30289 12.6683 2.58178 12.0625 1.976C11.4568 1.37023 10.7357 0.889409 9.89928 0.533699C9.06254 0.177889 8.18593 0 7.26928 0C6.3527 0 5.47602 0.177889 4.63952 0.533699C3.80289 0.889409 3.08177 1.37023 2.476 1.976C1.87016 2.58178 1.38941 3.30303 1.03366 4.13953C0.677888 4.97613 0.5 5.85271 0.5 6.76936C0.5 7.68595 0.677888 8.56233 1.03366 9.39906C1.38937 10.2356 1.87016 10.9566 2.476 11.5624C3.08177 12.1683 3.80302 12.6489 4.63952 13.0049C5.47612 13.3606 6.3527 13.5385 7.26928 13.5385C8.67969 13.5385 9.95855 13.1408 11.106 12.3461L14.404 15.6345C14.6348 15.878 14.9229 15.9998 15.2693 15.9998C15.6026 15.9998 15.8913 15.878 16.1347 15.6345C16.3782 15.391 16.5 15.1025 16.5 14.7692C16.5001 14.4296 16.3815 14.141 16.1443 13.9038ZM10.3126 9.81233C9.46965 10.6554 8.45529 11.0769 7.26928 11.0769C6.08347 11.0769 5.06912 10.6553 4.22612 9.81233C3.38312 8.9694 2.96164 7.95517 2.96164 6.76916C2.96164 5.58335 3.38322 4.56883 4.22612 3.72599C5.06895 2.88296 6.08347 2.46151 7.26928 2.46151C8.45516 2.46151 9.46951 2.88313 10.3126 3.72599C11.1556 4.56883 11.5771 5.58335 11.5771 6.76916C11.5771 7.95517 11.1555 8.9694 10.3126 9.81233Z" fill="#D7D8DB"/>
</svg>
