<svg width="193" height="67" viewBox="0 0 193 67" fill="none" xmlns="http://www.w3.org/2000/svg">
<path d="M110.065 20.834C109.937 22.1992 109.433 23.2656 108.554 24.0332C107.675 24.7949 106.506 25.1758 105.047 25.1758C104.027 25.1758 103.128 24.9355 102.349 24.4551C101.575 23.9688 100.978 23.2803 100.556 22.3896C100.134 21.499 99.9141 20.4648 99.8965 19.2871V18.0918C99.8965 16.8848 100.11 15.8213 100.538 14.9014C100.966 13.9814 101.578 13.2725 102.375 12.7744C103.178 12.2764 104.104 12.0273 105.152 12.0273C106.564 12.0273 107.701 12.4111 108.562 13.1787C109.424 13.9463 109.925 15.0303 110.065 16.4307H107.851C107.745 15.5107 107.476 14.8486 107.042 14.4443C106.614 14.0342 105.984 13.8291 105.152 13.8291C104.186 13.8291 103.441 14.1836 102.92 14.8926C102.404 15.5957 102.141 16.6299 102.129 17.9951V19.1289C102.129 20.5117 102.375 21.5664 102.867 22.293C103.365 23.0195 104.092 23.3828 105.047 23.3828C105.92 23.3828 106.576 23.1865 107.016 22.7939C107.455 22.4014 107.733 21.748 107.851 20.834H110.065ZM119.918 25H117.782V17.2129H114.073V25H111.938V15.4902H119.918V25ZM128.127 15.4902H130.254V25H128.127V18.6543L124.4 25H122.273V15.4902H124.4V21.8359L128.127 15.4902ZM136.433 23.4707C136.966 23.4707 137.408 23.3154 137.76 23.0049C138.111 22.6943 138.299 22.3105 138.322 21.8535H140.335C140.312 22.4453 140.127 22.999 139.781 23.5146C139.436 24.0244 138.967 24.4287 138.375 24.7275C137.783 25.0264 137.145 25.1758 136.459 25.1758C135.129 25.1758 134.074 24.7451 133.295 23.8838C132.516 23.0225 132.126 21.833 132.126 20.3154V20.0957C132.126 18.6484 132.513 17.4912 133.286 16.624C134.06 15.751 135.114 15.3145 136.45 15.3145C137.581 15.3145 138.501 15.6455 139.21 16.3076C139.925 16.9639 140.3 17.8281 140.335 18.9004H138.322C138.299 18.3555 138.111 17.9072 137.76 17.5557C137.414 17.2041 136.972 17.0283 136.433 17.0283C135.741 17.0283 135.208 17.2803 134.833 17.7842C134.458 18.2822 134.268 19.041 134.262 20.0605V20.4033C134.262 21.4346 134.446 22.2051 134.815 22.7148C135.19 23.2188 135.729 23.4707 136.433 23.4707ZM141.548 20.1572C141.548 19.2256 141.732 18.3877 142.102 17.6436C142.471 16.8936 142.989 16.3193 143.657 15.9209C144.325 15.5166 145.093 15.3145 145.96 15.3145C147.243 15.3145 148.283 15.7275 149.08 16.5537C149.883 17.3799 150.316 18.4756 150.381 19.8408L150.39 20.3418C150.39 21.2793 150.208 22.1172 149.845 22.8555C149.487 23.5938 148.972 24.165 148.298 24.5693C147.63 24.9736 146.856 25.1758 145.978 25.1758C144.636 25.1758 143.561 24.7305 142.752 23.8398C141.949 22.9434 141.548 21.751 141.548 20.2627V20.1572ZM143.684 20.3418C143.684 21.3203 143.886 22.0879 144.29 22.6445C144.694 23.1953 145.257 23.4707 145.978 23.4707C146.698 23.4707 147.258 23.1895 147.656 22.627C148.061 22.0645 148.263 21.2412 148.263 20.1572C148.263 19.1963 148.055 18.4346 147.639 17.8721C147.229 17.3096 146.669 17.0283 145.96 17.0283C145.263 17.0283 144.709 17.3066 144.299 17.8633C143.889 18.4141 143.684 19.2402 143.684 20.3418ZM155.575 21.2383H154.494V25H152.358V15.4902H154.494V19.2871H155.435L158.062 15.4902H160.699L157.263 20.043L160.989 25H158.212L155.575 21.2383ZM108.158 46H106.022V38.2129H102.313V46H100.178V36.4902H108.158V46ZM113.757 42.9414L115.69 36.4902H117.967L114.188 47.4414C113.607 49.041 112.623 49.8408 111.234 49.8408C110.924 49.8408 110.581 49.7881 110.206 49.6826V48.0303L110.61 48.0566C111.149 48.0566 111.554 47.957 111.823 47.7578C112.099 47.5645 112.315 47.2363 112.474 46.7734L112.781 45.9561L109.441 36.4902H111.744L113.757 42.9414ZM122.985 44.4707C123.519 44.4707 123.961 44.3154 124.312 44.0049C124.664 43.6943 124.852 43.3105 124.875 42.8535H126.888C126.864 43.4453 126.68 43.999 126.334 44.5146C125.988 45.0244 125.52 45.4287 124.928 45.7275C124.336 46.0264 123.697 46.1758 123.012 46.1758C121.682 46.1758 120.627 45.7451 119.848 44.8838C119.068 44.0225 118.679 42.833 118.679 41.3154V41.0957C118.679 39.6484 119.065 38.4912 119.839 37.624C120.612 36.751 121.667 36.3145 123.003 36.3145C124.134 36.3145 125.054 36.6455 125.763 37.3076C126.478 37.9639 126.853 38.8281 126.888 39.9004H124.875C124.852 39.3555 124.664 38.9072 124.312 38.5557C123.967 38.2041 123.524 38.0283 122.985 38.0283C122.294 38.0283 121.761 38.2803 121.386 38.7842C121.011 39.2822 120.82 40.041 120.814 41.0605V41.4033C120.814 42.4346 120.999 43.2051 121.368 43.7148C121.743 44.2188 122.282 44.4707 122.985 44.4707ZM135.984 38.1865H132.899V46H130.764V38.1865H127.714V36.4902H135.984V38.1865Z" fill="#404040" fill-opacity="0.6"/>
<path d="M84.0003 59.1906H36.4883V0H69.2076L84.0003 14.7927V59.1906Z" fill="#F2F2FC"/>
<path d="M69.2073 0H60.293V59.1906H84V14.7927L69.2073 0Z" fill="#CBE8F8"/>
<path d="M50.5859 32.1484H74.9612V37.0828H50.5859V32.1484Z" fill="#FEE37E"/>
<path d="M50.5859 23.0439H74.9612V27.9783H50.5859V23.0439Z" fill="#FEE37E"/>
<path d="M60.293 32.1484H74.9613V37.0828H60.293V32.1484Z" fill="#FDB55D"/>
<path d="M60.293 23.0439H74.9613V27.9783H60.293V23.0439Z" fill="#FDB55D"/>
<path d="M45.7539 41.5967H60.293V46.531H45.7539V41.5967Z" fill="#FEE37E"/>
<path d="M34.1508 47.366C42.5809 47.366 49.4148 40.532 49.4148 32.1019C49.4148 23.6718 42.5809 16.8379 34.1508 16.8379C25.7207 16.8379 18.8867 23.6718 18.8867 32.1019C18.8867 40.532 25.7207 47.366 34.1508 47.366Z" fill="#F2F2FC"/>
<path d="M44.9379 21.3027L23.3516 42.8891C26.1142 45.6549 29.9326 47.3659 34.1506 47.3659C42.5807 47.3659 49.4147 40.5318 49.4147 32.1018C49.4147 27.8838 47.7035 24.0654 44.9379 21.3027V21.3027Z" fill="#CBE8F8"/>
<path d="M7.01892 66.2392C5.22162 66.2392 3.42415 65.5551 2.05587 64.1868C0.730078 62.861 0 61.0985 0 59.2235C0 57.3486 0.730078 55.5861 2.05587 54.2605L9.63359 46.6826L15.5641 50.6751L19.5599 56.6089L11.982 64.1866C10.6137 65.555 8.81623 66.2392 7.01892 66.2392V66.2392Z" fill="#0082FF"/>
<path d="M2.05469 64.1849L2.05633 64.1865C3.42461 65.5548 5.22208 66.2389 7.01938 66.2389C8.81669 66.2389 10.6142 65.5548 11.9824 64.1865L19.5603 56.6086L15.5646 50.6748L2.05469 64.1849Z" fill="#005FE4"/>
<path d="M19.5591 56.6088L18.5992 49.9716L19.6111 46.4082L16.0678 46.7801L9.63281 46.6825L19.5591 56.6088Z" fill="#005FE4"/>
<path d="M14.5938 51.6441L19.5584 56.609L19.5389 50.2521L19.6037 49.6339L19.61 46.6279L14.5938 51.6441Z" fill="#00317E"/>
<path d="M47.7033 18.6175C44.1061 15.0201 39.3232 13.0391 34.2359 13.0391C29.1487 13.0391 24.3658 15.0201 20.7685 18.6175C13.9306 25.4553 13.3895 36.2416 19.1443 43.705L16.0693 46.78L19.541 50.2517L22.6152 47.1775C25.9308 49.7411 29.9765 51.1309 34.2361 51.1309C39.3235 51.1309 44.1064 49.1499 47.7035 45.5525C51.3009 41.9552 53.2819 37.1723 53.2819 32.0849C53.2818 26.9977 51.3007 22.2147 47.7033 18.6175V18.6175ZM44.2316 42.0807C41.5616 44.7507 38.0118 46.221 34.2358 46.221C30.4599 46.221 26.91 44.7507 24.2401 42.0807C21.5701 39.4106 20.0998 35.8608 20.0998 32.0849C20.0998 28.309 21.5701 24.759 24.2401 22.0891C26.91 19.4191 30.46 17.9488 34.2358 17.9488C38.0117 17.9488 41.5616 19.4191 44.2316 22.0891C46.9016 24.759 48.372 28.309 48.372 32.0849C48.372 35.8608 46.9016 39.4108 44.2316 42.0807Z" fill="#00D7DF"/>
<path d="M47.7008 18.6173C47.6872 18.6037 47.6733 18.5908 47.6596 18.5771L44.1874 22.0494C44.201 22.063 44.2155 22.0755 44.2291 22.0891C46.899 24.759 48.3695 28.309 48.3695 32.0849C48.3695 35.8608 46.8992 39.4106 44.2291 42.0807C41.5591 44.7507 38.0093 46.221 34.2333 46.221C30.4574 46.221 26.9075 44.7507 24.2376 42.0807C24.224 42.0671 24.2115 42.0527 24.1979 42.0391L17.7617 48.4752L19.5382 50.2517L22.6124 47.1775C25.9279 49.7411 29.9737 51.1309 34.2333 51.1309C39.3207 51.1309 44.1036 49.1499 47.7007 45.5525C51.2981 41.9552 53.2791 37.1723 53.2791 32.0849C53.2793 26.9975 51.2982 22.2146 47.7008 18.6173V18.6173Z" fill="#00AADF"/>
<path d="M69.207 14.7927H83.9997L69.207 0V14.7927Z" fill="#90D4F6"/>
</svg>
