<svg width="14" height="14" viewBox="0 0 14 14" fill="none" xmlns="http://www.w3.org/2000/svg">
<path d="M10.7695 11.8465C10.7695 12.1438 10.875 12.3976 11.0852 12.6077C11.2953 12.8181 11.5493 12.9234 11.8468 12.9234C12.1439 12.9234 12.3978 12.8181 12.6079 12.6077C12.8183 12.3976 12.9236 12.1438 12.9236 11.8465C12.9236 11.5491 12.8184 11.2953 12.6079 11.085C12.3978 10.8748 12.1439 10.7695 11.8468 10.7695C11.5493 10.7695 11.2953 10.8748 11.0852 11.085C10.875 11.2953 10.7695 11.5491 10.7695 11.8465Z" fill="#BABABA"/>
<path d="M13.8401 2.31287C13.7335 2.20629 13.6074 2.15298 13.4615 2.15298H3.35699C3.3513 2.11375 3.33869 2.04229 3.31906 1.93854C3.29944 1.83472 3.28405 1.75203 3.27283 1.69026C3.26154 1.62876 3.24062 1.55439 3.20971 1.46745C3.17885 1.38046 3.1424 1.31168 3.10035 1.26132C3.05836 1.2107 3.00228 1.16735 2.93214 1.13078C2.86207 1.09444 2.78209 1.07617 2.69239 1.07617H0.538566C0.392638 1.07617 0.266454 1.12957 0.159896 1.23601C0.0533085 1.34257 0 1.46884 0 1.61465C0 1.76046 0.0533085 1.88667 0.159896 1.99323C0.266542 2.09982 0.392756 2.15307 0.538566 2.15307H2.25472L3.74382 9.07743C3.73268 9.09983 3.67519 9.2063 3.57137 9.39711C3.46761 9.58792 3.3849 9.75471 3.32325 9.89772C3.26157 10.0409 3.23072 10.1516 3.23072 10.2301C3.23072 10.3759 3.28403 10.5021 3.39055 10.6089C3.49726 10.7151 3.62341 10.7686 3.76925 10.7686H4.3077H11.8462H12.3843C12.5301 10.7686 12.6564 10.7152 12.7629 10.6089C12.8696 10.5022 12.9228 10.3759 12.9228 10.2301C12.9228 10.0843 12.8696 9.95801 12.7629 9.85151C12.6564 9.74501 12.5301 9.69156 12.3843 9.69156H4.64411C4.77878 9.42227 4.84609 9.24299 4.84609 9.15323C4.84609 9.09697 4.83908 9.03523 4.82502 8.96808C4.81096 8.90092 4.79417 8.82648 4.77454 8.74503C4.75489 8.66393 4.74233 8.60361 4.73673 8.5643L13.5206 7.53789C13.6607 7.52094 13.7757 7.46086 13.8655 7.35695C13.9552 7.25328 14 7.13411 14 6.99941V2.69163C13.9999 2.54582 13.9468 2.41961 13.8401 2.31287Z" fill="#BABABA"/>
<path d="M3.23242 11.8465C3.23242 12.1438 3.33754 12.3976 3.54791 12.6077C3.75835 12.8181 4.01204 12.9234 4.30941 12.9234C4.60659 12.9234 4.86044 12.8181 5.07072 12.6077C5.2811 12.3976 5.38633 12.1438 5.38633 11.8465C5.38633 11.5491 5.28119 11.2953 5.07072 11.085C4.86041 10.8748 4.60659 10.7695 4.30941 10.7695C4.01207 10.7695 3.75823 10.8748 3.54791 11.085C3.33765 11.2953 3.23242 11.5491 3.23242 11.8465Z" fill="#BABABA"/>
</svg>
