<svg width="18" height="22" viewBox="0 0 18 22" fill="none" xmlns="http://www.w3.org/2000/svg">
<path d="M17.8654 9.61133H0.133301V13.2637H17.8654V9.61133Z" fill="white"/>
<path d="M0.133301 14.2793V15.2246C0.133301 16.036 0.407918 16.7261 0.956953 17.2941C1.50599 17.862 2.1674 18.1463 2.94073 18.1463H10.518V21.9992L14.2418 18.1463H15.0586C15.8319 18.1463 16.4936 17.8623 17.0426 17.2941C17.5916 16.7261 17.8661 16.036 17.8661 15.2246V14.2793H0.133301V14.2793Z" fill="white"/>
<path d="M17.8654 4.91211H0.133301V8.56442H17.8654V4.91211Z" fill="white"/>
<path d="M17.8655 2.90752C17.8655 2.10544 17.5911 1.4204 17.0421 0.852249C16.4931 0.2841 15.8315 0 15.0581 0H2.94073C2.1674 0 1.50599 0.28405 0.956952 0.852249C0.407918 1.42045 0.133301 2.10559 0.133301 2.90752V3.86703H17.8654V2.90752H17.8655Z" fill="white"/>
</svg>
