<svg width="17" height="16" viewBox="0 0 17 16" fill="none" xmlns="http://www.w3.org/2000/svg">
<g clip-path="url(#clip0)">
<path d="M15.1754 3.9843C14.46 2.75869 13.4896 1.78829 12.2639 1.07292C11.0381 0.357592 9.69985 0 8.24828 0C6.79686 0 5.45825 0.357592 4.2326 1.07292C3.00688 1.78818 2.03648 2.75858 1.32108 3.9843C0.605639 5.2101 0.248047 6.54871 0.248047 8.00002C0.248047 9.4514 0.605749 10.7898 1.32097 12.0157C2.03634 13.2413 3.00674 14.2117 4.23246 14.9271C5.45825 15.6424 6.79675 16 8.24814 16C9.69952 16 11.0382 15.6424 12.2639 14.9271C13.4895 14.2119 14.4599 13.2413 15.1752 12.0157C15.8905 10.7899 16.248 9.45133 16.248 8.00002C16.248 6.54856 15.8905 5.20992 15.1754 3.9843ZM9.58171 13C9.58171 13.0972 9.55026 13.1771 9.48784 13.2395C9.42566 13.3019 9.34573 13.3331 9.2486 13.3331H7.24837C7.15117 13.3331 7.07127 13.3019 7.00877 13.2395C6.94623 13.1771 6.915 13.0972 6.915 13V10.9998C6.915 10.9027 6.9462 10.8227 7.00877 10.7603C7.07127 10.698 7.15117 10.6668 7.24837 10.6668H9.2486C9.34573 10.6668 9.42566 10.698 9.48784 10.7603C9.55026 10.8228 9.58171 10.9027 9.58171 10.9998V13ZM12.1181 6.84369C12.0312 7.10066 11.9341 7.31085 11.8264 7.47397C11.7188 7.63717 11.5642 7.80387 11.3627 7.97393C11.1617 8.14406 11.0019 8.26567 10.8835 8.33871C10.7657 8.4115 10.5953 8.51067 10.3734 8.63552C10.1441 8.76734 9.95507 8.93929 9.80584 9.1512C9.65651 9.36296 9.58186 9.53477 9.58186 9.66659C9.58186 9.76401 9.55041 9.84387 9.48795 9.90634C9.42566 9.96876 9.34576 9.99996 9.2486 9.99996H7.24848C7.15128 9.99996 7.07138 9.96876 7.00888 9.90634C6.94631 9.84387 6.91519 9.76401 6.91519 9.66659V9.29156C6.91519 8.8263 7.09736 8.39034 7.46199 7.98422C7.82662 7.57792 8.22767 7.27757 8.66524 7.08311C8.99835 6.93038 9.23455 6.77408 9.37342 6.61438C9.5125 6.45468 9.58193 6.24267 9.58193 5.97892C9.58193 5.74968 9.45161 5.54485 9.19114 5.36418C8.93067 5.18368 8.63401 5.09342 8.30057 5.09342C7.93936 5.09342 7.64084 5.17679 7.40467 5.34352C7.17544 5.51008 6.87691 5.82958 6.50881 6.30174C6.44631 6.38514 6.35948 6.42692 6.24834 6.42692C6.16501 6.42692 6.09901 6.40612 6.05045 6.36457L4.67554 5.32284C4.51584 5.1978 4.48807 5.05204 4.59213 4.88534C5.48113 3.40616 6.76928 2.66656 8.45673 2.66656C9.06103 2.66656 9.6514 2.80897 10.2278 3.09373C10.8041 3.37835 11.2851 3.78119 11.6706 4.30209C12.0557 4.82281 12.2487 5.38888 12.2487 6C12.2482 6.30553 12.2046 6.58665 12.1181 6.84369Z" fill="#E2E2E2"/>
</g>
<defs>
<clipPath id="clip0">
<rect width="16" height="16" fill="white" transform="translate(0.248047)"/>
</clipPath>
</defs>
</svg>
