<svg width="24" height="24" viewBox="0 0 24 24" fill="none" xmlns="http://www.w3.org/2000/svg">
<g clip-path="url(#clip0)">
<path d="M22.391 5.97645C21.3179 4.13803 19.8623 2.68243 18.0238 1.60938C16.185 0.536388 14.1777 0 12.0004 0C9.82322 0 7.81531 0.536388 5.97684 1.60938C4.13825 2.68227 2.68265 4.13787 1.60955 5.97645C0.536388 7.81515 0 9.82306 0 12C0 14.1771 0.536552 16.1847 1.60938 18.0235C2.68243 19.8619 4.13803 21.3175 5.97662 22.3907C7.81531 23.4636 9.82306 24.0001 12.0001 24.0001C14.1772 24.0001 16.1852 23.4636 18.0238 22.3907C19.8622 21.3179 21.3178 19.8619 22.3908 18.0235C23.4636 16.1849 23.9999 14.177 23.9999 12C24 9.82284 23.4636 7.81487 22.391 5.97645ZM14.0005 19.5C14.0005 19.6457 13.9533 19.7656 13.8597 19.8592C13.7664 19.9529 13.6465 19.9997 13.5008 19.9997H10.5005C10.3547 19.9997 10.2348 19.9529 10.1411 19.8592C10.0473 19.7656 10.0004 19.6457 10.0004 19.5V16.4997C10.0004 16.354 10.0472 16.2341 10.1411 16.1405C10.2348 16.047 10.3547 16.0003 10.5005 16.0003H13.5008C13.6465 16.0003 13.7664 16.047 13.8597 16.1405C13.9533 16.2342 14.0005 16.354 14.0005 16.4997V19.5ZM17.8051 10.2655C17.6747 10.651 17.529 10.9663 17.3676 11.211C17.2062 11.4558 16.9742 11.7058 16.672 11.9609C16.3705 12.2161 16.1307 12.3985 15.9532 12.5081C15.7764 12.6172 15.5209 12.766 15.188 12.9533C14.8441 13.151 14.5605 13.4089 14.3367 13.7268C14.1127 14.0444 14.0007 14.3022 14.0007 14.4999C14.0007 14.646 13.9535 14.7658 13.8598 14.8595C13.7664 14.9531 13.6466 14.9999 13.5008 14.9999H10.5006C10.3549 14.9999 10.235 14.9531 10.1412 14.8595C10.0474 14.7658 10.0007 14.646 10.0007 14.4999V13.9373C10.0007 13.2394 10.274 12.5855 10.8209 11.9763C11.3679 11.3669 11.9694 10.9164 12.6258 10.6247C13.1255 10.3956 13.4798 10.1611 13.6881 9.92157C13.8967 9.68203 14.0008 9.364 14.0008 8.96837C14.0008 8.62452 13.8053 8.31728 13.4146 8.04626C13.0239 7.77552 12.5789 7.64013 12.0788 7.64013C11.537 7.64013 11.0892 7.76518 10.7349 8.01529C10.3911 8.26512 9.9433 8.74437 9.39115 9.45261C9.2974 9.57771 9.16715 9.64038 9.00044 9.64038C8.87545 9.64038 8.77644 9.60918 8.7036 9.54685L6.64123 7.98426C6.40169 7.7967 6.36004 7.57807 6.51613 7.32801C7.84963 5.10923 9.78185 3.99984 12.313 3.99984C13.2195 3.99984 14.105 4.21345 14.9696 4.6406C15.834 5.06753 16.5555 5.67178 17.1338 6.45313C17.7114 7.23421 18.001 8.08331 18.001 9.00001C18.0002 9.4583 17.9349 9.87998 17.8051 10.2655Z" fill="#BBBBBB"/>
</g>
<defs>
<clipPath id="clip0">
<rect width="24" height="24" fill="white"/>
</clipPath>
</defs>
</svg>
